<?xml version="1.0" standalone="no"?>
<!DOCTYPE svg PUBLIC "-//W3C//DTD SVG 20010904//EN"
 "http://www.w3.org/TR/2001/REC-SVG-20010904/DTD/svg10.dtd">
<svg version="1.0" xmlns="http://www.w3.org/2000/svg"
 width="500.000000pt" height="500.000000pt" viewBox="0 0 500.000000 500.000000"
 preserveAspectRatio="xMidYMid meet">
<metadata>
Created by potrace 1.11, written by Peter Selinger 2001-2013
</metadata>
<g transform="translate(0.000000,500.000000) scale(0.100000,-0.100000)"
fill="#000000" stroke="none">
<path d="M4925 4771 c-3 -6 -99 -76 -213 -158 -114 -81 -214 -153 -222 -160
-8 -7 -46 -35 -85 -62 -38 -28 -74 -54 -80 -58 -13 -11 -189 -138 -375 -271
-80 -56 -152 -108 -160 -115 -8 -7 -60 -44 -115 -82 -55 -38 -104 -73 -110
-77 -37 -30 -72 -54 -99 -68 -17 -9 -57 -31 -89 -48 -32 -18 -116 -62 -185
-99 -70 -36 -131 -69 -137 -73 -5 -4 -73 -40 -150 -80 -77 -41 -180 -96 -230
-122 -49 -27 -128 -67 -175 -90 -47 -22 -108 -58 -137 -79 -89 -67 -181 -215
-224 -363 -20 -69 -28 -82 -72 -119 -27 -23 -55 -46 -61 -52 -6 -5 -40 -35
-76 -65 -36 -30 -67 -57 -70 -60 -3 -3 -48 -41 -100 -85 -52 -44 -97 -82 -100
-85 -3 -3 -32 -28 -65 -55 -33 -28 -73 -62 -90 -76 -143 -124 -159 -138 -285
-244 -52 -44 -97 -82 -100 -85 -3 -3 -61 -53 -130 -110 -69 -58 -127 -107
-130 -110 -3 -3 -32 -28 -65 -55 -33 -28 -73 -62 -90 -76 -26 -23 -123 -105
-369 -313 -27 -22 -54 -46 -60 -51 -6 -6 -49 -42 -96 -80 -151 -124 -164 -138
-118 -130 12 3 40 7 63 10 59 9 362 59 415 69 14 3 43 8 65 11 22 3 65 10 95
15 73 12 105 17 165 25 28 3 58 8 68 11 25 8 21 -5 -18 -66 -45 -72 -45 -83 3
-76 51 8 117 16 155 21 51 5 130 16 157 20 14 3 48 7 75 10 28 3 61 8 75 10
28 5 238 31 314 40 28 4 53 8 58 11 4 3 28 5 53 6 42 0 49 -3 80 -40 69 -79
66 -79 482 -78 l368 1 55 27 c63 31 114 74 155 133 41 57 53 65 102 65 l43 0
-6 -32 c-4 -18 -18 -80 -31 -138 -14 -58 -27 -114 -29 -125 -6 -33 -11 -54
-49 -200 -19 -77 -37 -149 -39 -160 -3 -11 -27 -114 -55 -229 -29 -115 -50
-213 -49 -218 3 -9 28 12 66 56 21 25 202 224 247 272 11 12 58 63 105 114 47
51 90 98 96 104 24 25 37 65 85 264 27 114 52 216 55 227 10 40 12 50 13 60 2
19 18 35 37 39 10 2 73 7 138 11 66 4 128 8 138 10 10 2 73 7 141 10 67 4 130
8 139 11 12 4 27 48 58 177 23 95 43 181 46 192 2 11 11 49 20 84 9 36 17 72
19 80 2 9 16 65 30 125 15 60 28 116 30 125 8 39 62 263 136 569 17 70 32 134
34 142 18 86 43 140 143 310 63 107 126 211 138 230 36 53 32 70 -13 65 -99
-12 -123 -13 -123 -4 0 5 16 76 35 157 50 205 80 333 104 432 11 47 36 153 56
235 20 83 39 161 41 175 3 14 14 59 25 101 11 42 22 86 24 98 10 45 13 57 23
96 6 22 13 51 16 65 3 14 9 42 15 62 5 20 6 39 3 42 -8 9 -20 7 -27 -3z"/>
</g>
</svg>
