<svg xmlns="http://www.w3.org/2000/svg" xmlns:xlink="http://www.w3.org/1999/xlink" viewBox="0 0 554.42 818.72"><defs><style>.cls-1{fill:url(#Dégradé_sans_nom_111);}.cls-2{fill:url(#Dégradé_sans_nom_94);}.cls-3{fill:url(#Dégradé_sans_nom_49);}.cls-4{fill:#681507;}.cls-5{fill:#b22a00;}.cls-6{fill:#9b2100;}.cls-7{fill:#7f1800;}.cls-8{fill:#6b1200;}.cls-9{fill:url(#Dégradé_sans_nom_49-2);}.cls-10{fill:url(#Dégradé_sans_nom_49-3);}.cls-11{fill:#fff;}.cls-12{fill:url(#Dégradé_sans_nom_22);}.cls-13{fill:none;stroke:#000;stroke-miterlimit:10;stroke-width:3px;}</style><linearGradient id="Dégradé_sans_nom_111" x1="36.38" y1="185.41" x2="495.92" y2="185.41" gradientUnits="userSpaceOnUse"><stop offset="0" stop-color="#810618"/><stop offset="1" stop-color="#ac000e"/></linearGradient><linearGradient id="Dégradé_sans_nom_94" x1="21.56" y1="701" x2="359.38" y2="115.87" gradientUnits="userSpaceOnUse"><stop offset="0" stop-color="#f99506"/><stop offset="0.25" stop-color="#fabd02"/><stop offset="0.5" stop-color="#f99506"/><stop offset="0.75" stop-color="#fabd02"/><stop offset="1" stop-color="#f99506"/></linearGradient><radialGradient id="Dégradé_sans_nom_49" cx="344.01" cy="362.67" r="89.23" gradientTransform="translate(0 -362.67) scale(1 2)" gradientUnits="userSpaceOnUse"><stop offset="0" stop-color="#c22d0c"/><stop offset="1" stop-color="#7c1a00"/></radialGradient><radialGradient id="Dégradé_sans_nom_49-2" cx="38.18" cy="534.14" r="63.98" gradientTransform="translate(1062.84 1254.74) rotate(125.98) scale(1 2)" xlink:href="#Dégradé_sans_nom_49"/><radialGradient id="Dégradé_sans_nom_49-3" cx="209.04" cy="247.93" r="67" gradientTransform="translate(42.01 719.3) rotate(-152.42) scale(1 2)" xlink:href="#Dégradé_sans_nom_49"/><linearGradient id="Dégradé_sans_nom_22" x1="132.27" y1="248.9" x2="411.37" y2="-30.2" gradientUnits="userSpaceOnUse"><stop offset="0" stop-color="#cf8a49"/><stop offset="0.3" stop-color="#8e5c33"/><stop offset="0.6" stop-color="#e59553"/><stop offset="1" stop-color="#8e5c33"/></linearGradient></defs><title>Fichier 6</title><g id="Calque_2" data-name="Calque 2"><g id="pizza"><g id="Calque_24" data-name="Calque 24"><path class="cls-1" d="M476.67,224.13l19.25-42.38s-63.38-36.41-111.71-52.58-126.67-26-126.67-26-44.16-5.83-110.33,3.17S36.38,151.17,36.38,151.17l3,6.5L244,269.5Z"/><path class="cls-2" d="M470.79,195c-7.87-6.62-23.25-8.87-28-14.75s-9.25-22.75-20.5-23.25-10.62,2.13-18.25,0a54.53,54.53,0,0,0-15-2.37c-4.62-.25-6.12,2.87-8.62-3.5s3.87-20.88,3.87-20.88l-32.37-9.87s-13.63,9.5-15.5,12.87-4.13,16.38-9.13,14.38-10.25-9-10.25-9l-1.75-3.13s-6.5-17.5-14.75-17.75-3.62,8.75-21.12,2.5-21.5-4.25-27.5-3.25-22-10-26.88-11.5,6.67,3.34-1.66-.16S200.21,101,199.71,101s-37.67,8.17-41.83,11.17-13.34,10.67-13.34,10.67l-6.83,1.83s-30,5.17-42.5,10.33-52.67,43.67-52.67,43.67L46.29,200l4.63,5.94,17.46,72.9,28,116L120.71,495.5,147,589.17l16,57.67,31.17,87.5,1.27,10.29s1.13,19.56,5.56,26.56,9.38,16.31,9.38,16.31l2.12,17.38s5.82,15.75,15.75,11.75,20.69-18.44,19.82-30-8.19-36.44-6.57-41.94,22.94-38.19,22.94-38.19,11.73-12.16,9-26.75-6.42-10.83-2.75-22.08S303,585.34,303,585.34L334.13,521l24.5-51.58L383,422,390,406.34l1.59-6.67,11.5-22.5,12.5-16.83L425,341.75l22.09-52.08,26.25-59.33L476,224S478.67,201.63,470.79,195ZM231.61,779c-1.75,4.94-3.66,10.42-7.84,1.64s3.36-9.62.65-15.15,1.87-7.63,4.19-2.09C228.61,763.4,233.92,772.47,231.61,779Z"/><g id="Calque_26" data-name="Calque 26"><path class="cls-3" d="M416.79,358.38,405.92,373l-13.13,22.88-3.37,12.5-22.74,42.41a98.46,98.46,0,0,1-17.47,1.55c-51.91,0-94-40.15-94-89.67S297.3,273,349.21,273c36.41,0,68,19.75,83.6,48.62Z"/><path class="cls-4" d="M375.41,435.39,371.92,442v0h0c-2.47.43-5,.61-7.47.8v-.13c2.49-.18,5-.35,7.45-.77l0,0,3.44-6.67Z"/><path class="cls-4" d="M349.57,443.43a92,92,0,0,1-14.83-1l.05-.32a88.11,88.11,0,0,0,14.78,1.15Z"/><path class="cls-4" d="M320.27,438.93A86.61,86.61,0,0,1,306.6,433l.3-.54a84.28,84.28,0,0,0,13.53,6Z"/><path class="cls-4" d="M294.16,424.8a83.39,83.39,0,0,1-10.82-10.27L284,414a83.05,83.05,0,0,0,10.63,10.25Z"/><path class="cls-4" d="M274.61,402.44a79.07,79.07,0,0,1-6.31-13.51l.72-.26A77.1,77.1,0,0,0,275.33,402Z"/><path class="cls-4" d="M264.68,374.47c-.37-2.46-.62-4.94-.75-7.42s-.11-5,0-7.46l.59,0c-.06,2.47-.08,4.94.08,7.4s.41,4.92.79,7.36Z"/><path class="cls-4" d="M265.94,344.84a77.8,77.8,0,0,1,4.84-14.08l.36.17a77.84,77.84,0,0,0-4.72,14Z"/><path class="cls-4" d="M278.17,317.86a83.21,83.21,0,0,1,9.58-11.37l.26.26A80.17,80.17,0,0,0,278.42,318Z"/><path class="cls-4" d="M299.2,297a84.76,84.76,0,0,1,12.94-7.36l.21.46a85.13,85.13,0,0,0-12.9,7.26Z"/><path class="cls-4" d="M326.16,284.59A87.86,87.86,0,0,1,340.83,282l.06.7a86.76,86.76,0,0,0-14.58,2.47Z"/><path class="cls-4" d="M355.74,282a82.9,82.9,0,0,1,14.65,2.8l-.24.87a84.26,84.26,0,0,0-14.49-2.87Z"/><path class="cls-4" d="M384.38,289.92a105.06,105.06,0,0,1,13.1,7.14l-.5.78a104.48,104.48,0,0,0-13-7.08Z"/><path class="cls-4" d="M409.42,306a80.38,80.38,0,0,1,10.29,10.82l-.76.59a79.6,79.6,0,0,0-10.15-10.7Z"/><polygon class="cls-4" points="427.38 329.66 428.34 332.18 428.4 332.34 428.33 332.51 423.94 343.89 423.01 343.53 427.42 332.16 427.42 332.5 426.48 330.04 427.38 329.66"/><polygon class="cls-4" points="417.65 357.39 409.61 369.89 408.93 369.45 416.85 356.88 417.65 357.39"/><polygon class="cls-4" points="401.79 382.51 394 395.17 393.56 394.9 401.23 382.17 401.79 382.51"/><polygon class="cls-4" points="389.16 409.03 389.07 409.39 389.06 409.41 389.05 409.43 382.31 422.25 382.07 422.13 388.7 409.25 388.69 409.29 388.79 408.93 389.16 409.03"/><path class="cls-5" d="M357.54,356.67c7.73,0,7.74-12,0-12s-7.73,12,0,12Z"/><path class="cls-5" d="M351.54,323.5c7.73,0,7.74-12,0-12s-7.73,12,0,12Z"/><path class="cls-5" d="M367,327.75h.25a6.24,6.24,0,0,0,4.25-1.75,6,6,0,0,0,0-8.49,6.25,6.25,0,0,0-4.25-1.76H367a6.2,6.2,0,0,0-4.24,1.76,6.13,6.13,0,0,0-1.76,4.24A6.06,6.06,0,0,0,362.8,326a6.28,6.28,0,0,0,4.24,1.75Z"/><path class="cls-5" d="M381.29,333.25h.25a6.24,6.24,0,0,0,4.25-1.75,6,6,0,0,0,0-8.49,6.25,6.25,0,0,0-4.25-1.76h-.25a6.2,6.2,0,0,0-4.24,1.76,6.13,6.13,0,0,0-1.76,4.24,6.06,6.06,0,0,0,1.76,4.25,6.28,6.28,0,0,0,4.24,1.75Z"/><path class="cls-5" d="M379.3,346l.5.5a6.23,6.23,0,0,0,4.24,1.75,6.13,6.13,0,0,0,4.25-1.75,6,6,0,0,0,1.75-4.25,6.23,6.23,0,0,0-1.75-4.24l-.5-.5a6.2,6.2,0,0,0-4.25-1.76,6.12,6.12,0,0,0-4.24,1.76,6,6,0,0,0-1.76,4.24A6.29,6.29,0,0,0,379.3,346Z"/><path class="cls-5" d="M349.55,373.76l-.75.75a6,6,0,0,0,0,8.49,6,6,0,0,0,4.24,1.75,6.28,6.28,0,0,0,4.25-1.75l.75-.75a6.19,6.19,0,0,0,1.75-4.25,6,6,0,0,0-6-6,6.29,6.29,0,0,0-4.24,1.76Z"/><path class="cls-5" d="M352.29,385.5c7.73,0,7.74-12,0-12s-7.73,12,0,12Z"/><path class="cls-5" d="M321.29,401c7.73,0,7.74-12,0-12s-7.73,12,0,12Z"/><path class="cls-5" d="M350,422.25c7.73,0,7.74-12,0-12s-7.73,12,0,12Z"/><path class="cls-5" d="M308,343c7.73,0,7.74-12,0-12s-7.73,12,0,12Z"/><path class="cls-5" d="M365,310.25c7.73,0,7.74-12,0-12s-7.73,12,0,12Z"/><path class="cls-5" d="M293.54,340.75c7.73,0,7.74-12,0-12s-7.73,12,0,12Z"/><path class="cls-5" d="M286.86,357.53a30.55,30.55,0,0,0,4.45,6,6.07,6.07,0,0,0,8.49,0,6.13,6.13,0,0,0,0-8.49,25,25,0,0,1-1.72-2l.94,1.21a23.43,23.43,0,0,1-1.79-2.74,6,6,0,1,0-10.37,6Z"/><path class="cls-5" d="M311.51,397.1l.75,2.25a6.29,6.29,0,0,0,2.76,3.58,6,6,0,0,0,8.81-6.77l-.75-2.25a6.34,6.34,0,0,0-2.76-3.59,6,6,0,0,0-8.21,2.16,6,6,0,0,0-.6,4.62Z"/><path class="cls-5" d="M305.36,411a10.19,10.19,0,0,1-.76,1.17l.94-1.21a9.78,9.78,0,0,1-1.57,1.58l1.22-.93a10.26,10.26,0,0,1-1.91,1.14l1.43-.61-.26.11a6.63,6.63,0,0,0-3.59,2.76,6,6,0,0,0,2.16,8.21,5.74,5.74,0,0,0,4.62.6,17.09,17.09,0,0,0,5.14-3.06,13.88,13.88,0,0,0,2.94-3.7c1.52-2.75.75-6.68-2.16-8.21a6.09,6.09,0,0,0-8.2,2.15Z"/><path class="cls-5" d="M297.54,406.26l-.5-.5a6.2,6.2,0,0,0-4.25-1.76,6.12,6.12,0,0,0-4.24,1.76,6,6,0,0,0-1.76,4.24,6.29,6.29,0,0,0,1.76,4.25l.5.5a6.23,6.23,0,0,0,4.24,1.75,6.13,6.13,0,0,0,4.25-1.75,6,6,0,0,0,1.75-4.25,6.23,6.23,0,0,0-1.75-4.24Z"/><path class="cls-5" d="M281.79,377.25v-1.5a6,6,0,0,0-6-6,6.05,6.05,0,0,0-4.24,1.76,6.24,6.24,0,0,0-1.76,4.24v1.5a6.2,6.2,0,0,0,1.76,4.25,6,6,0,0,0,8.49,0,6.28,6.28,0,0,0,1.75-4.25Z"/><path class="cls-5" d="M288.48,355.78l2.25-3.5a6.06,6.06,0,0,0-2.16-8.21,6.13,6.13,0,0,0-8.21,2.16l-2.25,3.5a6,6,0,0,0,2.16,8.2,6.12,6.12,0,0,0,8.21-2.15Z"/><path class="cls-5" d="M301,319.25l.25-.25a6.19,6.19,0,0,0,1.75-4.25,6,6,0,0,0-6-6,6.29,6.29,0,0,0-4.24,1.76l-.25.25a6,6,0,0,0,0,8.49,6,6,0,0,0,4.24,1.75,6.28,6.28,0,0,0,4.25-1.75Z"/><path class="cls-5" d="M368.29,289.5c7.73,0,7.74-12,0-12s-7.73,12,0,12Z"/><path class="cls-5" d="M385.54,312v.25a6.2,6.2,0,0,0,1.76,4.25,6,6,0,0,0,8.49,0,6.28,6.28,0,0,0,1.75-4.25V312a6,6,0,0,0-6-6,6.05,6.05,0,0,0-4.24,1.76,6.24,6.24,0,0,0-1.76,4.24Z"/><path class="cls-5" d="M386.55,338.76l-.25.25a6,6,0,0,0,0,8.49,6,6,0,0,0,4.24,1.75,6.28,6.28,0,0,0,4.25-1.75l.25-.25a6.19,6.19,0,0,0,1.75-4.25,6,6,0,0,0-6-6,6.29,6.29,0,0,0-4.24,1.76Z"/><path class="cls-5" d="M360.7,370.47l-.75.25a6.34,6.34,0,0,0-3.59,2.76,6.11,6.11,0,0,0-.6,4.62,6,6,0,0,0,2.76,3.58,6,6,0,0,0,4.62.61l.75-.25a6.39,6.39,0,0,0,3.59-2.76,6,6,0,0,0-2.16-8.21,6,6,0,0,0-4.62-.6Z"/><path class="cls-5" d="M334.58,349.66a16.87,16.87,0,0,1-1-3.71l.21,1.6,0-.3A6.63,6.63,0,0,0,332,343a6,6,0,0,0-8.49,0,5.77,5.77,0,0,0-1.75,4.24,23.23,23.23,0,0,0,1.21,5.6,6.54,6.54,0,0,0,2.75,3.59,6.14,6.14,0,0,0,4.63.6,6,6,0,0,0,3.58-2.76,5.86,5.86,0,0,0,.61-4.62Z"/><path class="cls-5" d="M343,315a16.07,16.07,0,0,0,1.81-6.28,6,6,0,0,0-1.75-4.24,6.14,6.14,0,0,0-4.25-1.76,6.05,6.05,0,0,0-4.24,1.76l-.94,1.22a6,6,0,0,0-.82,3c0,.16,0,.31-.05.46l.21-1.6a9.67,9.67,0,0,1-.54,2l.6-1.44a9,9,0,0,1-.4.83,6.3,6.3,0,0,0-.6,4.62A6,6,0,0,0,343,315Z"/><path class="cls-5" d="M343.29,295.25c7.73,0,7.74-12,0-12s-7.73,12,0,12Z"/><path class="cls-5" d="M326,295.25a30.26,30.26,0,0,0,3.82,18c3.74,6.76,14.11.72,10.36-6a19.31,19.31,0,0,1-2.18-12c.35-3.22-3-6-6-6-3.55,0-5.64,2.77-6,6Z"/><path class="cls-5" d="M401,326l.25-.25A6.19,6.19,0,0,0,403,321.5a6,6,0,0,0-6-6,6.29,6.29,0,0,0-4.24,1.76l-.25.25a6,6,0,0,0,0,8.49,6,6,0,0,0,4.24,1.75A6.28,6.28,0,0,0,401,326Z"/><path class="cls-5" d="M328.24,329.81c-.47-.43-.92-.87-1.36-1.33s-.83-1.24-1.24-1.45c.27.14.63.88.17.2l-.48-.7c-.39-.59-.74-1.2-1.08-1.82a6,6,0,0,0-8.2-2.15,6.12,6.12,0,0,0-2.16,8.21,29.41,29.41,0,0,0,5.87,7.53c2.31,2.12,6.23,2.45,8.48,0s2.47-6.22,0-8.49Z"/><path class="cls-5" d="M313.54,315.5l.75-.75A6.19,6.19,0,0,0,316,310.5a6,6,0,0,0-6-6,6.29,6.29,0,0,0-4.24,1.76l-.75.75a6,6,0,0,0,0,8.49,6,6,0,0,0,4.24,1.75,6.28,6.28,0,0,0,4.25-1.75Z"/><path class="cls-5" d="M346.21,308a87.14,87.14,0,0,0,13.24,3.29c3.19.53,6.46-.84,7.38-4.19.79-2.88-1-6.85-4.19-7.38a88.34,88.34,0,0,1-13.24-3.29c-3.08-1-6.56,1.18-7.38,4.19a6.1,6.1,0,0,0,4.19,7.38Z"/><path class="cls-5" d="M398.79,335.75v.5a6.2,6.2,0,0,0,1.76,4.25,6,6,0,0,0,8.49,0,6.28,6.28,0,0,0,1.75-4.25v-.5a6,6,0,0,0-6-6,6.05,6.05,0,0,0-4.24,1.76,6.24,6.24,0,0,0-1.76,4.24Z"/><path class="cls-5" d="M353,409.75l-.25,2a6.7,6.7,0,0,0,1.76,4.25,6,6,0,0,0,8.49,0l.94-1.22a5.93,5.93,0,0,0,.81-3l.25-2a6.62,6.62,0,0,0-1.75-4.24,6.14,6.14,0,0,0-4.25-1.76,6.05,6.05,0,0,0-4.24,1.76l-.94,1.22a6,6,0,0,0-.82,3Z"/><path class="cls-5" d="M362.45,421.47l-.75.25a6.34,6.34,0,0,0-3.59,2.76,6.11,6.11,0,0,0-.6,4.62,6,6,0,0,0,2.76,3.58,6,6,0,0,0,4.62.61l.75-.25a6.39,6.39,0,0,0,3.59-2.76,6,6,0,0,0-2.16-8.21,6,6,0,0,0-4.62-.6Z"/><path class="cls-5" d="M310.16,413l-1.47-3a6.08,6.08,0,0,0-3.58-2.76,6.18,6.18,0,0,0-4.63.61,6,6,0,0,0-2.75,3.58,6.66,6.66,0,0,0,.6,4.63l1.47,3a6,6,0,0,0,11-1.43,6.69,6.69,0,0,0-.61-4.62Z"/><path class="cls-5" d="M311.82,381.17l.75-.5a6.32,6.32,0,0,0,2.75-3.58,6,6,0,0,0-4.19-7.38,6,6,0,0,0-4.62.6l-.75.5A6.43,6.43,0,0,0,303,374.4a6.11,6.11,0,0,0,.61,4.62,6,6,0,0,0,8.21,2.15Z"/><path class="cls-5" d="M332,366.75c7.73,0,7.74-12,0-12s-7.73,12,0,12Z"/><path class="cls-5" d="M305,366.79a25.46,25.46,0,0,0,7.2,4.23,6,6,0,0,0,4.62-.61A6,6,0,0,0,319,362.2a6.87,6.87,0,0,0-3.58-2.75l-.58-.24,1.43.61a17,17,0,0,1-3.48-2.06l1.21.94-.48-.39a6.4,6.4,0,0,0-4.24-1.76,6.11,6.11,0,0,0-4.25,1.76c-2,2.21-2.58,6.34,0,8.48Z"/><path class="cls-5" d="M325.11,381l3,4a6.58,6.58,0,0,0,3.59,2.75,6,6,0,0,0,7.38-4.19,5.83,5.83,0,0,0-.61-4.62l-3-4a6.57,6.57,0,0,0-3.58-2.76,6.14,6.14,0,0,0-4.63.61,6,6,0,0,0-2.75,3.58,5.78,5.78,0,0,0,.6,4.62Z"/><path class="cls-5" d="M336.46,375.24a13.3,13.3,0,0,1-2.39.61l1.59-.22a12.45,12.45,0,0,1-1.37.12,6.29,6.29,0,0,0-4.24,1.76,6.13,6.13,0,0,0-1.76,4.24c.15,3.15,2.64,6.12,6,6a18.08,18.08,0,0,0,5.36-.94,6.41,6.41,0,0,0,3.58-2.76,6.17,6.17,0,0,0,.61-4.62,6,6,0,0,0-2.76-3.59,5.91,5.91,0,0,0-4.62-.6Z"/><path class="cls-5" d="M319.79,375.76,317,373.51a6.7,6.7,0,0,0-4.25-1.76,6.12,6.12,0,0,0-4.24,1.76,6,6,0,0,0-1.76,4.24,5.88,5.88,0,0,0,1.76,4.25l2.75,2.25a4.58,4.58,0,0,0,1.93,1.24,4.5,4.5,0,0,0,2.31.51,6.13,6.13,0,0,0,4.25-1.75,6,6,0,0,0,1.75-4.25,5.83,5.83,0,0,0-1.75-4.24Z"/><path class="cls-5" d="M307,359.21c5.58-6.89,14.62-9.86,22.95-12,9.06-2.28,18.35-3.2,27.62-4.09,7.62-.74,7.7-12.74,0-12-10.9,1-21.93,2.08-32.53,5-9.6,2.62-20.09,6.65-26.52,14.59-4.82,5.95,3.62,14.49,8.48,8.49Z"/><path class="cls-5" d="M313.3,321.19c-6.41,12.55-8.73,24.39-5.27,38.2,3,11.94,8.86,21.62,20.78,26.15,22,8.36,56.37-7.39,55.2-33.5-.34-7.69-12.35-7.74-12,0,.82,18.11-25.34,28.07-40,21.93-8.33-3.51-11-11.27-12.85-19.47-2.29-9.88-.07-18.36,4.47-27.25,3.5-6.86-6.85-12.94-10.36-6.06Z"/><path class="cls-5" d="M363.15,329.81c-15.52,2.28-31.18,15.91-31.81,32.47-.3,7.86,8.3,13.89,14.52,7.32,5.71-6,6.34-16.05,4.77-23.71s-13.12-4.36-11.57,3.19a17.68,17.68,0,0,1,.23,6.32c-.23,1.49-2.36,4.81-2.2,6q6,3.3,6.62-.58c.18-.76.4-1.5.65-2.23a25.52,25.52,0,0,1,2.72-5.55c4.38-6.79,11.4-10.49,19.26-11.65,7.62-1.11,4.38-12.68-3.19-11.57Z"/><path class="cls-5" d="M317.42,316.38c11.4,4.24,24,5.63,34.82,11.41,4.35,2.34,8.51,5.32,11.36,9.42,3.6,5.19,3.91,11.18,3.63,17.29-.36,7.72,11.64,7.71,12,0,.68-14.67-4.7-26.53-17-34.73s-27.81-9.84-41.59-15c-7.25-2.69-10.38,8.9-3.19,11.57Z"/><path class="cls-5" d="M354.73,361.78l.75-1.75a4.58,4.58,0,0,0,.71-2.23,4.52,4.52,0,0,0-.11-2.39,6,6,0,0,0-7.38-4.19l-1.43.6a6,6,0,0,0-2.16,2.16l-.75,1.75a6.72,6.72,0,0,0-.6,4.62,6,6,0,0,0,7.38,4.19l1.43-.61a6.09,6.09,0,0,0,2.16-2.15Z"/><path class="cls-5" d="M358,349.5c.66-6.85,1.62-13.63,2.87-20.39,1.4-7.55-10.16-10.79-11.57-3.19q-2.18,11.71-3.3,23.58c-.74,7.68,11.26,7.63,12,0Z"/><path class="cls-5" d="M328.56,334.67c-1.54,8.61-3.07,17.26-3.76,26-.53,6.82-1.09,15.3,6.17,18.82,6.91,3.36,13-7,6-10.36-1.89-.92.09-12,.35-14.12.69-5.75,1.75-11.45,2.77-17.15,1.35-7.55-10.22-10.79-11.58-3.19Z"/><path class="cls-5" d="M392,350.44A16.46,16.46,0,0,0,396.7,352a4.53,4.53,0,0,0,2.39.11,4.38,4.38,0,0,0,2.23-.71,6,6,0,0,0,2.16-8.21,5.81,5.81,0,0,0-3.59-2.76,11.35,11.35,0,0,1-2.63-.7l1.43.6-.62-.28a6.46,6.46,0,0,0-4.62-.61,6.14,6.14,0,0,0-3.59,2.76,6.07,6.07,0,0,0-.6,4.62,5.9,5.9,0,0,0,2.75,3.59Z"/><path class="cls-5" d="M408.18,343.89a144.65,144.65,0,0,1-6.39,19c-1.25,3,1.34,6.6,4.19,7.38,3.45.95,6.13-1.18,7.38-4.19a144.65,144.65,0,0,0,6.39-19c2-7.48-9.62-10.67-11.57-3.19Z"/><path class="cls-5" d="M381,403.22l-.75.25a6.34,6.34,0,0,0-3.59,2.76,6.11,6.11,0,0,0-.6,4.62,6,6,0,0,0,2.76,3.58,6,6,0,0,0,4.62.61l.75-.25a6.39,6.39,0,0,0,3.59-2.76,6,6,0,0,0-2.16-8.21,6,6,0,0,0-4.62-.6Z"/><path class="cls-5" d="M345,419.47l-1,.25a6,6,0,0,0-4.19,7.38,6,6,0,0,0,2.76,3.58,6.34,6.34,0,0,0,4.62.61l1-.25a6.2,6.2,0,0,0,3.59-2.76,6,6,0,0,0-2.16-8.21,6.4,6.4,0,0,0-4.62-.6Z"/><path class="cls-5" d="M323.79,428h-.25a6.2,6.2,0,0,0-4.24,1.76,6.13,6.13,0,0,0-1.76,4.24,6.06,6.06,0,0,0,1.76,4.25,6.28,6.28,0,0,0,4.24,1.75h.25a6.24,6.24,0,0,0,4.25-1.75,6,6,0,0,0,0-8.49,6.25,6.25,0,0,0-4.25-1.76Z"/><path class="cls-5" d="M368.54,438.75h.25A6.24,6.24,0,0,0,373,437a6,6,0,0,0,0-8.49,6.25,6.25,0,0,0-4.25-1.76h-.25a6.2,6.2,0,0,0-4.24,1.76,6.13,6.13,0,0,0-1.76,4.24A6.06,6.06,0,0,0,364.3,437a6.28,6.28,0,0,0,4.24,1.75Z"/><path class="cls-5" d="M356.13,438q-5.79-1.35-11.49-3c-7.41-2.22-10.58,9.36-3.19,11.57q5.7,1.69,11.49,3.06A6,6,0,0,0,356.13,438Z"/><path class="cls-5" d="M338.39,433.72a53.94,53.94,0,0,1-6.75-1.75,6,6,0,0,0-7.38,4.19,6.14,6.14,0,0,0,4.19,7.38,53.94,53.94,0,0,0,6.75,1.75c3.07.59,6.62-.86,7.38-4.19.67-3-.89-6.75-4.19-7.38Z"/><path class="cls-5" d="M324.64,430.22a42.67,42.67,0,0,1-7-2c-2.94-1.12-6.71,1.24-7.38,4.19-.78,3.42,1,6.18,4.19,7.38a42.67,42.67,0,0,0,7,2c3.07.59,6.62-.87,7.38-4.19.68-3-.9-6.75-4.19-7.38Z"/><path class="cls-5" d="M320.22,429.24a249.24,249.24,0,0,1-42.36-34.05c-5.47-5.47-14,3-8.49,8.49a264.39,264.39,0,0,0,44.79,35.92c6.53,4.16,12.56-6.22,6.06-10.36Z"/><path class="cls-5" d="M276.58,377.41l-2.25-6a6.51,6.51,0,0,0-2.76-3.59,6.11,6.11,0,0,0-4.62-.6c-2.87.93-5.37,4.23-4.19,7.38l2.25,6a6.41,6.41,0,0,0,2.76,3.58,6.07,6.07,0,0,0,4.62.61c2.86-.93,5.37-4.23,4.19-7.38Z"/><path class="cls-5" d="M273,365.5a70.93,70.93,0,0,1-.25-8.5,6,6,0,0,0-6-6,6.13,6.13,0,0,0-6,6,70.93,70.93,0,0,0,.25,8.5c.29,3.12,2.56,6.16,6,6,3-.13,6.31-2.65,6-6Z"/><path class="cls-5" d="M274.29,344.25l.25-2.25a6.62,6.62,0,0,0-1.75-4.24,6.14,6.14,0,0,0-4.25-1.76,6.05,6.05,0,0,0-4.24,1.76l-.94,1.22a6,6,0,0,0-.82,3l-.25,2.25a6.7,6.7,0,0,0,1.76,4.25,6,6,0,0,0,8.49,0l.94-1.22a5.93,5.93,0,0,0,.81-3Z"/><path class="cls-5" d="M286.27,327.22l1.75-1.5a6,6,0,0,0,1.75-4.24,6,6,0,0,0-6-6l-1.59.21a6,6,0,0,0-2.65,1.55l-1.75,1.5A6.05,6.05,0,0,0,276,323a6.12,6.12,0,0,0,1.76,4.24A6,6,0,0,0,282,329l1.6-.21a6,6,0,0,0,2.65-1.55Z"/><path class="cls-5" d="M281,322.26a100.29,100.29,0,0,1-.17,12.5c-.24,3.23,2.94,6,6,6,3.45,0,5.76-2.76,6-6a100.29,100.29,0,0,0,.17-12.5,6.13,6.13,0,0,0-6-6,6.05,6.05,0,0,0-6,6Z"/><path class="cls-5" d="M278.26,377.1l.5,2a6,6,0,0,0,11,1.43,6.4,6.4,0,0,0,.6-4.62l-.5-2a6.2,6.2,0,0,0-2.76-3.59,6,6,0,0,0-8.21,2.16,6.39,6.39,0,0,0-.6,4.62Z"/><path class="cls-5" d="M294.8,404.5l1.5,1.25a4.58,4.58,0,0,0,1.93,1.24,4.5,4.5,0,0,0,2.31.51,6.13,6.13,0,0,0,4.25-1.75,6,6,0,0,0,1.75-4.25,5.89,5.89,0,0,0-1.75-4.24l-1.5-1.25a6.7,6.7,0,0,0-4.25-1.76A6.12,6.12,0,0,0,294.8,396a6,6,0,0,0-1.76,4.24,5.94,5.94,0,0,0,1.76,4.25Z"/><path class="cls-5" d="M306.29,406.25a10.6,10.6,0,0,1,1.49-1.43l-1.21.94a10.42,10.42,0,0,1,1.25-.83,6.24,6.24,0,0,0,2.76-3.59,6.16,6.16,0,0,0-.61-4.62,6.07,6.07,0,0,0-3.58-2.76,6.33,6.33,0,0,0-4.63.61,15.27,15.27,0,0,0-4,3.19,6.42,6.42,0,0,0-1.75,4.25,6,6,0,0,0,6,6,5.94,5.94,0,0,0,4.24-1.76Z"/><path class="cls-5" d="M312.48,325l-.75-1a4.67,4.67,0,0,0-1.55-1.69,4.47,4.47,0,0,0-2-1.07,6,6,0,0,0-7.38,4.19,5.82,5.82,0,0,0,.6,4.62l.75,1a4.67,4.67,0,0,0,1.55,1.69,4.56,4.56,0,0,0,2,1.07,6,6,0,0,0,7.38-4.19,5.86,5.86,0,0,0-.6-4.62Z"/><path class="cls-5" d="M304.77,312a9.33,9.33,0,0,0-4.44-7.94,6.07,6.07,0,0,0-4.62-.61,6.17,6.17,0,0,0-3.59,2.76,6.07,6.07,0,0,0-.6,4.62l.6,1.44a6,6,0,0,0,2.16,2.15l.13.09-1.22-.93a3.42,3.42,0,0,1,.58.56l-.93-1.21a3.7,3.7,0,0,1,.49.84l-.6-1.44a4.32,4.32,0,0,1,.22.78l-.22-1.59a3.88,3.88,0,0,1,0,.48,6.25,6.25,0,0,0,1.76,4.25,6,6,0,0,0,8.48,0,6.16,6.16,0,0,0,1.76-4.25Z"/><path class="cls-5" d="M291.79,313.75c7.73,0,7.74-12,0-12s-7.73,12,0,12Z"/><path class="cls-5" d="M297.79,307.5v-.25a6,6,0,0,0-6-6,6.05,6.05,0,0,0-4.24,1.76,6.24,6.24,0,0,0-1.76,4.24v.25a6.2,6.2,0,0,0,1.76,4.25,6,6,0,0,0,8.49,0,6.28,6.28,0,0,0,1.75-4.25Z"/><path class="cls-5" d="M293.54,310.75c7.73,0,7.74-12,0-12s-7.73,12,0,12Z"/><path class="cls-5" d="M319.54,297.55a36.16,36.16,0,0,0,14.27-3.15c3-1.27,3.64-5.66,2.15-8.21-1.8-3.08-5.21-3.42-8.21-2.15a21.35,21.35,0,0,1-8.21,1.51c-7.72,0-7.73,12,0,12Z"/><path class="cls-5" d="M357.45,297l20.76,7.22c7.31,2.54,10.45-9.05,3.19-11.57l-20.76-7.23c-7.3-2.54-10.45,9.05-3.19,11.58Z"/><path class="cls-5" d="M388,307.29l2.25.75a6,6,0,0,0,6.78-8.81,6.55,6.55,0,0,0-3.59-2.76l-2.25-.75a6,6,0,0,0-6.78,8.81,6.55,6.55,0,0,0,3.59,2.76Z"/><path class="cls-5" d="M395.27,311.28l5.27,5.48a6,6,0,0,0,8.48,0,6.11,6.11,0,0,0,0-8.49l-5.27-5.48a6,6,0,1,0-8.48,8.49Z"/><path class="cls-5" d="M378.33,309.34c-4.2,12.17-3.29,24.73,1.69,36.49,1.27,3,5.65,3.6,8.2,2.15,3.11-1.77,3.41-5.24,2.16-8.21-3.72-8.77-3.56-18.33-.48-27.24,2.53-7.31-9.06-10.46-11.57-3.19Z"/><path class="cls-5" d="M408.76,326.29c-6.74,12.19-17.78,21.22-24.71,33.3-3.85,6.71,6.51,12.76,10.36,6.06,6.92-12.07,18-21.09,24.71-33.31,3.73-6.76-6.62-12.82-10.36-6Z"/><path class="cls-5" d="M384.54,376c7.73,0,7.74-12,0-12s-7.73,12,0,12Z"/><path class="cls-6" d="M295.36,339l.74-.51a6.45,6.45,0,0,0,2.75-3.59,6,6,0,0,0-4.19-7.38,5.92,5.92,0,0,0-4.62.61l-.74.51a6.4,6.4,0,0,0-2.76,3.59,6.12,6.12,0,0,0,.61,4.62,6,6,0,0,0,3.58,2.76,5.94,5.94,0,0,0,4.63-.61Z"/><path class="cls-6" d="M303.29,329.75a9.19,9.19,0,0,0,1.49-1.62,8.84,8.84,0,0,0,1.19-1.85,4.38,4.38,0,0,0,.71-2.23,4.52,4.52,0,0,0-.1-2.39,6.17,6.17,0,0,0-2.76-3.59,6.07,6.07,0,0,0-4.62-.6,5.84,5.84,0,0,0-3.59,2.75,6.12,6.12,0,0,1-.73,1.24l.94-1.21a6.09,6.09,0,0,1-1,1,6.7,6.7,0,0,0-1.76,4.24,6,6,0,0,0,6,6l1.59-.21a6,6,0,0,0,2.65-1.55Z"/><path class="cls-6" d="M335.39,299.32a25.09,25.09,0,0,0,8.67-3.4c2.67-1.65,3.94-5.43,2.16-8.21a6.1,6.1,0,0,0-8.21-2.15c-.56.34-1.12.67-1.7,1-.29.15-.58.29-.88.42.61-.25.71-.3.3-.14-1.18.33-2.31.72-3.53.94-3.09.57-5.12,4.49-4.19,7.38a6.17,6.17,0,0,0,7.38,4.2Z"/><path class="cls-6" d="M353.8,297.33a1.22,1.22,0,0,1,.27,0l-1.59-.22a2.6,2.6,0,0,1,.53.14l-1.43-.61a3.53,3.53,0,0,1,.59.35l-1.21-.94a3.68,3.68,0,0,1,.39.4l-.94-1.22a3.25,3.25,0,0,1,.35.6l-.61-1.43a2.94,2.94,0,0,1,.14.53l-.22-1.6a3,3,0,0,1,0,.42,6.08,6.08,0,0,0,1.75,4.24,6.16,6.16,0,0,0,4.25,1.76,6.05,6.05,0,0,0,4.24-1.76,6.58,6.58,0,0,0,1.76-4.24,9,9,0,0,0-.22-2,2.94,2.94,0,0,0-.14-.53,9.17,9.17,0,0,0-2-3.41,10.57,10.57,0,0,0-1.53-1.21,2.78,2.78,0,0,0-.47-.28,8.55,8.55,0,0,0-3.9-1,6.19,6.19,0,0,0-4.25,1.75,6,6,0,0,0,0,8.49,6.29,6.29,0,0,0,4.25,1.76Z"/><path class="cls-6" d="M313.81,321.19a59.58,59.58,0,0,0-4.95,9c-1.25,2.86-.93,6.57,2.16,8.21,2.59,1.37,6.86.91,8.21-2.16a57.34,57.34,0,0,1,4.95-9A6,6,0,0,0,322,319a6.14,6.14,0,0,0-8.21,2.15Z"/><path class="cls-6" d="M322.09,348.51c14.8-6.44,29.84-13.87,37.85-28.68,3.67-6.79-6.69-12.86-10.37-6.06-7,12.89-20.73,18.8-33.54,24.38-7.06,3.07-1,13.41,6.06,10.36Z"/><path class="cls-6" d="M339.56,310.77a48.53,48.53,0,0,1-3.37,3.51c-.52.5-1.06,1-1.61,1.45l-1,.86c-.74.65,1.09-.8-.28.22-2.5,1.88-4.05,5.27-2.15,8.21,1.59,2.48,5.52,4.17,8.21,2.16a55.14,55.14,0,0,0,8.72-7.93c2.06-2.36,2.5-6.19,0-8.48-2.26-2.08-6.28-2.53-8.48,0Z"/><path class="cls-6" d="M362.15,319.82q15.74-4.12,31.73-7.06c7.59-1.39,4.38-13-3.19-11.57q-16,2.93-31.73,7.06c-7.47,2-4.3,13.54,3.19,11.57Z"/><path class="cls-6" d="M389.74,324.9a35,35,0,0,1-6.11,11.84c-2,2.57-.39,6.72,2.15,8.21,3.1,1.81,6.23.42,8.21-2.15a43.85,43.85,0,0,0,7.32-14.71c2.15-7.43-9.43-10.6-11.57-3.19Z"/><path class="cls-6" d="M325.07,356l-1.75,2a6.36,6.36,0,0,0-1.76,4.25,6,6,0,0,0,6,6,6,6,0,0,0,4.24-1.76l1.75-2a6.36,6.36,0,0,0,1.76-4.24,6,6,0,0,0-6-6,5.94,5.94,0,0,0-4.24,1.76Z"/><path class="cls-6" d="M306.57,383.87a10.11,10.11,0,0,0,8.59,1.22,6.24,6.24,0,0,0,3.58-2.75,6.1,6.1,0,0,0,.61-4.63c-1-3-4.18-5.22-7.38-4.19a4.46,4.46,0,0,1-.72.18l1.6-.21a5.06,5.06,0,0,1-1.23,0l1.6.21a5.28,5.28,0,0,1-1.18-.32l1.43.6a5.51,5.51,0,0,1-.85-.49,6.06,6.06,0,0,0-4.62-.61,6.17,6.17,0,0,0-3.59,2.76,6.07,6.07,0,0,0-.6,4.62,6.83,6.83,0,0,0,2.76,3.59Z"/><path class="cls-6" d="M343,344.42l-.24-1a6,6,0,0,0-7.38-4.19,6.07,6.07,0,0,0-3.58,2.75,6.48,6.48,0,0,0-.61,4.63l.24,1a6,6,0,0,0,11,1.43,6.39,6.39,0,0,0,.6-4.62Z"/><path class="cls-6" d="M332.56,336.52a22.65,22.65,0,0,1-13,5.38c-7.65.57-7.72,12.58,0,12A36.47,36.47,0,0,0,341.05,345c5.87-5-2.65-13.49-8.49-8.49Z"/><path class="cls-6" d="M285.18,348.75l-1-1.5a6.32,6.32,0,0,0-3.58-2.76,6.09,6.09,0,0,0-4.63.61,6,6,0,0,0-2.15,8.2l1,1.51a6.35,6.35,0,0,0,3.59,2.76A6.16,6.16,0,0,0,283,357a6,6,0,0,0,2.15-8.21Z"/><path class="cls-6" d="M279.37,336.74a11.13,11.13,0,0,0,6.66-5.43,6.42,6.42,0,0,0,.6-4.63,6,6,0,0,0-7.38-4.19,5.93,5.93,0,0,0-3.58,2.76,5.52,5.52,0,0,1-.57.93L276,325a5.89,5.89,0,0,1-.9.9l1.22-.94a5.79,5.79,0,0,1-1.1.65l1.44-.6-.52.19a6.27,6.27,0,0,0-3.58,2.75,6.14,6.14,0,0,0-.61,4.63,6,6,0,0,0,7.38,4.19Z"/><path class="cls-6" d="M277.31,334.41a298.66,298.66,0,0,1,7.14,30.4c1.38,7.59,12.94,4.38,11.57-3.19a298.66,298.66,0,0,0-7.14-30.4c-2.15-7.4-13.73-4.25-11.57,3.19Z"/><path class="cls-6" d="M289.57,390.08A30,30,0,0,0,297,401.29c2.31,2.13,6.23,2.46,8.49,0s2.46-6.21,0-8.48c-.54-.5-1.07-1-1.57-1.56-.25-.27-.49-.56-.72-.84.54.65,0,0-.23-.33a21.05,21.05,0,0,1-1.16-1.88c-.18-.32-.35-.64-.51-1s-.58-1.35-.17-.33c-1.16-2.91-4.06-5.27-7.38-4.19-2.81.91-5.44,4.26-4.19,7.38Z"/><path class="cls-6" d="M334.23,376.29a63.37,63.37,0,0,0,7.6-16.19c2.29-7.4-9.29-10.56-11.58-3.19a51.7,51.7,0,0,1-6.38,13.32c-4.27,6.46,6.11,12.48,10.36,6.06Z"/><path class="cls-6" d="M345.45,348.79,351.2,351a6,6,0,0,0,7.38-4.19c.79-3.45-1.05-6.15-4.19-7.38l-5.75-2.25a6,6,0,0,0-4.62.6,6.09,6.09,0,0,0-2.76,3.59c-.79,3.45,1.05,6.15,4.19,7.38Z"/><path class="cls-6" d="M349.26,395a32.81,32.81,0,0,1-.7,10.41,6.12,6.12,0,0,0,4.19,7.38,6.06,6.06,0,0,0,7.38-4.19,43.55,43.55,0,0,0,1.13-13.6c-.26-3.23-2.57-6-6-6-3,0-6.26,2.75-6,6Z"/><path class="cls-6" d="M349.55,420.5l2.08,2.69a6.62,6.62,0,0,0,4.24,1.75,6.15,6.15,0,0,0,4.25-1.75,6.06,6.06,0,0,0,1.75-4.25l-.21-1.59a6.07,6.07,0,0,0-1.54-2.65L358,412a4.47,4.47,0,0,0-1.93-1.24,4.56,4.56,0,0,0-2.31-.51,6,6,0,0,0-6,6l.22,1.59a6,6,0,0,0,1.54,2.65Z"/><path class="cls-6" d="M332.23,412.56a5.62,5.62,0,0,1-.71.16l1.6-.21a5.24,5.24,0,0,1-1,0l1.59.21a4.72,4.72,0,0,1-1.17-.32L334,413a5.08,5.08,0,0,1-.83-.5l1.21.94a6.26,6.26,0,0,1-.53-.5,6,6,0,0,0-8.48,0,6.12,6.12,0,0,0,0,8.49,10.08,10.08,0,0,0,10.05,2.69c3-.89,5.2-4.25,4.19-7.38a6.1,6.1,0,0,0-7.38-4.19Z"/><path class="cls-6" d="M333.62,393.48a95.55,95.55,0,0,0,20-8.19c6.78-3.71.73-14.07-6.06-10.36a80.84,80.84,0,0,1-17.14,7c-7.42,2.1-4.26,13.68,3.19,11.57Z"/><path class="cls-6" d="M357.73,361.15a72.06,72.06,0,0,1-9.1,16.34c-1.91,2.62-.44,6.69,2.15,8.21,3,1.77,6.3.47,8.21-2.15a83.49,83.49,0,0,0,10.31-19.21c1.17-3-1.29-6.59-4.19-7.38-3.39-.93-6.21,1.15-7.38,4.19Z"/><path class="cls-6" d="M308.1,416.22l-.5,1a6.35,6.35,0,0,0-.6,4.62,6,6,0,0,0,7.38,4.19,6,6,0,0,0,3.58-2.75l.5-1a6.38,6.38,0,0,0,.61-4.63,6,6,0,0,0-11-1.43Z"/><path class="cls-6" d="M336.2,440.52a39.5,39.5,0,0,0,16.69-.71c7.46-2,4.29-13.58-3.19-11.57a24.92,24.92,0,0,1-10.31.71c-3.19-.51-6.45.82-7.38,4.19-.78,2.85,1,6.87,4.19,7.38Z"/><path class="cls-6" d="M358.54,415c7.73,0,7.74-12,0-12s-7.73,12,0,12Z"/><path class="cls-6" d="M375,391.75c7.73,0,7.74-12,0-12s-7.73,12,0,12Z"/><path class="cls-6" d="M384.9,378.56l.74-.26a6.34,6.34,0,0,0,3.59-2.75,6.14,6.14,0,0,0,.6-4.63,6,6,0,0,0-7.38-4.19l-.74.26a6.34,6.34,0,0,0-3.59,2.75,6.14,6.14,0,0,0-.6,4.63,6,6,0,0,0,7.38,4.19Z"/><path class="cls-6" d="M396.89,368.53a16,16,0,0,0,4.71-2.77,12.8,12.8,0,0,0,2.64-3.22,6,6,0,0,0-10.36-6.06c-.16.27-.33.52-.51.77l.94-1.22a8.77,8.77,0,0,1-1.46,1.46l1.21-.94a9,9,0,0,1-1.58.93l1.43-.61-.21.09a6.59,6.59,0,0,0-3.59,2.76,6.11,6.11,0,0,0-.6,4.62,6,6,0,0,0,2.75,3.59,5.81,5.81,0,0,0,4.63.6Z"/><path class="cls-6" d="M395.11,341.5a32.65,32.65,0,0,1-3.51-2.19c-.11-.08-.92-.73-.36-.27s-.24-.21-.34-.3c-.56-.47-1.09-1-1.62-1.48-2.25-2.18-6.27-2.41-8.48,0a6.1,6.1,0,0,0,0,8.49,37.53,37.53,0,0,0,8.26,6.11c2.76,1.49,6.66.77,8.21-2.16s.79-6.61-2.16-8.2Z"/><path class="cls-6" d="M375.55,335.47a40,40,0,0,0,12.61-1.11A6,6,0,0,0,385,322.78a28.63,28.63,0,0,1-9.42.69c-3.24-.25-6,2.94-6,6,0,3.46,2.75,5.75,6,6Z"/><path class="cls-6" d="M399.8,337.75a6.44,6.44,0,0,1,.56.48q.63.7-.24-.36a5.79,5.79,0,0,1,.36.64q-.51-1.31-.21-.39c.15.64.14.47,0-.51,0,.25,0,.49,0,.74.17-1,.19-1.15.06-.5s-.11.48.23-.4c-1.27,2.86-.93,6.59,2.15,8.21,2.61,1.38,6.85.91,8.21-2.15a12.44,12.44,0,0,0,1-8.23,11.18,11.18,0,0,0-3.65-6,6.5,6.5,0,0,0-4.24-1.76,6.07,6.07,0,0,0-4.24,1.76c-2,2.17-2.63,6.4,0,8.48Z"/><path class="cls-6" d="M334,359.5c7.73,0,7.74-12,0-12s-7.73,12,0,12Z"/><path class="cls-7" d="M342.29,298.5c7.73,0,7.74-12,0-12s-7.73,12,0,12Z"/><path class="cls-7" d="M366.39,294.31a42.74,42.74,0,0,1,11.41-.09c3.22.36,6-3,6-6,0-3.54-2.77-5.64-6-6a53.72,53.72,0,0,0-14.6.52c-3.2.5-5,4.5-4.19,7.38.94,3.41,4.17,4.7,7.38,4.19Z"/><path class="cls-7" d="M406.26,304.06q-.51.9-1.08,1.77l-.58.86c-.09.12-.93,1.25-.46.65s-.27.31-.34.4c-.22.27-.45.53-.68.79-.52.58-1.05,1.14-1.61,1.69a6,6,0,1,0,8.49,8.49,42.47,42.47,0,0,0,6.63-8.59,6,6,0,0,0-10.37-6.06Z"/><path class="cls-7" d="M309.26,330.82a81,81,0,0,1-7.81,2.9c-3,.95-5.22,4.21-4.19,7.38,1,3,4.18,5.21,7.38,4.19a105.45,105.45,0,0,0,10.68-4.11c2.88-1.28,3.77-5.7,2.15-8.21-1.92-3-5.13-3.52-8.21-2.15Z"/><path class="cls-7" d="M256.53,360.09c.49,1.2.71,2.42,1.12,3.64.07.43.08.38,0-.15,0,.29.06.58.08.87,0,.69.05,1.37,0,2.05a6.05,6.05,0,0,0,6,6,6.12,6.12,0,0,0,6-6,24.05,24.05,0,0,0-1.68-9.6c-1.18-2.89-4-5.27-7.38-4.19-2.79.9-5.46,4.27-4.19,7.38Z"/><path class="cls-7" d="M312.16,323.24l2.34-3.94a6,6,0,0,0-10.37-6.06l-2.34,3.94a6,6,0,0,0,10.37,6.06Z"/><path class="cls-7" d="M325.3,323a38.86,38.86,0,0,1,3.34,3.45l.68.82c-.38-.45-.25-.35,0,.06.52.72,1,1.45,1.5,2.2,1.69,2.64,5.41,4,8.21,2.15,2.64-1.7,4-5.38,2.16-8.2a45.75,45.75,0,0,0-7.44-9c-2.31-2.12-6.23-2.45-8.49,0s-2.46,6.22,0,8.49Z"/><path class="cls-7" d="M314.76,364.82a13.39,13.39,0,0,1-2,1.07l1.43-.61a11.15,11.15,0,0,1-1.26.46,6.35,6.35,0,0,0-3.59,2.76,6,6,0,0,0,6.78,8.81,18.42,18.42,0,0,0,4.67-2.13,6.4,6.4,0,0,0,2.76-3.59A6.16,6.16,0,0,0,323,367a6,6,0,0,0-8.21-2.15Z"/><path class="cls-7" d="M286.29,335.75c7.73,0,7.74-12,0-12s-7.73,12,0,12Z"/><path class="cls-7" d="M290.54,380.09a80.22,80.22,0,0,0,4.21,15.76c1.15,3,4.05,5.11,7.38,4.19,2.91-.8,5.35-4.33,4.19-7.38a80.22,80.22,0,0,1-4.21-15.76c-.52-3.2-4.5-5-7.38-4.19-3.41.94-4.71,4.17-4.19,7.38Z"/><path class="cls-7" d="M311.19,413.84a14.8,14.8,0,0,0,5.51,0,11.32,11.32,0,0,0,3.85-1.64c2.61-1.73,4-5.38,2.15-8.21-1.68-2.6-5.41-4-8.21-2.15a8.81,8.81,0,0,1-1.08.61l1.43-.6a7.79,7.79,0,0,1-1.79.5l1.6-.22a7.4,7.4,0,0,1-1.56,0l1.6.21-.31,0a6.67,6.67,0,0,0-4.62.61,6,6,0,0,0-2.16,8.21,5.76,5.76,0,0,0,3.59,2.75Z"/><path class="cls-7" d="M352.89,374.87l3.21-9.26a6,6,0,0,0-4.19-7.39,6.15,6.15,0,0,0-7.38,4.2l-3.21,9.26a6,6,0,0,0,4.19,7.38,6.15,6.15,0,0,0,7.38-4.19Z"/><path class="cls-7" d="M352.15,348.52a183.88,183.88,0,0,1,6.55,17.35c2.37,7.31,14,4.18,11.57-3.19a214.91,214.91,0,0,0-7.76-20.22c-1.3-3-5.64-3.66-8.21-2.15-3.06,1.79-3.46,5.23-2.15,8.21Z"/><path class="cls-7" d="M348.08,411.29l-.41.35,1.22-.94a9.4,9.4,0,0,1-1.84,1.07l1.43-.6a8.54,8.54,0,0,1-1.79.52,6.07,6.07,0,0,0-3.58,2.76,6,6,0,0,0,2.15,8.21,6.72,6.72,0,0,0,4.62.6,14.43,14.43,0,0,0,6.69-3.48,6.06,6.06,0,0,0,1.75-4.24,6.13,6.13,0,0,0-1.75-4.25,6,6,0,0,0-4.25-1.75,6.68,6.68,0,0,0-4.24,1.75Z"/><path class="cls-7" d="M306.89,424.88A15.24,15.24,0,0,0,317,435.22a6,6,0,0,0,7.38-4.19,6.14,6.14,0,0,0-4.19-7.38c-1.19-.39,1.2.69.12.08l-.62-.35c-.16-.09-.3-.19-.45-.29q-.56-.39.51.39c0-.15-.54-.5-.64-.61a2.84,2.84,0,0,1-.24-.26c-.3-.34-.17-.17.38.52,0-.21-.38-.57-.48-.75s-.23-.64-.41-.78l.34.77c-.08-.22-.15-.45-.21-.68a6,6,0,0,0-11.57,3.19Z"/><path class="cls-7" d="M351.71,437.76q3.32,1.29,6.73,2.31a6,6,0,1,0,3.19-11.57q-3.42-1-6.73-2.31c-2.93-1.15-6.71,1.25-7.38,4.19-.78,3.45,1.06,6.15,4.19,7.38Z"/><path class="cls-7" d="M382,414.78l2.06-4a6.31,6.31,0,0,0,.6-4.62,6.1,6.1,0,0,0-2.76-3.59c-2.75-1.45-6.67-.82-8.2,2.15l-2.06,4a6.33,6.33,0,0,0-.6,4.63,6.1,6.1,0,0,0,2.75,3.58c2.76,1.46,6.67.83,8.21-2.15Z"/><path class="cls-7" d="M347.31,376a46.71,46.71,0,0,0-5.78,5.47c-2.08,2.35-2.48,6.21,0,8.49,2.28,2.09,6.26,2.51,8.49,0a46.7,46.7,0,0,1,5.77-5.48,6,6,0,0,0,1.76-4.24,6,6,0,0,0-6-6,6.94,6.94,0,0,0-4.24,1.76Z"/><path class="cls-7" d="M337,391.34c7.89-.68,14.66-4,21.49-7.77s.69-14.14-6.06-10.36c-4.8,2.68-9.83,5.65-15.43,6.13-3.23.28-6,2.56-6,6,0,3,2.76,6.28,6,6Z"/><path class="cls-7" d="M400.11,367.07a7.34,7.34,0,0,0,1.23-1.6,8.19,8.19,0,0,0,.78-1.89,7.54,7.54,0,0,0-.07-4.16,6.38,6.38,0,0,0-2.76-3.58,6,6,0,0,0-8.21,2.15,6,6,0,0,0-.6,4.62,1.89,1.89,0,0,1,.1.41l-.21-1.6a2.91,2.91,0,0,1,0,.42l.22-1.59a3.11,3.11,0,0,1-.11.41l.6-1.44a2.18,2.18,0,0,1-.2.37l.94-1.21-.19.21a6.22,6.22,0,0,0-1.76,4.24,6,6,0,0,0,6,6,6.2,6.2,0,0,0,4.25-1.76Z"/><path class="cls-7" d="M381,346h-.5a6.2,6.2,0,0,0-4.24,1.76,6.13,6.13,0,0,0-1.76,4.24,6.06,6.06,0,0,0,1.76,4.25,6.28,6.28,0,0,0,4.24,1.75h.5a6.24,6.24,0,0,0,4.25-1.75,6,6,0,0,0,0-8.49A6.25,6.25,0,0,0,381,346Z"/><path class="cls-7" d="M376.74,338.56c-.33-.34-.64-.69-1-1s-.3-.36.28.38l-.4-.59c-.25-.39-.49-.8-.71-1.22-.1-.21-.21-.42-.3-.64.36.9.43,1.05.2.45a6.45,6.45,0,0,0-2.76-3.58,6.12,6.12,0,0,0-4.62-.61c-2.86.92-5.39,4.24-4.19,7.38a21.74,21.74,0,0,0,5,8,6,6,0,0,0,8.48-8.48Z"/><path class="cls-7" d="M364.28,327.36a25.28,25.28,0,0,0,9.32-2.62c2.82-1.4,3.83-5.6,2.16-8.21a6.16,6.16,0,0,0-8.21-2.15c-.26.14-.53.26-.79.38l.62-.26a4.75,4.75,0,0,1-1.46.49c-.42.12-.85.22-1.28.31-1.58.32.9-.06-.36.06-3.11.29-6.15,2.55-6,6,.14,3,2.66,6.31,6,6Z"/><path class="cls-7" d="M415.79,326.25c7.73,0,7.74-12,0-12s-7.73,12,0,12Z"/><path class="cls-7" d="M410.8,306.49l-2-1.73a6.4,6.4,0,0,0-4.24-1.76,6.14,6.14,0,0,0-4.25,1.76,6,6,0,0,0,0,8.48l2,1.74a6.38,6.38,0,0,0,4.24,1.76A6.12,6.12,0,0,0,410.8,315a6,6,0,0,0,1.76-4.24,6,6,0,0,0-1.76-4.25Z"/><path class="cls-7" d="M394.64,296.72a11.86,11.86,0,0,1-1.83-.6l1.44.6a12.15,12.15,0,0,1-1.55-.84l-.27-.18c-.37-.27-.18-.12.58.45a5.49,5.49,0,0,0-.72-.64c-2.26-2.18-6.26-2.42-8.48,0a6.08,6.08,0,0,0,0,8.48,16.92,16.92,0,0,0,7.64,4.3c3,.76,6.65-1,7.38-4.19a6.1,6.1,0,0,0-4.19-7.38Z"/><path class="cls-7" d="M382.36,288l-4.24-1.77a6,6,0,0,0-4.62.6,6.13,6.13,0,0,0-2.76,3.59,6.06,6.06,0,0,0,.61,4.62l.93,1.22a6.12,6.12,0,0,0,2.65,1.54l4.24,1.77a6,6,0,0,0,4.63-.6,6,6,0,0,0,2.15-8.21l-.94-1.22a6.07,6.07,0,0,0-2.65-1.54Z"/><path class="cls-7" d="M357,287.75c7.73,0,7.74-12,0-12s-7.73,12,0,12Z"/><path class="cls-7" d="M337.21,278.51l-2.76.72a6.15,6.15,0,0,0-3.58,2.76,6,6,0,0,0,2.15,8.2,6.3,6.3,0,0,0,4.62.61l2.76-.72a6.2,6.2,0,0,0,3.59-2.76,6.12,6.12,0,0,0,.6-4.62,6,6,0,0,0-2.76-3.59,6.3,6.3,0,0,0-4.62-.6Z"/><path class="cls-7" d="M308.27,289.23A64.29,64.29,0,0,1,297,300.59c-2.57,2-3.94,5.16-2.16,8.21,1.48,2.53,5.63,4.13,8.21,2.15a75.13,75.13,0,0,0,13.67-13.23c2-2.54,2.49-6,0-8.49-2.08-2.08-6.47-2.56-8.48,0Z"/><path class="cls-7" d="M268,321.51a11.09,11.09,0,0,1,0,2.51l.22-1.59q-.08.49-.18,1a6.35,6.35,0,0,0,.6,4.62,6.13,6.13,0,0,0,3.59,2.76,6,6,0,0,0,7.38-4.19,15.93,15.93,0,0,0,.41-5.1,6.53,6.53,0,0,0-1.76-4.25,6,6,0,0,0-8.48,0,5.81,5.81,0,0,0-1.76,4.25Z"/><path class="cls-7" d="M259.54,363.75a73.07,73.07,0,0,0-.25,8.75c.1,3.14,2.69,6.15,6,6s6.11-2.64,6-6a73.07,73.07,0,0,1,.25-8.75c.28-3.13-3-6.13-6-6a6.17,6.17,0,0,0-6,6Z"/><path class="cls-7" d="M280,404.68l4,1.76a6.54,6.54,0,0,0,4.63.61,6.12,6.12,0,0,0,3.58-2.76,6,6,0,0,0,.61-4.62,5.82,5.82,0,0,0-2.76-3.59l-4-1.77a6.59,6.59,0,0,0-4.63-.6,6,6,0,0,0-4.19,7.38,5.82,5.82,0,0,0,2.76,3.59Z"/><path class="cls-7" d="M332.33,361.35a13,13,0,0,1,.86-3.06l-.6,1.44a12.88,12.88,0,0,1,.9-1.68,6,6,0,0,0-2.15-8.21,6.12,6.12,0,0,0-8.21,2.15,16.37,16.37,0,0,0-2.37,6.17,6.51,6.51,0,0,0,.6,4.62,6.13,6.13,0,0,0,3.59,2.76,6.06,6.06,0,0,0,4.62-.61,5.74,5.74,0,0,0,2.76-3.58Z"/><path class="cls-7" d="M336.53,346a63.25,63.25,0,0,1,7.26-7.74,6.06,6.06,0,0,0,0-8.49,6.14,6.14,0,0,0-8.49,0A64.83,64.83,0,0,0,328,337.5c-1.94,2.46-2.57,6.13,0,8.49,2.17,2,6.4,2.63,8.49,0Z"/><path class="cls-8" d="M296.79,308c7.73,0,7.74-12,0-12s-7.73,12,0,12Z"/><path class="cls-8" d="M360.51,285.44l1.52.72a4.38,4.38,0,0,0,2.23.71,4.52,4.52,0,0,0,2.39-.1,6.17,6.17,0,0,0,3.59-2.76,6.09,6.09,0,0,0,.6-4.63,5.89,5.89,0,0,0-2.76-3.58l-1.51-.72a4.38,4.38,0,0,0-2.23-.71,4.52,4.52,0,0,0-2.39.1,6.14,6.14,0,0,0-3.59,2.76,6,6,0,0,0-.6,4.62,5.87,5.87,0,0,0,2.75,3.59Z"/><path class="cls-8" d="M404,321.5c7.73,0,7.74-12,0-12s-7.73,12,0,12Z"/><path class="cls-8" d="M309.54,358.75c7.73,0,7.74-12,0-12s-7.73,12,0,12Z"/><path class="cls-8" d="M272.21,392.27l.74.26a6,6,0,0,0,7.38-4.2,6.06,6.06,0,0,0-.6-4.62,6.65,6.65,0,0,0-3.59-2.76l-.74-.25a6,6,0,0,0-6.78,8.81,6.6,6.6,0,0,0,3.59,2.76Z"/><path class="cls-8" d="M292.54,335v-.75a6,6,0,0,0-6-6A6.05,6.05,0,0,0,282.3,330a6.24,6.24,0,0,0-1.76,4.24V335a6.2,6.2,0,0,0,1.76,4.25,6,6,0,0,0,8.49,0,6.28,6.28,0,0,0,1.75-4.25Z"/><path class="cls-8" d="M319.54,321a16.23,16.23,0,0,0,6.78-1.61,6,6,0,0,0,2.75-3.58,6,6,0,0,0-4.19-7.38l-1.59-.22a6.09,6.09,0,0,0-3,.82l-.25.11,1.43-.6a9.67,9.67,0,0,1-2.12.59l1.6-.22a10.54,10.54,0,0,1-1.38.09,6,6,0,1,0,0,12Z"/><path class="cls-8" d="M364.27,346.1l1.48,8.5c.54,3.1,4.5,5.12,7.38,4.19,3.34-1.08,4.77-4.06,4.19-7.38l-1.48-8.5c-.54-3.1-4.5-5.12-7.38-4.19-3.34,1.08-4.77,4.06-4.19,7.38Z"/><path class="cls-8" d="M360.31,404a6.29,6.29,0,0,1-.63,1l.94-1.21a6.62,6.62,0,0,1-1,1l1.21-.94a6.41,6.41,0,0,1-1.41.82l1.43-.61a5.73,5.73,0,0,1-.89.28,6,6,0,0,0-4.19,7.38,6.12,6.12,0,0,0,7.38,4.19,11.88,11.88,0,0,0,7.52-5.81,6.33,6.33,0,0,0,.61-4.63,6.12,6.12,0,0,0-2.76-3.58c-2.77-1.47-6.65-.82-8.21,2.15Z"/><path class="cls-8" d="M332.54,370.5l.25-7.25a6,6,0,0,0-6-6,6.13,6.13,0,0,0-6,6l-.25,7.25a6,6,0,0,0,12,0Z"/><path class="cls-8" d="M342.66,338.35a20.23,20.23,0,0,0,8.37-5.86,6.5,6.5,0,0,0,1.76-4.24A6.12,6.12,0,0,0,351,324c-2.17-2-6.39-2.62-8.48,0a31.21,31.21,0,0,1-2.29,2.31c.19-.19,1-.71.34-.29l-.62.38c-.4.25-2.22,1.08-.51.37a6.59,6.59,0,0,0-3.58,2.75,6.14,6.14,0,0,0-.61,4.63,6,6,0,0,0,2.76,3.58,5.79,5.79,0,0,0,4.62.61Z"/><path class="cls-8" d="M347.54,315.25c7.73,0,7.74-12,0-12s-7.73,12,0,12Z"/><path class="cls-8" d="M334.81,344.74a64.85,64.85,0,0,0,20.39,11.8c7.28,2.6,10.42-9,3.19-11.58a48.72,48.72,0,0,1-15.1-8.71c-5.85-5-14.38,3.48-8.48,8.49Z"/><path class="cls-8" d="M413,349c7.73,0,7.74-12,0-12s-7.73,12,0,12Z"/><path class="cls-8" d="M376.6,387c-.4.59-.82,1.17-1.26,1.73l.94-1.21c-.69.88-1.42,1.74-2.19,2.56-2.14,2.29-2.44,6.24,0,8.48s6.2,2.45,8.49,0A46.34,46.34,0,0,0,387,393,6,6,0,1,0,376.6,387Z"/><path class="cls-9" d="M196.27,744.26A98.59,98.59,0,0,0,211,728.06c30.5-42,22.74-99.65-17.33-128.74a86.23,86.23,0,0,0-49.14-16.45L159.79,635l4.5,13.25,13.5,39.25,12,33.5,5.5,16.75Z"/><path class="cls-4" d="M188.47,606.49a69.29,69.29,0,0,1,6,4.54l-.33.38c-1.83-1.69-3.75-3.3-5.72-4.84Z"/><path class="cls-4" d="M205.69,623.05a68.62,68.62,0,0,1,4.5,6.9,75.55,75.55,0,0,1,3.66,7.38l-.52.23a81.38,81.38,0,0,0-3.86-7.19c-1.37-2.35-2.91-4.6-4.49-6.81Z"/><path class="cls-4" d="M218.94,652.94a86.44,86.44,0,0,1,2.23,16.28l-.8,0A80.58,80.58,0,0,0,218.6,653Z"/><path class="cls-4" d="M220.11,685.65c-.45,2.71-1.06,5.39-1.78,8.05a78.62,78.62,0,0,1-2.55,7.83l-.9-.33c.92-2.56,1.76-5.14,2.46-7.77s1.26-5.28,1.73-8Z"/><polygon class="cls-4" points="208.39 716.23 204.07 722.38 203.99 722.32 207.98 715.98 208.39 716.23"/><path class="cls-5" d="M183.41,663.15c7.72,0,7.73-12,0-12s-7.74,12,0,12Z"/><path class="cls-5" d="M193.75,652.74c7.72,0,7.73-12,0-12s-7.74,12,0,12Z"/><path class="cls-5" d="M178.65,627.92a24.77,24.77,0,0,0-5.9.05,6.61,6.61,0,0,0-4.24,1.76,6,6,0,0,0,0,8.49,5.72,5.72,0,0,0,4.24,1.75,24.78,24.78,0,0,1,5.9-.05,6,6,0,0,0,4.24-1.76,6.12,6.12,0,0,0,1.76-4.24c-.16-3.55-2.65-5.62-6-6Z"/><path class="cls-5" d="M166.76,612.58l1.21.89a4.58,4.58,0,0,0,2.23.71,4.52,4.52,0,0,0,2.39-.11,6,6,0,0,0,4.2-7.38l-.61-1.43A6.09,6.09,0,0,0,174,603.1l-1.22-.88a4.45,4.45,0,0,0-2.23-.71,4.53,4.53,0,0,0-2.39.11A6,6,0,0,0,164,609l.6,1.43a6.09,6.09,0,0,0,2.16,2.15Z"/><path class="cls-5" d="M179.42,629.46l1.51,3.88a6.54,6.54,0,0,0,2.76,3.59,6,6,0,0,0,8.21-2.16,5.82,5.82,0,0,0,.6-4.62L191,626.27a6.49,6.49,0,0,0-2.76-3.58,6,6,0,0,0-8.21,2.15,5.82,5.82,0,0,0-.6,4.62Z"/><path class="cls-5" d="M183.7,627.4l.06.35a6.66,6.66,0,0,0,2.75,3.58,6,6,0,0,0,8.21-2.15l.61-1.43a6.16,6.16,0,0,0,0-3.19l-.06-.35a4.47,4.47,0,0,0-1.07-2,4.59,4.59,0,0,0-1.69-1.55,6.11,6.11,0,0,0-4.62-.6,6,6,0,0,0-3.58,2.76l-.61,1.43a6,6,0,0,0,0,3.19Z"/><path class="cls-5" d="M181,698.94a9.7,9.7,0,0,0,.93,1.54,15.59,15.59,0,0,0,2.05,2.39,6.27,6.27,0,0,0,4.24,1.76,6,6,0,0,0,6-6,6,6,0,0,0-1.76-4.24,10.19,10.19,0,0,1-1.1-1.18l.93,1.21a8.88,8.88,0,0,1-.93-1.54,6,6,0,0,0-3.59-2.75,6,6,0,0,0-7.38,4.19l-.21,1.59a5.89,5.89,0,0,0,.82,3Z"/><path class="cls-5" d="M201.34,719.73c7.72,0,7.73-12,0-12s-7.74,12,0,12Z"/><path class="cls-5" d="M207.34,696.85a31.5,31.5,0,0,0-18.15-8.14c-3.22-.39-6,3-6,6,0,3.56,2.77,5.61,6,6a17.73,17.73,0,0,1,9.66,4.63c5.69,5.2,14.2-3.26,8.49-8.49Z"/><path class="cls-5" d="M183.27,667.58c.28-.06,1.74-.27.67-.15.67-.07,1.34-.11,2-.13a24.5,24.5,0,0,1,3.73.22c3.12.4,6.13-3,6-6-.17-3.59-2.66-5.57-6-6a29.5,29.5,0,0,0-9.6.49c-3.09.61-5.14,4.45-4.19,7.38a6.14,6.14,0,0,0,7.38,4.19Z"/><path class="cls-5" d="M197.72,674.88l.17,1a6.69,6.69,0,0,0,2.76,3.59,6,6,0,0,0,8.21-2.15l.6-1.44a6,6,0,0,0,0-3.19l-.16-1a4.58,4.58,0,0,0-1.08-2,4.53,4.53,0,0,0-1.68-1.54,6.18,6.18,0,0,0-4.63-.61,6,6,0,0,0-3.58,2.76l-.61,1.43a6.16,6.16,0,0,0,0,3.19Z"/><path class="cls-5" d="M166.21,643.9a24.13,24.13,0,0,1,.2,11c-.57,3.18.86,6.46,4.19,7.38,2.9.79,6.81-1,7.38-4.19,1-5.83,1.43-11.6-.2-17.37-2.11-7.42-13.69-4.26-11.57,3.19Z"/><path class="cls-5" d="M169.71,608.12l6.18,1.7a6,6,0,1,0,3.19-11.57l-6.18-1.71a6,6,0,0,0-3.19,11.58Z"/><path class="cls-5" d="M181.41,612.41c1.14.68,2.28,1.39,3.38,2.14.55.37,1.1.75,1.64,1.14.2.15,1.9,1.44.79.57a6.55,6.55,0,0,0,4.24,1.76,6.07,6.07,0,0,0,4.24-1.76c2-2.15,2.65-6.42,0-8.48a77.7,77.7,0,0,0-8.24-5.73,6,6,0,1,0-6.05,10.36Z"/><path class="cls-5" d="M196.65,625l1.68,1.52a6.29,6.29,0,0,0,4.24,1.76,6.12,6.12,0,0,0,4.24-1.76,6,6,0,0,0,0-8.48l-1.67-1.53a6.29,6.29,0,0,0-4.24-1.76,6.14,6.14,0,0,0-4.25,1.76,6,6,0,0,0-1.75,4.24,6.07,6.07,0,0,0,1.75,4.25Z"/><path class="cls-5" d="M204,644.33l.19,2.3a4.46,4.46,0,0,0,.52,2.31,4.38,4.38,0,0,0,1.24,1.93,6,6,0,0,0,8.48,0,5.88,5.88,0,0,0,1.76-4.24l-.19-2.3a6.62,6.62,0,0,0-1.75-4.24,6.14,6.14,0,0,0-4.25-1.76,6.05,6.05,0,0,0-4.24,1.76,5.92,5.92,0,0,0-1.76,4.24Z"/><path class="cls-5" d="M210.73,643.61a85.19,85.19,0,0,1-8.81-6.54c-2.46-2.1-6.06-2.42-8.48,0-2.15,2.15-2.48,6.38,0,8.49A112.08,112.08,0,0,0,204.67,654a6,6,0,0,0,6.06-10.36Z"/><path class="cls-5" d="M168,609.32l-1.91-.77a4.66,4.66,0,0,0-2.4-.11,4.53,4.53,0,0,0-2.23.72,6,6,0,0,0-2.15,8.21l.94,1.21a6,6,0,0,0,2.65,1.54l1.91.77a6.72,6.72,0,0,0,4.62-.6,6,6,0,0,0,2.16-8.21l-.94-1.21a6,6,0,0,0-2.65-1.55Z"/><path class="cls-5" d="M191.13,667.83l1.25,0a6.18,6.18,0,0,0,4.24-1.76,6,6,0,0,0,0-8.48,6.16,6.16,0,0,0-4.24-1.76l-1.25,0a6.18,6.18,0,0,0-4.24,1.76,6,6,0,0,0,4.24,10.24Z"/><path class="cls-5" d="M194.22,642a9.33,9.33,0,0,0,2.1,1,5.09,5.09,0,0,0,.93.24,9.72,9.72,0,0,0,4.7-.17,6.33,6.33,0,0,0,3.58-2.76,6.17,6.17,0,0,0,.61-4.62,6,6,0,0,0-7.38-4.19,4.79,4.79,0,0,1-.75.17l1.6-.22a5,5,0,0,1-.77,0l1.6.22a5.09,5.09,0,0,1-.93-.24l1.44.6a3.66,3.66,0,0,1-.67-.37,6.06,6.06,0,0,0-4.62-.6,6,6,0,0,0-4.19,7.38,6.67,6.67,0,0,0,2.75,3.58Z"/><path class="cls-5" d="M216.62,667.19c7.73,0,7.74-12,0-12s-7.73,12,0,12Z"/><path class="cls-5" d="M188.13,636.51l.2.15a4.41,4.41,0,0,0,2.23.71,4.56,4.56,0,0,0,2.4-.11,6,6,0,0,0,4.19-7.38l-.61-1.43a6,6,0,0,0-2.15-2.15l-.2-.15a4.48,4.48,0,0,0-2.23-.71,4.56,4.56,0,0,0-2.4.11,6,6,0,0,0-4.19,7.38l.61,1.43a6,6,0,0,0,2.15,2.15Z"/><path class="cls-5" d="M218,670.36c7.72,0,7.74-12,0-12s-7.73,12,0,12Z"/><path class="cls-5" d="M206.59,682.8a33,33,0,0,0-5.33,11.89,6.14,6.14,0,0,0,4.19,7.38,6.06,6.06,0,0,0,7.38-4.19,23,23,0,0,1,4.12-9c1.89-2.63.45-6.69-2.15-8.21-3-1.77-6.31-.49-8.21,2.15Z"/><path class="cls-6" d="M189.23,646.31v.9a6.15,6.15,0,0,0,1.75,4.25,6,6,0,0,0,8.49,0,6.39,6.39,0,0,0,1.76-4.25v-.9a6,6,0,0,0-6-6,6.05,6.05,0,0,0-4.24,1.76,6.38,6.38,0,0,0-1.76,4.24Z"/><path class="cls-6" d="M191.16,647.79a12.51,12.51,0,0,0,1.62,5.76,6,6,0,0,0,8.21,2.16,6.09,6.09,0,0,0,2.76-3.59,6.26,6.26,0,0,0-.61-4.62c-.12-.23-.24-.45-.35-.69l.61,1.44a6.38,6.38,0,0,1-.41-1.48l.22,1.59a5.48,5.48,0,0,1-.05-.57,6.34,6.34,0,0,0-1.76-4.24,6,6,0,0,0-8.48,0,6,6,0,0,0-1.76,4.24Z"/><path class="cls-6" d="M205.94,699.34a28.31,28.31,0,0,0-2.81,10.52c-.23,3.14,2.92,6.14,6,6a6.14,6.14,0,0,0,6-6c0-.49.22-1.53,0-.47.11-.6.23-1.19.39-1.78s.28-1,.46-1.49c.08-.25.17-.49.27-.73q-.41.95,0,0c1.36-2.82.87-6.61-2.15-8.21-2.68-1.41-6.76-.86-8.21,2.16Z"/><path class="cls-6" d="M195.06,686.23l-.1.13.94-1.21a2.73,2.73,0,0,1-.35.33l1.22-.93a3.5,3.5,0,0,1-.42.24l1.43-.6a3.17,3.17,0,0,1-.62.18l1.59-.21a3.51,3.51,0,0,1-.65,0l1.6.21a2.78,2.78,0,0,1-.63-.16l1.44.61a2.86,2.86,0,0,1-.42-.24l1.21.94-.13-.11a6.47,6.47,0,0,0-4.24-1.75,6,6,0,0,0-6,6,5.86,5.86,0,0,0,1.76,4.24,8.61,8.61,0,0,0,3.5,2,7.64,7.64,0,0,0,2.56.25,8.42,8.42,0,0,0,3.8-1.08,8.9,8.9,0,0,0,2.87-2.79,6,6,0,0,0-6.78-8.82l-1.43.61a6,6,0,0,0-2.15,2.15Z"/><path class="cls-6" d="M193.1,671.93a67.28,67.28,0,0,0-5-10.75,6,6,0,0,0-10.36,6.06q1.22,2.07,2.27,4.24a33.24,33.24,0,0,1,1.52,3.64c1.08,2.93,4.12,5.24,7.38,4.19,2.88-.93,5.35-4.23,4.19-7.38Z"/><path class="cls-6" d="M175.63,624.52c-3.64,16.5-6.47,33.23,1.1,49.09,3.33,7,13.68.88,10.36-6.06-6-12.57-2.74-26.9.12-39.84,1.66-7.53-9.91-10.74-11.58-3.19Z"/><path class="cls-6" d="M187.93,631.77l1.8.09A6,6,0,0,0,194,621.62a6.43,6.43,0,0,0-4.24-1.76l-1.8-.09A6,6,0,0,0,183.68,630a6.5,6.5,0,0,0,4.25,1.75Z"/><path class="cls-6" d="M200.3,634.62a11.34,11.34,0,0,0,1,8.68,6.05,6.05,0,0,0,8.21,2.15,6.14,6.14,0,0,0,2.15-8.21,4.09,4.09,0,0,1-.23-.47l.6,1.43a6,6,0,0,1-.34-1.26l.21,1.6a6.38,6.38,0,0,1,0-1.31l-.21,1.6a7.16,7.16,0,0,1,.23-1,6,6,0,0,0-4.19-7.38,6.12,6.12,0,0,0-7.38,4.19Z"/><path class="cls-6" d="M214.72,648.14a287.63,287.63,0,0,1-27.37-11.48c-6.93-3.34-13,7-6.06,10.36a318.77,318.77,0,0,0,30.24,12.69c7.28,2.62,10.41-9,3.19-11.57Z"/><path class="cls-7" d="M199.29,717c7.72,0,7.74-12,0-12s-7.73,12,0,12Z"/><path class="cls-7" d="M185.35,652.94a89.56,89.56,0,0,1,2.59-9.54,6,6,0,0,0-4.19-7.38,6.12,6.12,0,0,0-7.38,4.19,89.61,89.61,0,0,0-2.6,9.54c-.65,3.06.91,6.63,4.19,7.38,3,.69,6.68-.91,7.39-4.19Z"/><path class="cls-7" d="M194.48,601.73c-.63-.15-1.25-.32-1.86-.53l-.9-.33c.69.29.73.29.11,0a29.82,29.82,0,0,1-3.26-2.06,6,6,0,0,0-4.62-.61,6.13,6.13,0,0,0-3.59,2.76c-1.68,3.18-.51,6.15,2.16,8.21a23.58,23.58,0,0,0,8.77,4.12c3.05.74,6.65-1,7.38-4.19s-.93-6.59-4.19-7.38Z"/><path class="cls-7" d="M192.44,669.18l1.82,4.21a6,6,0,0,0,3.59,2.76,6.17,6.17,0,0,0,4.62-.61,6,6,0,0,0,2.76-3.58l.21-1.6a6,6,0,0,0-.82-3l-1.82-4.21a6,6,0,0,0-3.58-2.76,6.15,6.15,0,0,0-4.62.61,6,6,0,0,0-2.76,3.58l-.22,1.6a6.09,6.09,0,0,0,.82,3Z"/><path class="cls-7" d="M202.05,649.81c7.72,0,7.74-12,0-12s-7.73,12,0,12Z"/><path class="cls-7" d="M182.34,661.24a22.17,22.17,0,0,0-2.84,7.58,6.5,6.5,0,0,0,.6,4.62,6.13,6.13,0,0,0,3.59,2.76c2.89.66,6.83-.88,7.38-4.19a24.94,24.94,0,0,1,.74-3c.4-1.37-.59,1.08.06-.19.27-.53.53-1,.83-1.55a6,6,0,1,0-10.36-6Z"/><path class="cls-7" d="M199.33,735.26c7.72,0,7.73-12,0-12s-7.74,12,0,12Z"/><path class="cls-7" d="M213.78,714.61l1-2.66a6,6,0,0,0-.6-4.62,6,6,0,0,0-8.21-2.16l-1.22.94a6,6,0,0,0-1.54,2.65l-1,2.66a6,6,0,0,0,.61,4.62,6,6,0,0,0,8.21,2.15l1.21-.94a6,6,0,0,0,1.55-2.64Z"/><path class="cls-7" d="M221.79,684.74a64.19,64.19,0,0,1-2.41-15.7c-.22-7.71-12.22-7.74-12,0a77.92,77.92,0,0,0,2.84,18.89c2.08,7.43,13.66,4.27,11.57-3.19Z"/><path class="cls-7" d="M219,633.55a12.66,12.66,0,0,1-1.24-.82l1.22.94a11.6,11.6,0,0,1-1.49-1.4,6,6,0,0,0-10.24,4.24,6.6,6.6,0,0,0,1.76,4.24,15.44,15.44,0,0,0,3.94,3.16,6.2,6.2,0,0,0,4.62.6,6,6,0,0,0,4.19-7.38,6.19,6.19,0,0,0-2.76-3.58Z"/><path class="cls-7" d="M181,607.55a82.4,82.4,0,0,0-8.14-6.28,6,6,0,0,0-8.21,2.15,6.14,6.14,0,0,0,2.15,8.21c1.14.77,2.26,1.56,3.35,2.4-1.07-.82.62.52.8.67.53.43,1.05.88,1.57,1.33,2.36,2.07,6.19,2.5,8.48,0,2.08-2.26,2.53-6.28,0-8.48Z"/><path class="cls-7" d="M163.29,623.45a58.61,58.61,0,0,1,1.79,8.83c.35,3.22,2.5,6,6,6,3,0,6.36-2.76,6-6a75.47,75.47,0,0,0-2.22-12c-2.06-7.43-13.64-4.28-11.57,3.19Z"/><path class="cls-8" d="M218.34,674.61c7.72,0,7.73-12,0-12s-7.73,12,0,12Z"/><path class="cls-8" d="M169.53,653c7.72,0,7.74-12,0-12s-7.73,12,0,12Z"/><path class="cls-8" d="M155.33,592.81l-.64.46a6.61,6.61,0,0,0-2.76,3.58,6.14,6.14,0,0,0,.61,4.63,6,6,0,0,0,3.58,2.75,5.91,5.91,0,0,0,4.62-.6l.65-.46a4.45,4.45,0,0,0,1.68-1.54,4.58,4.58,0,0,0,1.08-2,6.14,6.14,0,0,0-.61-4.63,6,6,0,0,0-3.58-2.75,5.94,5.94,0,0,0-4.63.6Z"/><path class="cls-8" d="M196.46,654.44l.61.44a4.38,4.38,0,0,0,2.23.71,4.52,4.52,0,0,0,2.39-.1,6.14,6.14,0,0,0,3.59-2.76,6.07,6.07,0,0,0,.6-4.62l-.6-1.44a6,6,0,0,0-2.15-2.15l-.61-.44a4.38,4.38,0,0,0-2.23-.71,4.52,4.52,0,0,0-2.39.1,6.14,6.14,0,0,0-3.59,2.76,6,6,0,0,0-.6,4.62l.6,1.44a6,6,0,0,0,2.15,2.15Z"/><path class="cls-8" d="M189.25,676.34a13.27,13.27,0,0,0-2.17,4.92,6.38,6.38,0,0,0,.61,4.63A6,6,0,0,0,195.9,688a6,6,0,0,0,2.75-3.59,10.33,10.33,0,0,1,.5-1.61l-.61,1.43a9.7,9.7,0,0,1,1.07-1.88,6,6,0,0,0,.61-4.62,6.17,6.17,0,0,0-2.76-3.59,6.07,6.07,0,0,0-4.62-.6l-1.44.6a6,6,0,0,0-2.15,2.16Z"/><path class="cls-8" d="M177.06,619.89a21.08,21.08,0,0,0,.13,10.35,6,6,0,1,0,11.57-3.19,5.78,5.78,0,0,1-.34-1.51c-.13,1.32,0-.18,0-.47a5,5,0,0,1,.06-1.55l-.08.57c.06-.34.13-.68.21-1,.71-3.06-.94-6.64-4.19-7.38-3.06-.7-6.62.92-7.38,4.19Z"/><path class="cls-8" d="M163,628.06c7.72,0,7.73-12,0-12s-7.74,12,0,12Z"/><path class="cls-10" d="M113.54,114.37c31,23.15,42.16,64.74,24.47,98.61-14.73,28.2-45.26,43.07-76.27,40.19l-11.7-49-5.16-5.83-4-34.84-5.17-12.66s50.42-32.34,77.83-36.59Z"/><path class="cls-4" d="M104.53,117.44a62.4,62.4,0,0,1,6.27,4.15l-.34.44c-1.94-1.57-3.93-3.08-6-4.5Z"/><path class="cls-4" d="M120.37,130.29c1.45,1.6,2.81,3.28,4.1,5s2.45,3.55,3.56,5.4l-.46.29q-1.77-2.69-3.75-5.2c-1.3-1.69-2.68-3.32-4.11-4.91Z"/><path class="cls-4" d="M133.81,152.24c.81,2,1.59,4,2.24,6.06s1.25,4.13,1.71,6.24l-.78.16c-.41-2.1-.87-4.18-1.45-6.24a62.22,62.22,0,0,0-2.05-6.09Z"/><path class="cls-4" d="M139.3,177.39a58.56,58.56,0,0,1-.21,6.49c-.18,2.15-.45,4.3-.84,6.43l-1-.17c.35-2.1.63-4.22.78-6.34s.21-4.26.2-6.39Z"/><path class="cls-4" d="M134.56,202.7a62.09,62.09,0,0,1-3.3,6.76l-.09-.05c1.09-2.25,2-4.57,2.88-6.91Z"/><path class="cls-4" d="M60.07,149.64a5.07,5.07,0,0,1,1.43-2.09c.32-.27.73-.46,1-.75a4.23,4.23,0,0,0,.77-1,10.68,10.68,0,0,1,1.51-2,8,8,0,0,1,2-1.52l.08.07a8.27,8.27,0,0,1-1.35,2.17,11.19,11.19,0,0,1-1.89,1.67,4.14,4.14,0,0,0-.93.84c-.26.33-.42.75-.66,1.09a5.18,5.18,0,0,1-2,1.6Z"/><path class="cls-5" d="M55.18,187.37c7.72,0,7.73-12,0-12s-7.74,12,0,12Z"/><path class="cls-5" d="M70.52,167.8l.87-.27A6.31,6.31,0,0,0,75,164.77a6.12,6.12,0,0,0,.6-4.62A6,6,0,0,0,68.2,156l-.87.27A6.31,6.31,0,0,0,63.74,159a6,6,0,0,0,6.78,8.81Z"/><path class="cls-5" d="M70.67,167.47c7.72,0,7.73-12,0-12s-7.74,12,0,12Z"/><path class="cls-5" d="M100.49,168c7.72,0,7.73-12,0-12s-7.74,12,0,12Z"/><path class="cls-5" d="M87,140.33c7.72,0,7.74-12,0-12s-7.73,12,0,12Z"/><path class="cls-5" d="M87.49,217.51c7.72,0,7.73-12,0-12s-7.74,12,0,12Z"/><path class="cls-5" d="M97.65,225c7.72,0,7.73-12,0-12s-7.73,12,0,12Z"/><path class="cls-5" d="M112.66,204.54a27.39,27.39,0,0,0-1-6.61c-.86-3-4.28-5.2-7.38-4.19a6.1,6.1,0,0,0-4.19,7.38,21.45,21.45,0,0,1,.61,2.84l-.21-1.59c.09.72.15,1.44.17,2.17.11,3.13,2.69,6.15,6,6,3.16-.14,6.11-2.64,6-6Z"/><path class="cls-5" d="M109.52,164.8l.33-2a4.52,4.52,0,0,0,.1-2.39,4.42,4.42,0,0,0-.71-2.24A6,6,0,0,0,101,156a5.88,5.88,0,0,0-2.76,3.59l-.32,2a6.66,6.66,0,0,0,.61,4.63,6,6,0,0,0,8.2,2.15,5.78,5.78,0,0,0,2.76-3.59Z"/><path class="cls-5" d="M119.29,157a9.92,9.92,0,0,1,1.15-.64l-1.43.61a8.52,8.52,0,0,1,2.22-.62l-1.6.22a8.28,8.28,0,0,1,1.65,0c3.14.25,6.14-2.95,6-6a6.14,6.14,0,0,0-6-6,13.31,13.31,0,0,0-8,2.08c-2.63,1.71-4,5.4-2.15,8.21,1.69,2.63,5.39,4,8.21,2.15Z"/><path class="cls-5" d="M122.23,162.92l.18.58a6.32,6.32,0,0,0,2.76,3.59,6,6,0,0,0,8.82-6.78l-.19-.58a6.32,6.32,0,0,0-2.75-3.58,6.14,6.14,0,0,0-4.63-.61,6,6,0,0,0-4.19,7.38Z"/><path class="cls-5" d="M122.94,190.63l-.6,1.15a6.3,6.3,0,0,0-.6,4.62,6,6,0,0,0,7.38,4.19,6,6,0,0,0,3.58-2.76l.6-1.14a6.31,6.31,0,0,0,.6-4.62,6,6,0,0,0-11-1.44Z"/><path class="cls-5" d="M109.61,204.18,106.5,206a6,6,0,0,0-2.15,8.21,6,6,0,0,0,3.58,2.76,6.33,6.33,0,0,0,4.63-.61l3.11-1.77a6,6,0,0,0,2.15-8.21,6.09,6.09,0,0,0-3.59-2.76,6.32,6.32,0,0,0-4.62.61Z"/><path class="cls-5" d="M85.71,227l-.29.09a6.28,6.28,0,0,0-3.59,2.76,6,6,0,0,0,6.78,8.81l.29-.09a6.29,6.29,0,0,0,3.58-2.76A6,6,0,0,0,85.71,227Z"/><path class="cls-5" d="M60.15,165.75l.67.11a4.52,4.52,0,0,0,2.39.1,4.35,4.35,0,0,0,2.23-.71A6,6,0,0,0,67.6,157,5.83,5.83,0,0,0,64,154.29l-.67-.11a4.53,4.53,0,0,0-2.39-.11,4.48,4.48,0,0,0-2.23.71A6,6,0,0,0,56.56,163a5.84,5.84,0,0,0,3.59,2.76Z"/><path class="cls-5" d="M71.34,192.38l0,.25.21-1.6a15.3,15.3,0,0,1-.8,3.2,6,6,0,0,0,.6,4.62A6,6,0,0,0,79.53,201a6.78,6.78,0,0,0,2.76-3.59,21.52,21.52,0,0,0,1-5,6,6,0,0,0-1.76-4.25,6,6,0,0,0-8.48,0l-.94,1.22a5.84,5.84,0,0,0-.82,3Z"/><path class="cls-5" d="M68.36,209a20.83,20.83,0,0,1,.86,3.09c0,.25.1.49.13.74-.08-.7-.1-.82-.06-.37s.08,1.15.09,1.73c.06,3.13,2.72,6.14,6,6a6.1,6.1,0,0,0,6-6,26.5,26.5,0,0,0-1.45-8.38c-1.05-2.95-4.14-5.24-7.38-4.19-2.91.94-5.32,4.22-4.19,7.38Z"/><path class="cls-5" d="M74.68,224.87l-.87.27a6.31,6.31,0,0,0-3.59,2.76A6,6,0,0,0,77,236.71l.87-.27a6.31,6.31,0,0,0,3.59-2.76,6,6,0,0,0-6.78-8.81Z"/><path class="cls-5" d="M82.75,138.74l1-1.43a6.72,6.72,0,0,0,.6-4.62,6.1,6.1,0,0,0-2.76-3.59,6,6,0,0,0-4.62-.6l-1.43.6a6,6,0,0,0-2.15,2.15l-1,1.43a4.38,4.38,0,0,0-.71,2.23,4.52,4.52,0,0,0,.1,2.39,6.17,6.17,0,0,0,2.76,3.59,6.07,6.07,0,0,0,4.62.6l1.44-.6a6.07,6.07,0,0,0,2.15-2.15Z"/><path class="cls-5" d="M83.38,139.15l.67.11a4.56,4.56,0,0,0,2.4.11,4.62,4.62,0,0,0,2.23-.71,6,6,0,0,0,2.15-8.21,5.82,5.82,0,0,0-3.59-2.76l-.67-.11a4.63,4.63,0,0,0-2.39-.11,4.49,4.49,0,0,0-2.23.72,6,6,0,0,0-2.15,8.21,5.78,5.78,0,0,0,3.58,2.75Z"/><path class="cls-5" d="M115.31,152.45l-.08,2.89a6,6,0,0,0,12,0l.08-2.89a6,6,0,0,0-12,0Z"/><path class="cls-5" d="M102.45,175.48l-.77.08a6.7,6.7,0,0,0-4.24,1.76,6,6,0,0,0,0,8.48,5.8,5.8,0,0,0,4.24,1.76l.77-.08a4.46,4.46,0,0,0,2.31-.52,4.38,4.38,0,0,0,1.93-1.24,6,6,0,0,0,0-8.48,5.8,5.8,0,0,0-4.24-1.76Z"/><path class="cls-5" d="M78.64,189.84c7.72,0,7.74-12,0-12s-7.73,12,0,12Z"/><path class="cls-5" d="M102.52,190a23.82,23.82,0,0,0-1.64-3.46,23.55,23.55,0,0,0-2.3-3,6,6,0,0,0-4.24-1.76,6,6,0,0,0-6,6,6.62,6.62,0,0,0,1.76,4.24l.51.62-.94-1.21a13.9,13.9,0,0,1,1.78,3l-.6-1.44.1.25a6.72,6.72,0,0,0,2.76,3.59,6,6,0,0,0,8.21-2.16,5.74,5.74,0,0,0,.6-4.62Z"/><path class="cls-5" d="M92.64,169.78l-.7-4.24A6,6,0,0,0,89.19,162a6.18,6.18,0,0,0-4.63-.61A6,6,0,0,0,81,164.1a6.92,6.92,0,0,0-.61,4.63l.7,4.24a6,6,0,0,0,2.75,3.59,6.14,6.14,0,0,0,4.63.6A6,6,0,0,0,92,174.4a6.89,6.89,0,0,0,.61-4.62Z"/><path class="cls-5" d="M80.54,171.77a10.65,10.65,0,0,1,2.55.67l-1.43-.61.6.28a6.48,6.48,0,0,0,4.63.6,6,6,0,0,0,4.19-7.38,6,6,0,0,0-2.76-3.59,15.63,15.63,0,0,0-4.59-1.54,4.52,4.52,0,0,0-2.39-.11,4.58,4.58,0,0,0-2.23.71A6,6,0,0,0,77,169a5.75,5.75,0,0,0,3.59,2.76Z"/><path class="cls-5" d="M93.72,178.76l1.2,2.81a6,6,0,0,0,3.58,2.75,6,6,0,0,0,7.38-4.19l.22-1.59a6.09,6.09,0,0,0-.82-3l-1.2-2.81a6,6,0,0,0-3.59-2.76,6.11,6.11,0,0,0-4.62.61,6,6,0,0,0-2.76,3.58l-.21,1.6a5.89,5.89,0,0,0,.82,3Z"/><path class="cls-5" d="M97.09,194.14c-14.25,6-32.5-2.89-45.71-8.25-7.15-2.9-10.26,8.7-3.19,11.57,15.25,6.18,35.67,15.15,52.09,8.25,3-1.26,5.1-4,4.19-7.38-.74-2.82-4.39-5.44-7.38-4.19Z"/><path class="cls-5" d="M47.37,178.2c7.72,0,7.73-12,0-12s-7.74,12,0,12Z"/><path class="cls-5" d="M60.26,174.15l-1.27,1a6.7,6.7,0,0,0-1.76,4.25,6,6,0,0,0,6,6l1.59-.22a6,6,0,0,0,2.65-1.54l1.27-1A4.38,4.38,0,0,0,70,180.7a4.46,4.46,0,0,0,.52-2.31,6.12,6.12,0,0,0-1.76-4.24,6,6,0,0,0-4.24-1.76l-1.6.21a6,6,0,0,0-2.64,1.55Z"/><path class="cls-5" d="M71.37,205.84a229.35,229.35,0,0,0,13.49-18.61c3.34-5.36,6.9-11.52,2.88-17.54-4.28-6.38-14.68-.38-10.37,6.06.84,1.25-5,8.78-6,10.09-2.71,3.94-5.61,7.73-8.54,11.51-2,2.59-2.47,6,0,8.49,2.05,2.09,6.51,2.56,8.49,0Z"/><path class="cls-5" d="M70,164.62l.67.11a4.56,4.56,0,0,0,2.4.1,4.41,4.41,0,0,0,2.23-.71,6,6,0,0,0,2.15-8.21,5.8,5.8,0,0,0-3.59-2.75l-.67-.11a4.52,4.52,0,0,0-2.39-.11,4.48,4.48,0,0,0-2.23.71,6.13,6.13,0,0,0-2.76,3.59,6.06,6.06,0,0,0,.61,4.62A5.8,5.8,0,0,0,70,164.62Z"/><path class="cls-5" d="M91.68,134.65l.87.21a6.31,6.31,0,0,0,4.62-.61,6,6,0,0,0-1.43-11l-.87-.21a6.31,6.31,0,0,0-4.62.6,6.17,6.17,0,0,0-2.76,3.59,6,6,0,0,0,4.19,7.38Z"/><path class="cls-5" d="M111.09,136.43l.19.1a6.31,6.31,0,0,0,4.62.61,6,6,0,0,0,1.43-11l-.19-.1a6.3,6.3,0,0,0-4.62-.6,6,6,0,0,0-4.19,7.38,6,6,0,0,0,2.76,3.58Z"/><path class="cls-5" d="M105.45,140.1c7.73,0,7.74-12,0-12s-7.73,12,0,12Z"/><path class="cls-5" d="M102.15,126.12a47.17,47.17,0,0,1,4.45,4,6,6,0,0,0,8.49-8.49,44.71,44.71,0,0,0-4.46-4,6.48,6.48,0,0,0-4.24-1.76,6,6,0,0,0-6,6,5.81,5.81,0,0,0,1.76,4.24Z"/><path class="cls-5" d="M111.24,134.27a35.65,35.65,0,0,1,4.55,4.31,6,6,0,0,0,8.48,0,6.14,6.14,0,0,0,0-8.48,35.57,35.57,0,0,0-4.54-4.31,6.53,6.53,0,0,0-4.25-1.76,6,6,0,0,0-6,6,5.82,5.82,0,0,0,1.76,4.24Z"/><path class="cls-5" d="M114.14,136.6a214.39,214.39,0,0,1,18.69,42.61c2.31,7.34,13.9,4.2,11.57-3.19a229.41,229.41,0,0,0-19.9-45.48c-3.85-6.7-14.22-.66-10.36,6.06Z"/><path class="cls-5" d="M126.63,194.32l-.67,5.47a5.94,5.94,0,0,0,1.75,4.24,6,6,0,0,0,8.49,0,7,7,0,0,0,1.76-4.24l.67-5.47a6,6,0,0,0-10.24-4.25,7,7,0,0,0-1.76,4.25Z"/><path class="cls-5" d="M124.33,204.51c-.26.63-.25.61,0-.08-.13.3-.26.59-.4.89s-.41.89-.62,1.32c-.51,1-1,2-1.6,3-1.55,2.74-.75,6.68,2.15,8.21a6.1,6.1,0,0,0,8.21-2.15,71.66,71.66,0,0,0,3.8-8,6,6,0,0,0-.61-4.62,6.15,6.15,0,0,0-3.58-2.76c-3.49-.79-6.1,1.07-7.38,4.19Z"/><path class="cls-5" d="M115.51,218.79l-1.08,1.62a6.06,6.06,0,0,0-.61,4.62,6,6,0,0,0,7.38,4.19,6.66,6.66,0,0,0,3.59-2.76l1.08-1.61a6,6,0,0,0-2.15-8.21,6,6,0,0,0-4.62-.61,6.66,6.66,0,0,0-3.59,2.76Z"/><path class="cls-5" d="M100.15,226.79l-1.93.45A6,6,0,0,0,94,234.62a6,6,0,0,0,2.76,3.58,6.5,6.5,0,0,0,4.62.61l1.93-.45a6,6,0,0,0,1.43-11,6.44,6.44,0,0,0-4.62-.6Z"/><path class="cls-5" d="M102.84,234.17a84.56,84.56,0,0,1,5.1-9.47,6.06,6.06,0,0,0-2.15-8.21,6.13,6.13,0,0,0-8.21,2.15,86.35,86.35,0,0,0-5.1,9.47c-1.31,2.85-.9,6.6,2.15,8.21,2.64,1.4,6.81.89,8.21-2.15Z"/><path class="cls-5" d="M126.92,193.3l.41-1.72a6.29,6.29,0,0,0-.6-4.62,6,6,0,0,0-11,1.43l-.42,1.72a6.33,6.33,0,0,0,.61,4.63,6,6,0,0,0,11-1.44Z"/><path class="cls-5" d="M125.33,165.26l-.64-1.55a6.81,6.81,0,0,0-2.76-3.59,6,6,0,0,0-8.21,2.16l-.6,1.43a6,6,0,0,0,0,3.19l.64,1.55a6.81,6.81,0,0,0,2.76,3.59,6.12,6.12,0,0,0,4.62.6,6,6,0,0,0,3.59-2.76l.6-1.43a6,6,0,0,0,0-3.19Z"/><path class="cls-5" d="M116.36,158.54a9.75,9.75,0,0,1-2.12.56l1.6-.22a8.47,8.47,0,0,1-.88.07,6.34,6.34,0,0,0-4.24,1.76,6,6,0,0,0,0,8.49A6,6,0,0,0,115,171a14,14,0,0,0,4.59-.84,6.81,6.81,0,0,0,3.59-2.76,6,6,0,0,0-2.16-8.21,5.82,5.82,0,0,0-4.62-.6Z"/><path class="cls-5" d="M78.69,220.27l.17,1.06a6.81,6.81,0,0,0,2.76,3.59,6,6,0,0,0,8.21-2.15l.6-1.44a6,6,0,0,0,0-3.19l-.17-1.06a6.61,6.61,0,0,0-2.76-3.58,6,6,0,0,0-8.21,2.15l-.6,1.43a6,6,0,0,0,0,3.19Z"/><path class="cls-5" d="M79.42,231.25a9.67,9.67,0,0,0-1.14,4.37A9.45,9.45,0,0,0,79.44,240,6.06,6.06,0,0,0,83,242.75a6.14,6.14,0,0,0,4.63-.6,6,6,0,0,0,2.75-3.59l.22-1.59a6.07,6.07,0,0,0-.82-3l-.08-.16.61,1.44a3.21,3.21,0,0,1-.24-.84L90.3,236a4.09,4.09,0,0,1,0-.7l-.22,1.6a3.85,3.85,0,0,1,.23-.84l-.6,1.43.07-.16a6.46,6.46,0,0,0,.61-4.62,6.17,6.17,0,0,0-2.76-3.59,6.07,6.07,0,0,0-4.62-.6,5.91,5.91,0,0,0-3.59,2.76Z"/><path class="cls-5" d="M88.23,246.3c7.72,0,7.73-12,0-12s-7.74,12,0,12Z"/><path class="cls-5" d="M83,237.46l-.1.19a6.36,6.36,0,0,0-.61,4.62A6.17,6.17,0,0,0,85,245.86a6,6,0,0,0,8.21-2.15l.1-.2a6.3,6.3,0,0,0,.6-4.62,6,6,0,0,0-11-1.43Z"/><path class="cls-5" d="M85.7,247.89c7.72,0,7.73-12,0-12s-7.74,12,0,12Z"/><path class="cls-5" d="M45.16,163.12c7.72,0,7.73-12,0-12s-7.74,12,0,12Z"/><path class="cls-6" d="M98.2,214.22l-.77.09a4.56,4.56,0,0,0-2.31.52,4.47,4.47,0,0,0-1.93,1.24,6,6,0,0,0,0,8.49l1.21.94a6,6,0,0,0,3,.81l.77-.09a6.7,6.7,0,0,0,4.24-1.76,6,6,0,0,0,0-8.49l-1.21-.93a5.89,5.89,0,0,0-3-.82Z"/><path class="cls-6" d="M88.17,218.08a11.36,11.36,0,0,0-4.87,2.57,4.38,4.38,0,0,0-1.24,1.93,4.46,4.46,0,0,0-.52,2.31,6,6,0,0,0,6,6l1.6-.21a6,6,0,0,0,2.64-1.55l.13-.1L90.7,230a5.51,5.51,0,0,1,1-.59l-1.43.61a4.83,4.83,0,0,1,1.1-.34,6,6,0,0,0,1.44-11l-1.44-.6a6,6,0,0,0-3.19,0Z"/><path class="cls-6" d="M77.07,222.08a58.14,58.14,0,0,0,8.59-5.86c2.46-2,2.21-6.45,0-8.48-2.61-2.39-5.87-2.11-8.49,0-.53.43-.54.44,0,0l-.84.62c-.57.41-1.14.81-1.72,1.19-1.16.77-2.36,1.47-3.59,2.14a6.05,6.05,0,0,0-2.15,8.21,6.12,6.12,0,0,0,8.21,2.15Z"/><path class="cls-6" d="M82.13,191.08l2.13-.83a4.47,4.47,0,0,0,2-1.07,4.56,4.56,0,0,0,1.55-1.68,6.14,6.14,0,0,0,.6-4.63,6,6,0,0,0-2.76-3.58,5.86,5.86,0,0,0-4.62-.61l-2.13.83a4.48,4.48,0,0,0-2,1.08,4.56,4.56,0,0,0-1.55,1.68,6,6,0,0,0,2.16,8.21,5.82,5.82,0,0,0,4.62.6Z"/><path class="cls-6" d="M108.09,176.07a9,9,0,0,0-2.68-3,8,8,0,0,0-2-1.19,7.58,7.58,0,0,0-1.66-.57,4.62,4.62,0,0,0-2.39-.11,4.49,4.49,0,0,0-2.23.72A6,6,0,0,0,95,180.08a5.78,5.78,0,0,0,3.58,2.75,4.85,4.85,0,0,1,.94.27L98,182.5a5,5,0,0,1,.71.41L97.53,182a4.17,4.17,0,0,1,.71.68l-.94-1.21a3.79,3.79,0,0,1,.43.69,6.12,6.12,0,0,0,3.58,2.76,6.18,6.18,0,0,0,4.63-.61,6,6,0,0,0,2.76-3.58,6.66,6.66,0,0,0-.61-4.63Z"/><path class="cls-6" d="M63,191.41l-.22.86a6.25,6.25,0,0,0,.6,4.62,6,6,0,0,0,8.21,2.16,6.17,6.17,0,0,0,2.76-3.59l.22-.86A6.21,6.21,0,0,0,74,190a6,6,0,0,0-8.21-2.16A6.18,6.18,0,0,0,63,191.41Z"/><path class="cls-6" d="M68.64,203a18.66,18.66,0,0,1,11.39.84c3,1.27,6.43.88,8.21-2.16,1.48-2.52.84-6.93-2.15-8.21a32.49,32.49,0,0,0-20.64-2c-7.52,1.71-4.34,13.29,3.19,11.57Z"/><path class="cls-6" d="M108.76,211.41l.16,1.55a6.7,6.7,0,0,0,1.76,4.24,6.12,6.12,0,0,0,4.24,1.76,6.05,6.05,0,0,0,4.24-1.76,5.82,5.82,0,0,0,1.76-4.24l-.16-1.55a6.62,6.62,0,0,0-1.75-4.24,6.14,6.14,0,0,0-4.25-1.76,6.05,6.05,0,0,0-4.24,1.76,5.86,5.86,0,0,0-1.76,4.24Z"/><path class="cls-6" d="M109.76,222.4a12.15,12.15,0,0,0-4.88,0,8.37,8.37,0,0,0-1.52.55,7.61,7.61,0,0,0-1.63.84A6.51,6.51,0,0,0,99,227.41a6,6,0,0,0,4.19,7.38,5.83,5.83,0,0,0,4.62-.61,5.24,5.24,0,0,1,.92-.53l-1.44.6a5.18,5.18,0,0,1,1.23-.32l-1.6.21a5.36,5.36,0,0,1,1.06,0l-1.59-.21.21,0a6.51,6.51,0,0,0,4.62-.6,6.17,6.17,0,0,0,2.76-3.59,6.06,6.06,0,0,0-.61-4.62,5.83,5.83,0,0,0-3.58-2.76Z"/><path class="cls-6" d="M110.63,226.24a262.71,262.71,0,0,1,6.67-26c2.3-7.4-9.28-10.56-11.58-3.19a264.74,264.74,0,0,0-6.66,26c-1.52,7.54,10,10.77,11.57,3.19Z"/><path class="cls-6" d="M123.68,177.31a24.76,24.76,0,0,0-1.31-10.49c-1-2.95-4.14-5.23-7.38-4.19-2.91,1-5.31,4.22-4.19,7.39a13.74,13.74,0,0,1,.88,7.29c-.31,3.13,3,6.13,6,6,3.5-.16,5.67-2.65,6-6Z"/><path class="cls-6" d="M82.88,170.31a54.82,54.82,0,0,0-12.42,9.41c-5.44,5.49,3,14,8.48,8.49a43.08,43.08,0,0,1,10-7.54,6,6,0,1,0-6.06-10.36Z"/><path class="cls-6" d="M64.37,187.16l-3.49-4a6.05,6.05,0,0,0-4.24-1.76,6.12,6.12,0,0,0-4.24,1.76,6,6,0,0,0-1.76,4.24,6.7,6.7,0,0,0,1.76,4.25l3.49,4a6,6,0,0,0,10.24-4.24,6.62,6.62,0,0,0-1.76-4.24Z"/><path class="cls-6" d="M80.37,150.06c-.36.83.59-1.15.69-1.34.34-.63.69-1.25,1.07-1.86s.78-1.2,1.2-1.78.48-.65.18-.24c.26-.31.52-.63.8-.93,2.06-2.37,2.5-6.19,0-8.49-2.26-2.07-6.29-2.52-8.49,0a41.55,41.55,0,0,0-7,11.45c-1.22,2.9,1.32,6.72,4.2,7.38,3.51.8,6.07-1.09,7.38-4.19Z"/><path class="cls-6" d="M90,131.24l-.52-2.87a6,6,0,0,0-2.75-3.59,6.14,6.14,0,0,0-4.63-.6,6.07,6.07,0,0,0-3.58,2.75l-.61,1.44a6.16,6.16,0,0,0,0,3.19l.52,2.88A6,6,0,0,0,81.14,138a6,6,0,0,0,8.21-2.15l.6-1.43a6,6,0,0,0,0-3.2Z"/><path class="cls-6" d="M98.63,145a3.71,3.71,0,0,1,.74.22l-1.44-.61a4.79,4.79,0,0,1,.79.46l-1.21-.93a3.94,3.94,0,0,1,.64.65l-.94-1.22a3.92,3.92,0,0,1,.45.8l-.6-1.44c0,.15.1.29.14.44a6,6,0,0,0,7.38,4.19,6,6,0,0,0,3.58-2.76,6.3,6.3,0,0,0,.61-4.62,9.45,9.45,0,0,0-7-6.75,6.46,6.46,0,0,0-4.62.61,6,6,0,0,0-2.15,8.21A5.85,5.85,0,0,0,98.63,145Z"/><path class="cls-6" d="M91,157.51a84.67,84.67,0,0,0-18.78-1.83c-7.72.14-7.74,12.14,0,12a69.72,69.72,0,0,1,15.59,1.4c7.54,1.56,10.76-10,3.19-11.57Z"/><path class="cls-6" d="M59.67,174a60.79,60.79,0,0,1,13.27-8.76c2.91-1.43,3.71-5.55,2.15-8.21a6.12,6.12,0,0,0-8.21-2.15,72.5,72.5,0,0,0-15.69,10.63c-2.44,2.14-2.19,6.3,0,8.49a6.12,6.12,0,0,0,8.48,0Z"/><path class="cls-6" d="M119.28,151.88l.78-.57a4.55,4.55,0,0,0,1.69-1.54,4.47,4.47,0,0,0,1.07-2,6,6,0,0,0-4.19-7.38,5.87,5.87,0,0,0-4.62.6l-.78.56a4.67,4.67,0,0,0-1.69,1.55,4.47,4.47,0,0,0-1.07,2,6,6,0,0,0,4.19,7.38,5.87,5.87,0,0,0,4.62-.6Z"/><path class="cls-6" d="M111.92,135.44a31.62,31.62,0,0,0-12-5.44,6.12,6.12,0,0,0-7.38,4.19c-.83,3,1,6.67,4.19,7.38a22.21,22.21,0,0,1,9.14,4.23c2.6,1.94,6.7.42,8.21-2.15,1.79-3.06.46-6.27-2.15-8.21Z"/><path class="cls-6" d="M77.65,142.48c7.72,0,7.74-12,0-12s-7.73,12,0,12Z"/><path class="cls-6" d="M55.8,153.64c7.73,0,7.74-12,0-12s-7.73,12,0,12Z"/><path class="cls-6" d="M45.93,148.46l-.67-.1a4.53,4.53,0,0,0-2.39-.11,4.46,4.46,0,0,0-2.23.72,6,6,0,0,0-2.16,8.2,5.78,5.78,0,0,0,3.59,2.76l.67.11a4.52,4.52,0,0,0,2.39.1,4.35,4.35,0,0,0,2.23-.71,6,6,0,0,0,2.16-8.21,5.85,5.85,0,0,0-3.59-2.76Z"/><path class="cls-6" d="M74.23,194.57c7.72,0,7.73-12,0-12s-7.74,12,0,12Z"/><path class="cls-7" d="M83.85,216.59c1.3.08,2.61.2,3.91.34a5,5,0,0,1,1,.13l1.94.32c3.08.54,6.62-.82,7.38-4.19.67-2.92-.88-6.8-4.19-7.38a91.7,91.7,0,0,0-10-1.22,6,6,0,0,0-6,6,6.14,6.14,0,0,0,6,6Z"/><path class="cls-7" d="M136.93,213.34c.13-1.39-.29,1,0-.27.14-.53.25-1.07.41-1.6.05-.17.62-1.59.27-.82s.45-.83.53-1c1.53-2.75.75-6.68-2.15-8.21a6.09,6.09,0,0,0-8.21,2.15,23.92,23.92,0,0,0-2.89,9.72c-.29,3.13,3,6.13,6,6,3.5-.16,5.69-2.64,6-6Z"/><path class="cls-7" d="M78.59,219.57l-3.36,2.07a6.27,6.27,0,0,0-2.76,3.59A6,6,0,0,0,81.28,232l3.36-2.07a6.27,6.27,0,0,0,2.76-3.59,6.11,6.11,0,0,0-.61-4.62A6,6,0,0,0,83.21,219a6.15,6.15,0,0,0-4.62.61Z"/><path class="cls-7" d="M69.6,215.27a34.57,34.57,0,0,1-1.15-3.88c-.14-.61-.26-1.22-.37-1.83-.06-.43-.07-.41,0,.05,0-.42-.09-.83-.12-1.24-.29-3.12-2.56-6.16-6-6-3,.13-6.31,2.65-6,6A40.34,40.34,0,0,0,58,218.46c1,2.95,4.14,5.24,7.38,4.19,2.91-.94,5.32-4.21,4.19-7.38Z"/><path class="cls-7" d="M93.2,188.46a11.4,11.4,0,0,1,2.61,0l-1.6-.22.47.08a6.43,6.43,0,0,0,4.63-.6,6,6,0,0,0,2.15-8.21,5.91,5.91,0,0,0-3.59-2.76,17.06,17.06,0,0,0-4.67-.34A6.58,6.58,0,0,0,89,178.22a6,6,0,0,0,0,8.49,5.85,5.85,0,0,0,4.25,1.75Z"/><path class="cls-7" d="M101.19,231.71c7.72,0,7.73-12,0-12s-7.74,12,0,12Z"/><path class="cls-7" d="M109.24,182.13a76.13,76.13,0,0,0,3.28-15.3c.38-3.22-3-6-6-6-3.56,0-5.62,2.77-6,6a61.45,61.45,0,0,1-2.85,12.11c-2.44,7.34,9.14,10.49,11.57,3.19Z"/><path class="cls-7" d="M115.2,150.25a11,11,0,0,0-7.07-1.88,6.45,6.45,0,0,0-4.24,1.76,6,6,0,0,0,0,8.48,5.84,5.84,0,0,0,4.24,1.76,6.67,6.67,0,0,1,1.34,0l-1.6-.21a6.43,6.43,0,0,1,1.55.4L108,160a6.66,6.66,0,0,1,1.16.66,6.06,6.06,0,0,0,4.62.6,6,6,0,0,0,4.19-7.38,6.72,6.72,0,0,0-2.76-3.58Z"/><path class="cls-7" d="M67.9,164l-6.14,5.79a6.07,6.07,0,0,0,0,8.49,6.13,6.13,0,0,0,8.49,0l6.13-5.79a6,6,0,0,0,0-8.49,6.12,6.12,0,0,0-8.48,0Z"/><path class="cls-7" d="M59.27,185.41c.36-5.23.94-10.42,1.82-15.59.54-3.19-.85-6.46-4.19-7.38-2.88-.79-6.84,1-7.39,4.19-1,6.22-1.81,12.48-2.24,18.78-.51,7.71,11.49,7.67,12,0Z"/><path class="cls-7" d="M86.59,139.76c.28-.06.55-.12.82-.16l-1.59.22a8.39,8.39,0,0,1,1.94,0l-1.59-.21a8.08,8.08,0,0,1,1.08.26,6,6,0,0,0,3.19-11.57,13.45,13.45,0,0,0-7-.13,6,6,0,0,0-4.19,7.38,6.14,6.14,0,0,0,7.38,4.19Z"/><path class="cls-7" d="M124.11,145.45a14.09,14.09,0,0,0-3.58-12.87,6,6,0,1,0-8.49,8.48c.44.49.4.41-.11-.24q.24.35.45.72c.63.93-.22-1,0,.13.06.21.11.41.15.62.09.46.06.28-.07-.54a6,6,0,0,1,0,.85c.16-.89.17-1,0-.34-.61,3.07.88,6.63,4.19,7.38,3,.68,6.72-.89,7.38-4.19Z"/><path class="cls-7" d="M114,135.3c-1.33-1.54-2.74-3-4.21-4.44-2.26-2.18-6.26-2.41-8.48,0a6.1,6.1,0,0,0,0,8.49q2.2,2.13,4.21,4.44c2.06,2.38,6.4,2.27,8.48,0a6.14,6.14,0,0,0,0-8.49Z"/><path class="cls-7" d="M71.55,142.1l-3.15,2.21a6.49,6.49,0,0,0-2.76,3.58,6.18,6.18,0,0,0,.61,4.63,6,6,0,0,0,3.58,2.76,5.94,5.94,0,0,0,4.63-.61l3.15-2.21a6.45,6.45,0,0,0,2.75-3.59,6,6,0,0,0-4.19-7.38,5.92,5.92,0,0,0-4.62.61Z"/><path class="cls-7" d="M87.64,156.79l-4.38-.59-2.15-2.15-.58-1.36V149.5c-.08.59.83-1.71.52-1.21-.13.22-.4.54.31-.38s.18-.25,0,0c-.48.48-1,1-1.47,1.42-1.26,1.15-2.55,2.27-3.82,3.4a16,16,0,0,0-3.23,3.39c-2.72,4.52,1.64,10.85,6.93,9,3-1,5.23-4.15,4.19-7.38-1-2.92-4.21-5.31-7.38-4.19-1,.35-.06.37,3,0l2.65,1.54h0l1.76,4.24-.79,2.91c.16-.24,0-.08-.37.48-1,1.24-.46.53-.3.4a5.78,5.78,0,0,0,.5-.49c.48-.47,1-.91,1.49-1.36,1.27-1.13,2.56-2.24,3.82-3.4a15.69,15.69,0,0,0,3.18-3.53,6.38,6.38,0,0,0,.07-6.34c-1.56-2.65-4.24-3.18-7-2.79-3.12.43-5.1,4.57-4.19,7.38,1.11,3.42,4,4.66,7.38,4.19Z"/><path class="cls-7" d="M88.73,186.81c-5.84-2.42-12.23-2.44-18.44-2.26-7.71.21-7.74,12.21,0,12,5.28-.15,10.29-.23,15.25,1.83,3,1.24,6.6-1.34,7.38-4.19,1-3.45-1.19-6.13-4.19-7.38Z"/><path class="cls-7" d="M69.77,248.11a55.62,55.62,0,0,1,13-3.81c3.2-.56,5-4.46,4.19-7.38-.92-3.37-4.18-4.75-7.38-4.19a67.7,67.7,0,0,0-15.83,5c-3,1.32-3.66,5.63-2.15,8.21,1.78,3,5.24,3.48,8.21,2.15Z"/><path class="cls-7" d="M113,238.48l.14-.33-.61,1.43a9.52,9.52,0,0,1,1.08-1.85l-.94,1.22.34-.42a6.62,6.62,0,0,0,1.75-4.24,6,6,0,0,0-6-6,5.93,5.93,0,0,0-4.24,1.75,19.68,19.68,0,0,0-1.82,2.45,18.08,18.08,0,0,0-1.27,2.8,4.52,4.52,0,0,0-.1,2.39,4.38,4.38,0,0,0,.71,2.23,6,6,0,0,0,8.21,2.16l1.21-.94a6,6,0,0,0,1.54-2.65Z"/><path class="cls-7" d="M135.74,211.07a61.4,61.4,0,0,0,3.68-6.58c1.36-2.82.87-6.61-2.16-8.2-2.68-1.42-6.75-.87-8.21,2.15a60.23,60.23,0,0,1-3.67,6.57,6.05,6.05,0,0,0,2.15,8.21,6.14,6.14,0,0,0,8.21-2.15Z"/><path class="cls-7" d="M135.69,169.56l-2.34-2.93a6,6,0,0,0-4.24-1.76,6.1,6.1,0,0,0-4.25,1.76,6,6,0,0,0-1.75,4.24l.21,1.59a6,6,0,0,0,1.54,2.65l2.34,2.94a6,6,0,0,0,4.25,1.76,6.12,6.12,0,0,0,4.24-1.76,6,6,0,0,0,1.76-4.24l-.22-1.6a6,6,0,0,0-1.54-2.65Z"/><path class="cls-7" d="M77.26,183.76c-.08.12-.16.23-.25.34l.94-1.22a11,11,0,0,1-1.77,1.77l1.21-.94a11.22,11.22,0,0,1-1.22.81,6,6,0,0,0,6.06,10.36,17.37,17.37,0,0,0,5.39-5.06,6.07,6.07,0,0,0,.61-4.62,6.14,6.14,0,0,0-2.76-3.59,6,6,0,0,0-4.62-.6l-1.44.6a6,6,0,0,0-2.15,2.15Z"/><path class="cls-7" d="M67.86,193.06a7.41,7.41,0,0,1-1,.41c-.71.27-1.42.54-2.14.78-1.34.46-2.7.86-4.07,1.22a6.06,6.06,0,0,0-4.19,7.38A6.12,6.12,0,0,0,63.86,207a66.16,66.16,0,0,0,10-3.62c2.88-1.28,3.78-5.7,2.16-8.21-1.92-3-5.13-3.52-8.21-2.15Z"/><path class="cls-8" d="M82.12,248.69c7.73,0,7.74-12,0-12s-7.73,12,0,12Z"/><path class="cls-8" d="M92.62,204.9c7.72,0,7.73-12,0-12s-7.74,12,0,12Z"/><path class="cls-8" d="M137.56,183.17l-.47-.49a6,6,0,0,0-8.48,0,6,6,0,0,0-1.76,4.24,6.36,6.36,0,0,0,1.76,4.24l.46.5a6.19,6.19,0,0,0,4.25,1.75,6,6,0,0,0,6-6,6.42,6.42,0,0,0-1.76-4.24Z"/><path class="cls-8" d="M97.91,218.57l-.3.58a6.36,6.36,0,0,0-.61,4.62,6.17,6.17,0,0,0,2.76,3.59A6,6,0,0,0,108,225.2l.3-.57a6.31,6.31,0,0,0,.6-4.62,6,6,0,0,0-7.38-4.19,6.07,6.07,0,0,0-3.58,2.75Z"/><path class="cls-8" d="M73,218.51a14.94,14.94,0,0,0-6.2-1.71A6,6,0,0,0,62.55,227a6.58,6.58,0,0,0,4.24,1.76c.22,0,.44,0,.66.06l-1.59-.21a8,8,0,0,1,1.91.54l-1.43-.61.59.29a6.33,6.33,0,0,0,4.63.61,6.12,6.12,0,0,0,3.58-2.76A6,6,0,0,0,73,218.51Z"/><path class="cls-8" d="M74.57,140.44a6.88,6.88,0,0,1,.91-.52l-1.43.61a6,6,0,0,1,1.25-.36l-1.6.21a5.82,5.82,0,0,1,1.56,0l-1.6-.21a3.82,3.82,0,0,1,.51.11c3,.74,6.65-1,7.38-4.19a6.08,6.08,0,0,0-4.19-7.38,11.09,11.09,0,0,0-8.84,1.37,6.33,6.33,0,0,0-2.76,3.58,6.14,6.14,0,0,0,.61,4.63c1.66,2.57,5.43,4,8.2,2.15Z"/><path class="cls-8" d="M81.54,175.56,78.46,181c-1.55,2.73-.74,6.69,2.16,8.21a6.08,6.08,0,0,0,8.2-2.15l3.08-5.43c1.55-2.73.74-6.68-2.15-8.21a6.11,6.11,0,0,0-8.21,2.15Z"/><path class="cls-8" d="M59.53,178.74a18.75,18.75,0,0,0-9.11,1.83,6,6,0,0,0-2.76,3.59,6.15,6.15,0,0,0,.61,4.62,6,6,0,0,0,3.58,2.76,7,7,0,0,0,4.63-.6c-1.46.63-.25.13.12,0s.53-.15.8-.21c.54-.1.55-.11,0,0s-.52.07,0,0q.31,0,.63,0a14.15,14.15,0,0,1,1.45.05c3.14.26,6.14-2.94,6-6a6.16,6.16,0,0,0-6-6Z"/><path class="cls-8" d="M126.52,209.9a56.88,56.88,0,0,0-11-17.54c-5.25-5.68-13.72,2.82-8.48,8.49a40.62,40.62,0,0,1,7.9,12.24c1.22,3,4,5.12,7.38,4.19,2.85-.78,5.42-4.36,4.2-7.38Z"/><path class="cls-8" d="M55.13,157.65c.84-.45,1.7-.85,2.57-1.22l-1.43.6c.58-.24,1.17-.47,1.77-.68a6.41,6.41,0,0,0,3.59-2.75,6.14,6.14,0,0,0,.6-4.63c-.94-2.91-4.21-5.3-7.38-4.19a42.82,42.82,0,0,0-5.77,2.51,6.05,6.05,0,0,0-2.16,8.21,6.14,6.14,0,0,0,8.21,2.15Z"/></g><g id="Calque_27" data-name="Calque 27"><path d="M163.62,412.75C163,449.18,168.34,529,228.54,529c59.12,0,71.42-72.09,73.91-107Z"/><polygon class="cls-11" points="302.67 404 302.04 421.5 163.62 412.75 164.61 395.57 302.67 404"/></g><path class="cls-12" d="M1.88,61.34S102,1.25,255,1.5c0,0,66.5,3.17,137.17,29.5S529.54,93.34,529.54,93.34s27,15.16,23.5,23.16S537.21,146,537.21,146,525.67,180.75,515,181.75a109.13,109.13,0,0,1-19.75,0S405.79,121.5,282,105.25,84,124.5,84,124.5L52.88,139.84l-16.17,10.5-5-2s-16.17-21.5-22.17-39.17S.54,64.34,1.88,61.34Z"/></g><g id="Calque_22" data-name="Calque 22"><path class="cls-13" d="M221.8,816.36a7.38,7.38,0,0,0,7-.07c6-3.35,18.44-12.39,18.82-29.66.5-22.75-10-32.25-4.75-45.75s27.5-37.25,30.5-51.63-6.75-18.62-3.13-31.5,97.92-208.41,97.92-208.41,21.33-36.84,22-44.46,13.12-27.63,13.12-27.63,15.42-17.75,23.25-39.75S495.88,182,495.88,182s17.66,4.25,26.16-5.25,12-25.5,17.25-35.5S555,119,552.54,111,418,22.5,284.54,4.5,7,55,2.54,61.5s7,47,7,47S26,148,34.29,149.75s9,46.5,11.5,50,4,2.5,5.5,9S79.54,322.67,84.88,346s37.33,156.67,37.33,156.67l40.67,143S193.71,729.5,195.21,739s3,26.34,5.67,32,8.33,13.34,9.5,18C211.44,793.24,210.4,810.32,221.8,816.36Z"/><path class="cls-13" d="M37.17,150.61S107,91,252,102.5,495.88,182,495.88,182"/><ellipse cx="319.54" cy="274.75" rx="52.25" ry="17.37" transform="translate(-33.62 504.69) rotate(-73.76)"/><ellipse class="cls-11" cx="320.79" cy="259" rx="13.98" ry="4.65" transform="translate(-17.6 494.55) rotate(-73.76)"/><path class="cls-13" d="M164.54,395,303,403.5s3.5,125.5-74.5,125.5S164.54,395,164.54,395Z"/><line class="cls-13" x1="164.54" y1="413.34" x2="303.04" y2="421.84"/><ellipse cx="166.54" cy="267.25" rx="17.37" ry="52.25"/><ellipse class="cls-11" cx="162.29" cy="245" rx="4.75" ry="14.29"/><path d="M334,186.25s13-9,21.75-4.75,18.75,34.5,12,37-8.41-21.83-19-19.75C333.54,201.75,326.54,191.5,334,186.25Z"/><path d="M138.88,194.67s15.33-33.33,34.66-27,23.67,25,14,23-14.33-7.33-18.66-6.67S139.21,202.67,138.88,194.67Z"/></g></g></g></svg>