<svg xmlns="http://www.w3.org/2000/svg" xmlns:xlink="http://www.w3.org/1999/xlink" viewBox="0 0 655.62 679.86"><defs><style>.cls-1,.cls-18,.cls-19,.cls-21{fill:#fff;}.cls-2{fill:#49301e;}.cls-3{fill:#0f0303;}.cls-4{fill:#541102;}.cls-5{fill:#895538;}.cls-6{fill:#006aba;}.cls-7{fill:#ffab03;}.cls-8{fill:#00629e;}.cls-9{fill:#004263;}.cls-10{fill:#005070;}.cls-11{fill:url(#Dégradé_sans_nom_16);}.cls-12{fill:url(#Dégradé_sans_nom_16-2);}.cls-13{fill:#ffd188;}.cls-14{fill:url(#Dégradé_sans_nom_16-3);}.cls-15{fill:#f9f9f9;}.cls-16{opacity:0.35;}.cls-17{opacity:0.5;}.cls-18{opacity:0.2;}.cls-19,.cls-22{opacity:0.25;}.cls-20{fill:#593a26;}.cls-21{opacity:0.11;}.cls-23{opacity:0.6;fill:url(#Dégradé_sans_nom_39);}.cls-24,.cls-25{fill:none;stroke:#000;stroke-miterlimit:10;}.cls-24{stroke-width:3px;}.cls-25{stroke-width:2px;}</style><linearGradient id="Dégradé_sans_nom_16" x1="535.55" y1="571.32" x2="572.63" y2="534.24" gradientUnits="userSpaceOnUse"><stop offset="0" stop-color="#ffab03"/><stop offset="0.25" stop-color="#bc7a04"/><stop offset="0.5" stop-color="#ffc661"/><stop offset="0.86" stop-color="#bc7a04"/><stop offset="1" stop-color="#ffab03"/></linearGradient><linearGradient id="Dégradé_sans_nom_16-2" x1="101.29" y1="610.57" x2="134.71" y2="577.16" xlink:href="#Dégradé_sans_nom_16"/><linearGradient id="Dégradé_sans_nom_16-3" x1="233.36" y1="532.42" x2="257.53" y2="532.42" xlink:href="#Dégradé_sans_nom_16"/><linearGradient id="Dégradé_sans_nom_39" x1="227.2" y1="115.46" x2="287.86" y2="115.46" gradientUnits="userSpaceOnUse"><stop offset="0" stop-color="#fff" stop-opacity="0.25"/><stop offset="1" stop-color="#2d2d2d"/></linearGradient></defs><title>Fichier 10</title><g id="Calque_2" data-name="Calque 2"><g id="Singe"><g id="coul"><path class="cls-1" d="M195.7,44S234.36,20.46,297.86,18,395,34.12,395,34.12l64.83,61,22.67,90.34-11.67,54.33L405.2,258.12l-152.67-15-89,33.34s-21.67-83.67-22-85,12.33-80.34,12.33-80.34l24.67-43Z"/><path class="cls-2" d="M103.86,349.79,266.45,226.33,510.2,263.12l7.87,26.71L520,302.58s24.12,14.5,26.5,45.13l-1.7,7.5-12.3,32.37-14,30.63S531.2,434.58,529.2,454s-17.75,40.25-17.75,40.25l3.75,12.62s18.62,29,0,58.63-38.75,63.12-89.5,93-164.25,17.12-164.25,17.12-38.13-15.87-69.13-44.25-42.12-47-42.12-47-9.38-9.12-8.63-33.12L143.7,535l3.16-9.34s-16.54-18.16-18.16-33.91A64.53,64.53,0,0,1,131.82,464s-24.25-24.25-25.12-33.38l1.5-7.75s-4.25-3.75-6-26.87S103.86,349.79,103.86,349.79Z"/><path class="cls-3" d="M455.53,578.46s17.83-7.5,24.5-30,5.54-46.63,5.54-46.63l-2.87-25.25L468.32,476s-10.87,17.75-16.5,20.37-49.5,11.13-49.5,11.13l-17.87,3.37-7.25.63-59.5,8.12-60.38,1.25-18.12-.37-3.25-.38-3,.5-28.88-1.12-9.25-4.88-11.5-10.25-13.62,4.25s10.25,56.63,29.62,73.88,22.13,17.12,22.13,17.12Z"/><path class="cls-4" d="M217,597.79S253.7,557,322.7,552.12,438.36,570,438.36,570l16.92,9.41S411,606,332.86,610.62s-99.33-6-99.33-6Z"/><path class="cls-5" d="M146.86,525.62s-16.41-17.75-18.16-33.91S132.36,464,132.36,464s-23-20.25-25.16-32.13l-.25-5,1.25-4s-2.88-2.25-4.63-11.25a61.28,61.28,0,0,1-1.25-15.12S47.82,376,24.7,395.21,1.07,459.83,1.07,459.83s1.75,47.63,20.25,74.88a192.36,192.36,0,0,0,40.88,43.5L92,592l6.67,1.25,21.16-2.84,15.42-9.25,9-8.25S137.53,546.71,146.86,525.62Z"/><path class="cls-5" d="M544.75,355.21s52-27.78,77.38-11.63,31.12,61.59,31.12,61.59,4.33,47.46-10.55,76.84a192.3,192.3,0,0,1-35,48.35L579.86,547.8l-6.45,2.09-21.35-.11-16.47-7.21L524,535.12a135.07,135.07,0,0,0-13.08-40s19.15-27.74,18.83-44S519,417.79,519,417.79s14.41-26.25,17.16-38.83Z"/><path class="cls-6" d="M257.53,147.12c-16.75,0-30.33-14.17-30.33-31.66s13.58-31.67,30.33-31.67S287.86,98,287.86,115.46s-13.58,31.66-30.33,31.66"/><path class="cls-7" d="M289.45,166.33s41.75-17.5,48.37-43.62-12.62-48-12.62-48l5.37-7.13s43,20.88,53.13,49.63-12.13,47.25-12.13,47.25-23.5,26.87-78.25,15.25Z"/><polygon points="325.2 74.71 330.45 66.96 313.82 58.21 311.07 60.71 312.95 69.46 325.2 74.71"/><polygon points="292.32 179.46 289.45 166.33 273.57 170.21 277.32 177.46 292.32 179.46"/><path d="M338.7,19.21s-1.13-7.13-4.13-10S305.32.71,288,1.71,243.82,16,243.82,16l-3.25,10.87s28-7.75,52-9.25A257.49,257.49,0,0,1,338.7,19.21Z"/><path class="cls-8" d="M180.45,257.46s-13-72.25-10-117.25S182.7,70.83,182.7,70.83L195,44.71s-53.75,22.5-84.75,60-34.84,64.91-34.84,64.91l2.5,42.84L94.53,317S136.7,280,180.45,257.46Z"/><path class="cls-8" d="M452.2,192.79,449,157s-9-59.34-24.83-86.67-30.5-37.17-30.5-37.17l22.66,6.17,35.84,17c36.5,21.33,50.33,34.67,56.66,42s7.5,20.83,11.84,48.17-.88,107.37-.88,107.37c-11-6.37-65.5-23.12-65.5-23.12Z"/><path class="cls-9" d="M71.86,341.46s43.84-54.75,128.59-94S367.2,218,367.2,218s60.25,1,135.5,29.5,54.91,29,54.91,29-50.41-20.34-134.25-33.67-158,3.67-158,3.67-64,14.5-115.83,44.5S74.2,340.79,74.2,340.79Z"/><path class="cls-10" d="M59.28,353.87S63,370.79,69.28,369,91,353.71,136.7,332.58s105.75-36.25,105.75-36.25A663.62,663.62,0,0,1,355,280.21c62.5-3.5,132,5.25,132,5.25l49.62,7.62s24.63,7.75,28.25,5,7.63-16.62,7.63-16.62a830,830,0,0,0-97.25-29.25C419.32,239,374.53,237.12,334.7,238.29S268.53,246,268.53,246s-52.67,9.83-113.17,41.33S59.28,353.87,59.28,353.87Z"/><path class="cls-11" d="M541,544s-3.13,14.25,6,14.25,5.62-14.38,5.62-14.38-5.5-16.87,8.25-16.75,11.75,18.75,11.75,18.75,3,34.25-19.5,33.88-21.5-24.38-21.5-24.38l1.13-14.5Z"/><path class="cls-12" d="M131.32,583.83s3.48,13.88-5.62,14.56S118,584.93,118,584.93s4.22-17.24-9.48-16.08-10.32,19.57-10.32,19.57-.42,34.46,22,32.32c26.61-2.53,19.62-25.91,19.62-25.91l-2.51-15.06Z"/><path d="M300.82,427.46l-10.25-8.63-104.5-4.5-41.62,29L189,461.58s64.25-6.87,82.12-14.87A117,117,0,0,0,300.82,427.46Z"/><path class="cls-13" d="M295,611.62,295.7,584s8.16-3,15-2.5,13.5,4.33,13.5,4.33l.16,25.33-16.33.67Z"/><path class="cls-13" d="M377.2,511.46l1,21.83s21.16,4.17,23.83-2.67l-.17-22.83Z"/><path class="cls-14" d="M257.53,520v22.33a19.55,19.55,0,0,1-12,2.5,38.75,38.75,0,0,1-12.17-3V520Z"/><path class="cls-15" d="M348.7,417.71s8.5-48.25,46-77,50.16-23.59,50.16-23.59,39.67-2.83,51.34,29-7,65.34-7,65.34-26,26.16-72.17,24.16S372.7,430.79,348.7,417.71Z"/></g><g id="dégradés"><g id="Calque_32" data-name="Calque 32"><path class="cls-16" d="M236.61,347.54l-42.16-3s49.25-6.29,69.25-2.46S299.7,357,307.86,354s29.67-29,44.17-38.84,49.17-22.5,49.17-22.5L379,304.29s-17.21,7-39.83,34S316.45,377,316.45,377,285.15,356.25,236.61,347.54Z"/><path class="cls-16" d="M102.53,375.79s74.33-61,189.67-83.33,184-7.17,184-7.17-79.5-12.33-177.5,1-161.17,46.5-161.17,46.5L104.2,349.62Z"/><polygon class="cls-17" points="519.51 301.27 517.13 289.96 496.32 287.89 519.51 301.27"/><path class="cls-16" d="M482,424.62s24.17-22.66,18-60c0,0,.08,33.75-9.83,44.25S477,421.79,477,421.79Z"/><polygon class="cls-16" points="141.53 443.37 181.28 463.54 186.36 460.62 141.53 443.37"/><path class="cls-16" d="M310.59,513.93c1.15-4.77,4.69-21.22,4.69-21.22A17.26,17.26,0,0,0,330,500.54c5.92-.08,10.92-7.42,10.92-7.42l6.25,18.67Z"/><path class="cls-16" d="M272.53,469.71s-11.58,14-5.58,17.62,13.75,4.38,13.75,4.38S267.36,489,269,481,272.53,469.71,272.53,469.71Z"/><path class="cls-16" d="M378.36,479.79s10-3.13,9.54-10.29c-.37-6.51-11.2-16.29-11.2-16.29l8.58,16.16-2.42,6.17Z"/><path class="cls-16" d="M501.2,477.71l-9.5-18.59s15.93,21,20.5,21.27c6.06.42,10.5-6.37,10.5-6.37l-12,19.69Z"/><path class="cls-16" d="M157.53,507.79l7.79-15.08s-14,16.25-20,19.75c-4.19,2.44-8.87-.63-8.87-.63l10.37,13.63Z"/></g><path class="cls-16" d="M272.2,641.12s46.66-16.33,124-5.33"/><path class="cls-16" d="M33.53,465.46s11-28.17,19.83-31S75.7,447.12,75.7,447.12s-11,33.34-2.17,46.84,36.17,31.66,36.17,31.66,6.83,14.5,2,17.67-18.34,10-27.84,4-26.73-24-26.73-24A55.75,55.75,0,0,0,64.53,538c5.29,7.62,14.1,17,26.42,18.33,25,2.67,34.91-8.67,34.91-8.67s3.59-7-5.66-15.66a102.91,102.91,0,0,0-20.67-14.5S75.2,503.54,70.86,484,81,431.71,81,431.71s-22-20.34-34.67-11.59S32.45,457,32.45,457Z"/><path class="cls-16" d="M97.32,496.33S85,487,86.82,479.33s12.63-4.62,11.13-14.5-6.75-13-6.5-16,2.5-3.12,2.5-3.12,25.37,28.25,26,41-3.84,14.58-3.84,14.58l-7.66.33Z"/><path class="cls-16" d="M621.77,413.8s-14.69-26.43-23.83-28.05-20.42,15.56-20.42,15.56,15.38,31.55,8.45,46.12-31.58,36.24-31.58,36.24-4.82,15.29.4,17.78,19.51,7.44,28.12.22S607,473,607,473a77.71,77.71,0,0,1-6.5,16.58c-3.65,6.79-11.4,19-23.43,22-24.41,6-37-4.4-37-4.4s-3.23-5.95,4.77-15.78a103.22,103.22,0,0,1,18.53-17.15s22.24-17.06,23.91-37-16.75-49.45-16.75-49.45S589.3,363.63,603,370.6s18.67,34.63,18.67,34.63Z"/><path class="cls-16" d="M562.71,453s11-11,8.12-18.26-13.13-2.88-13-12.87,4.94-13.79,4.29-16.73-2.9-2.76-2.9-2.76S537.9,433.77,539,446.49s5.76,13.93,5.76,13.93l7.64-.7Z"/><path class="cls-16" d="M117.61,588.87s-.33,18.42,9.42,15.92,5.92-21.5,5.92-21.5L131,584s1.42,14.25-5.58,14.67S117.61,588.87,117.61,588.87Z"/><path class="cls-16" d="M554,549.12s2.08,15.34-9.69,15.52c-10.07.16-6.51-21.06-6.51-21.06l1.92.75s-1.42,14.25,5.58,14.67S554,549.12,554,549.12Z"/><path class="cls-18" d="M100.45,596.12s6.41,20.34,17.66,21.42,17.42-3.33,17.42-3.33-8.42,10-22.58,4.75S100.45,596.12,100.45,596.12Z"/><path class="cls-18" d="M540.57,575.14s17.44,5,24.69-6.37,7.12-13.56,7.12-13.56.82,14.68-9,21.06S543.07,577.83,540.57,575.14Z"/><path class="cls-19" d="M319.7,611.46s2.41-18.55-6.84-22.67A32.92,32.92,0,0,0,295.7,586a33.4,33.4,0,0,1,14-4.38c7.5-.37,15.12,3.88,15.12,3.88l-.62,25.62Z"/><path class="cls-18" d="M234.2,542.08s15-.55,15.87-3.12c2.21-6.8,1.5-18.38,1.5-18.38l6.13.13-.5,22.62S239.7,546.46,234.2,542.08Z"/><path class="cls-19" d="M377.86,526.12s12.25.17,13.75-2.08.59-13.42.59-13.42L402.36,508s2.92,23-4.08,24.75-20,.25-20,.25Z"/><path class="cls-20" d="M325.86,358.21s-3.16,13.08-2.91,19.33,2.83,24.25,7.08,25.83,11.75,2.67,13.33.34,17.58-37.39,35.09-54c19.75-18.75,46.62-28.63,46.62-28.63s-29.87,14.25-49.62,39.13-27.38,57.37-27.38,57.37l-26.87-6.37-4.88-35.13Z"/><path class="cls-20" d="M286.36,362.46s20.5,13.66,22.84,16.66,2.16,27.17,2.16,27.17-5.5,6-11,4-99.16-5.33-106-5.58S144.07,442,144.07,442l42.13-27.13,105,4,9.5,8.63,20-16L316,376.58Z"/><path class="cls-20" d="M126.57,458s-14.5-22.25-14-29.75S126,391.33,126,391.33s-21,31.88-18.63,41S126.57,458,126.57,458Z"/><path class="cls-20" d="M529.36,393.79s10.84-28,11-46.17-15.91-40.83-15.91-40.83,16.41,15.25,20.16,29.33-.83,23.34-.83,23.34Z"/><path class="cls-20" d="M129.07,491.89s2.69-19,6-19.06S149,475.89,149,475.89L132.2,465.27l-3.63,18.19Z"/><path class="cls-20" d="M529.2,452.29s-5.59-21.25-9.75-23-9.34,1.75-9.34,1.75l8.25-11.92a37.14,37.14,0,0,1,7.42,13.59c2,7.58,4.17,17.5,4.17,17.5l-.7,1.93Z"/><path class="cls-16" d="M199.22,497.75s-9.44,6.25-9.61,7.54a27.24,27.24,0,0,0,.09,4L184,504.08l8.75-4Z"/><path class="cls-16" d="M449.81,474.34s10.76,2.82,12.05,4.7a6.94,6.94,0,0,1,.79,4.58L468.7,476l-13.63-1Z"/><path class="cls-20" d="M502,587.33s15.62-26.75,17-45.62a93.6,93.6,0,0,0-3.25-32.88s10,19.63,7.62,36.38S502,587.33,502,587.33Z"/><path class="cls-20" d="M192,630.12s-40.71-46.41-46-67.79-2.75-24.62-2.75-24.62-8.12,27.87,7.88,48.87S192,630.12,192,630.12Z"/><path class="cls-20" d="M355,510.33A37.62,37.62,0,0,1,341,493.12l6.25,18.67Z"/><path class="cls-20" d="M310.58,514l-9.13-.87a31.8,31.8,0,0,0,13.62-19.44l-3.94,17Z"/><path class="cls-21" d="M6.2,429.46s13.31-30.67,28-34.67c25.25-6.88,69,13.79,69,13.79l-.75-12.37S57.82,379,28,392.58C28,392.58,12.57,398.08,6.2,429.46Z"/><path class="cls-16" d="M120,576.62c1,3.92.5,8.59,2.08,8.92s6.67-1.17,6.67-1.17l-9.42,6-2.83-20.5A21.19,21.19,0,0,1,120,576.62Z"/><path class="cls-16" d="M551.57,529.14a15,15,0,0,0-1.75,6.44c-.06,3.5.27,8-2.54,8.54a22,22,0,0,1-6.46-.16l11.13,4.5-.19-14Z"/><path class="cls-21" d="M537.2,378.08s25.5-32,58.12-34.37,40.25,12.37,40.25,12.37a40.24,40.24,0,0,0-31.12-17.62c-21.38-1.25-59,16.25-59,16.25Z"/><path class="cls-22" d="M204.2,246s74-42,180.25-35S504.2,112.46,502.7,103.62s-22-29.83-22-29.83,28.83,19.83,32.83,35.67S521.2,154,521.2,154l1.25,42.12L519.2,254s-30.38-16-92.63-28.75-113.12-7-113.12-7l-55.13,9.12Z"/><path class="cls-22" d="M121.86,294.29S103,306.29,99.7,304s-10.17-17.25-10.17-17.25L94.78,317Z"/><path class="cls-21" d="M89,209.21s-6.59-31-1.75-47.5,29.08-49.34,30.75-47.5-19.73,43.44-22.75,49.5C91,172.21,93.11,222.37,89,209.21Z"/><ellipse class="cls-21" cx="132.82" cy="97.39" rx="9.69" ry="0.88" transform="translate(-28.02 132.84) rotate(-48.68)"/><path class="cls-22" d="M263.32,226.46s73.13-6.25,91.88-.75A188.24,188.24,0,0,1,389,239.46s30.75,2.33,82.08,11.66A469.88,469.88,0,0,1,562.86,278s-28.33-19.17-61.33-31.67-75-21.08-75-21.08-48-8.09-82.21-8.09S263.32,226.46,263.32,226.46Z"/><path class="cls-22" d="M99.57,322.58s7.38-16,12.5-21.12L92.82,319,72.2,338.58l.12,3.5Z"/><path class="cls-22" d="M345.32,83.46S384.45,117,369.07,141s-59,31-59,31,46.38-7.13,56.38-39.25C366.45,132.71,370,108.71,345.32,83.46Z"/><path class="cls-23" d="M257.53,147.12c-16.75,0-30.33-14.17-30.33-31.66s13.58-31.67,30.33-31.67S287.86,98,287.86,115.46s-13.58,31.66-30.33,31.66"/></g><g id="cont"><rect class="cls-1" x="213.63" y="414.51" width="11.81" height="37.22" transform="translate(370.56 -28.37) rotate(45)"/><rect class="cls-1" x="213.63" y="414.51" width="11.81" height="37.22" transform="translate(681.02 584.16) rotate(135)"/><path class="cls-24" d="M348.2,418.46s6.74-56.88,68.17-92.9a62,62,0,0,1,52.2-5.18c14.63,5.26,28.77,16.7,30.63,41.08,4,52.5-22.5,64.5-52,70.5S375.7,438,348.2,418.46Z"/><path class="cls-24" d="M348.2,418.46l-27.5-7L316.2,377s17.5-49.5,63.5-73"/><path class="cls-24" d="M476.2,421.33s16.25,11.88,29,11.38,41.5-77.75,41.5-84.5-10.34-56.34-72-64"/><path class="cls-24" d="M320.7,411.46l-19.5,16-10.67-8.67L186.2,414.46l-42.67,28.66,45.33,18.34s69.34-6.67,86.34-16.67,26-17.33,26-17.33"/><path class="cls-24" d="M187.2,460.79s-28.67,15.67-38.34,14.33-38.33-30.33-42-42.33S136.2,365,175.2,350"/><path class="cls-24" d="M316.2,377s-40.5-24.5-80-29.5"/><rect x="414.2" y="351.79" width="22" height="69.33"/><rect x="414.2" y="351.79" width="22" height="69.33" transform="translate(811.65 -38.74) rotate(90)"/><path class="cls-24" d="M169.45,507.71l12.75-3.5L195.7,515a20.43,20.43,0,0,0,12,4.47c19.84.75,79.15,2.47,123.48-1.36,43.94-3.79,97.37-16,115.75-20.39a19.2,19.2,0,0,0,10.69-6.88l11.22-14.39,13.67.33s15.33,71.67-21.33,98.67-122.67,35-122.67,35-95.33,10-129-17.67S169.45,507.71,169.45,507.71Z"/><path class="cls-24" d="M233.2,520v22.25s15.5,6,24.25.5V521"/><path class="cls-24" d="M377.86,512.12v21.17s19.67,4.5,24.25-3v-22.5"/><path class="cls-24" d="M295.36,612.62V584.79s15.5-7,28.84.83v25.84"/><path class="cls-24" d="M156.7,507s-31.5,43-4.5,81.25,87.25,84.5,116.25,88.25c0,0,110.25,11.5,163.75-22S520.7,565,523.7,544s-21.5-67-21.5-67"/><path d="M272.2,641.12a117.8,117.8,0,0,1,15-4.56l3.82-.89,3.84-.78c2.56-.56,5.15-.93,7.73-1.37s5.18-.75,7.77-1.08,5.2-.59,7.81-.83,5.21-.47,7.83-.58,5.22-.3,7.84-.39c5.23,0,10.46-.2,15.69,0,2.61.1,5.23.12,7.84.29s5.21.35,7.82.56c1.3.1,2.6.18,3.91.3l3.89.44,7.78.93c5.17.75,10.31,1.66,15.44,2.61-5.22-.29-10.4-.8-15.59-1.14l-7.79-.44-3.89-.24c-1.29-.06-2.59-.08-3.89-.13-2.6-.07-5.19-.15-7.78-.26s-5.19-.05-7.79-.08c-5.18-.13-10.37,0-15.55.14s-10.37.36-15.53.79c-2.59.17-5.18.33-7.76.62s-5.16.45-7.73.79-5.16.59-7.72,1l-3.86.54-3.84.64C282.36,638.85,277.25,639.84,272.2,641.12Z"/><polygon points="181.66 502.8 199.36 497.71 182.73 505.61 181.66 502.8"/><polygon points="468.7 477.95 449.7 474.33 469.03 474.96 468.7 477.95"/><path class="cls-24" d="M216.86,597.46s39.28-46,121.34-46,117,27.66,117,27.66"/><path class="cls-24" d="M572.7,282l-5.15,13.6a5.79,5.79,0,0,1-6.84,3.57C536.62,293,428.35,268.35,300.7,286c-123.34,17-206.52,67.3-228.62,82a5.79,5.79,0,0,1-8.58-2.68l-4.3-10.77s88.47-115,237.5-134C453.7,200.46,572.7,282,572.7,282Z"/><path class="cls-24" d="M59.2,354.46S155.7,262,292.7,242s280,40,280,40"/><path class="cls-24" d="M94.2,317.71S71.7,197,75.7,167.46s50-107,166-141,238.5,38.5,266.5,71c0,0,21,24,11.5,155.5"/><path class="cls-24" d="M240.53,26.79s.67-9,4-11S263.36,4.62,286.7,2s47.16,7.16,49.16,8.5S339,19.71,339,19.71"/><path class="cls-24" d="M180.2,256.79s-30.5-141.33,16-213.33"/><path class="cls-24" d="M453.7,231.46s4.14-160.25-64.63-200.75"/><ellipse class="cls-25" cx="257.53" cy="115.46" rx="30.33" ry="31.67"/><path class="cls-24" d="M288.86,166.79s82.34-29.33,36.34-91.33l5.33-8s76.67,39,51,84-88.33,29-88.33,29Z"/><path d="M341.7,80a94.78,94.78,0,0,1,12.44,12.81,77.94,77.94,0,0,1,9.68,15.16,45.78,45.78,0,0,1,4.69,17.58,32.37,32.37,0,0,1-4.42,17.83,44.37,44.37,0,0,1-12.64,13.2A78.51,78.51,0,0,1,335.51,165,151.91,151.91,0,0,1,301,174c11.49-3,22.91-6.28,33.64-11.08,2.69-1.2,5.29-2.54,7.86-3.93a73.84,73.84,0,0,0,7.34-4.71,42,42,0,0,0,11.71-12.42,29.74,29.74,0,0,0,4.18-16.22,45.44,45.44,0,0,0-4-16.71A85.47,85.47,0,0,0,353,93.65,121.58,121.58,0,0,0,341.7,80Z"/><polyline class="cls-24" points="288.86 166.79 272.53 170.62 277.2 177.46 293.2 180.46"/><polyline class="cls-24" points="330.53 67.46 313.57 57.96 310.36 61.79 312.86 69.21 325.2 75.46"/><path class="cls-24" d="M103.86,349.79s-5.41,65.67,4.34,73.42"/><path class="cls-24" d="M146.45,525.27s-15.59-18.48-17.59-30.48S131.63,464,131.63,464"/><path class="cls-24" d="M511.2,494.46s20-28,18.33-46a61.81,61.81,0,0,0-10.67-29.67"/><line class="cls-24" x1="519.95" y1="301.46" x2="517.2" y2="289.71"/><path class="cls-24" d="M118.76,591.25c20-11.34,26.1-18.72,26.1-18.72"/><path class="cls-24" d="M102,396.21s-69.06-26.38-88,10.88-16.74,88.57,9.18,130.15c19.37,31.08,52,52.2,75.61,56.16"/><path class="cls-24" d="M32.89,465.6S30,421.31,52.33,417.71s68.45,56.89,68.05,73.09c-.54,21.87-23.76,5.13-23.76,5.13"/><path class="cls-24" d="M81.5,431.75s-12.25,31-11.53,51.49,45.37,43.56,51.85,50.4,7.56,15.12-2.16,18.37-33.12,14.76-54.73-15.13"/><path class="cls-24" d="M130.61,583.87s4.35,13-5.73,15.3-4-23.22-8.82-28.26c-2.49-2.58-6.86-2.29-10.54-1.38A9.14,9.14,0,0,0,98.63,578c-.7,13.5.18,44.41,23,43,29.16-1.8,15.84-41.94,15.84-41.94"/><path class="cls-24" d="M552.85,549.93c-21.24-8.75-29.3-15.1-29.3-15.1"/><path class="cls-24" d="M545.17,354.32s65.22-34.8,88.63-.19,27.67,85.79,7.15,130.28c-15.34,33.25-45.09,58.29-68,65.16"/><path class="cls-24" d="M622.35,414.54s-2.67-44.3-25.27-45.08-60.8,65-58.38,81c3.26,21.63,24.21,2.12,24.21,2.12"/><path class="cls-24" d="M569.9,387s16,29.19,17.86,49.64-39.57,48.89-45.14,56.49-5.62,15.95,4.43,17.95,34.71,10.51,52.41-21.84"/><path class="cls-24" d="M540.82,545.08s-3.35,12.41,6.94,13.48,1-23.54,5.23-29.15c2.14-2.87,6.52-3.12,10.28-2.68a9.13,9.13,0,0,1,7.89,7.5c2.38,13.3,5.37,44.08-17.46,45.53-29.16,1.86-21-39.63-21-39.63"/><path d="M282.27,457.66c-2,3.4-4,6.7-6,10-1,1.67-2,3.3-2.85,5a43.45,43.45,0,0,0-2.43,5.07,17.27,17.27,0,0,0-.84,2.55,6.64,6.64,0,0,0-.21,2.32,4.25,4.25,0,0,0,.31,1.06,5.5,5.5,0,0,0,.55,1.08c.2.35.51.66.75,1s.6.63.91.94a20.46,20.46,0,0,0,4.64,3,43.89,43.89,0,0,0,5.35,2.23,23.21,23.21,0,0,1-5.88-.85,18.09,18.09,0,0,1-5.57-2.56,9.47,9.47,0,0,1-3.86-5.41,8.86,8.86,0,0,1,.12-3.47,18.88,18.88,0,0,1,.95-3,47.06,47.06,0,0,1,6.12-10.26A61.27,61.27,0,0,1,282.27,457.66Z"/><path d="M369.54,445.33a63.4,63.4,0,0,1,7.71,7.66,60.27,60.27,0,0,1,6.46,8.83A25.4,25.4,0,0,1,386.1,467a7.54,7.54,0,0,1,.38,3.24,6.55,6.55,0,0,1-.5,1.58c-.19.45-.43.88-.66,1.31a20.06,20.06,0,0,1-8.09,7.52,31.81,31.81,0,0,0,6-8.55c.14-.39.3-.77.41-1.16a4.66,4.66,0,0,0,.22-1,5.91,5.91,0,0,0-.45-2,30.51,30.51,0,0,0-2.28-4.53c-1.76-3-3.76-6-5.72-8.94S371.41,448.45,369.54,445.33Z"/><path d="M299.12,463.38a5.51,5.51,0,0,0-4.37,2c-3.74,4.44-12.95,15.83-9.86,17,3.85,1.39,12.76,1.92,14.86-1.58s4.72-16.6,1.57-17.13A17.74,17.74,0,0,0,299.12,463.38Z"/><path d="M348.83,463.71a3.42,3.42,0,0,1,1-3.81c1.31-1.08,3.15-2.34,4.66-2.34h.32a7.22,7.22,0,0,1,4.23,1.37c4.58,3.32,15.61,11.69,13.8,14.19-2.27,3.15-10.84,8.39-14.33,7.17C355.74,479.31,350.62,468.56,348.83,463.71Z"/><path d="M310.57,514a38.89,38.89,0,0,1,.43-5.52q.38-2.71,1-5.39t1.4-5.29a38.66,38.66,0,0,1,1.95-5.18,38.63,38.63,0,0,1-.42,5.51c-.26,1.82-.58,3.62-1,5.4s-.86,3.54-1.4,5.29A39.18,39.18,0,0,1,310.57,514Z"/><path d="M340.53,491.46a38.09,38.09,0,0,1,2.41,4.88c.69,1.66,1.32,3.35,1.87,5.06s1,3.44,1.46,5.19a36.51,36.51,0,0,1,.93,5.37,35.19,35.19,0,0,1-2.41-4.89q-1.05-2.49-1.88-5.05c-.55-1.71-1-3.44-1.45-5.2A36.61,36.61,0,0,1,340.53,491.46Z"/></g></g></g></svg>