<svg xmlns="http://www.w3.org/2000/svg" xmlns:xlink="http://www.w3.org/1999/xlink" viewBox="0 0 651.76 717.06"><defs><style>.cls-1{fill:#0486bf;}.cls-2{fill:#f7f7f7;}.cls-3{fill:#ffffc7;}.cls-4{fill:url(#Dégradé_sans_nom_109);}.cls-5{fill:url(#Dégradé_sans_nom_109-2);}.cls-6{fill:url(#Dégradé_sans_nom_109-3);}.cls-7{fill:url(#Dégradé_sans_nom_109-4);}.cls-8{fill:#fff;opacity:0.15;}.cls-9{opacity:0.35;}.cls-10,.cls-11{fill:none;stroke:#000;stroke-miterlimit:10;}.cls-10{stroke-width:3px;}.cls-11{stroke-width:1.5px;}</style><linearGradient id="Dégradé_sans_nom_109" x1="253.77" y1="85.39" x2="354.44" y2="85.39" gradientUnits="userSpaceOnUse"><stop offset="0" stop-color="#ffd400"/><stop offset="0.22" stop-color="#c6a000"/><stop offset="0.49" stop-color="#665200"/><stop offset="0.83" stop-color="#443700"/></linearGradient><linearGradient id="Dégradé_sans_nom_109-2" x1="135.65" y1="222.1" x2="646.44" y2="222.1" xlink:href="#Dégradé_sans_nom_109"/><linearGradient id="Dégradé_sans_nom_109-3" x1="136.65" y1="466.75" x2="267.85" y2="466.75" xlink:href="#Dégradé_sans_nom_109"/><linearGradient id="Dégradé_sans_nom_109-4" x1="354.31" y1="467.5" x2="486.19" y2="467.5" xlink:href="#Dégradé_sans_nom_109"/></defs><title>Fichier 3</title><g id="Calque_2" data-name="Calque 2"><g id="Tete_gobelin_-_copie" data-name="Tete gobelin - copie"><g id="couleurs_-_copie" data-name="couleurs - copie"><path class="cls-1" d="M162.77,326.89c-46,32.79-53.32,80.48-54.46,92.93a1.5,1.5,0,0,1-2.49,1c-32.14-28.56-95.24-55.28-103-56.58-8-1.34,23.33,57.33,50,100.66s36.67,81.34,60.67,114c23.16,31.53,56.87,5.93,59.2,4.1,0,0,.08,0,.06,0-.86,2-9.93,22.84-9.93,42.52,0,18.45,80.26,75.7,97.45,87.76a12.36,12.36,0,0,0,7.11,2.24h27.54a12.39,12.39,0,0,0,11.23-7.17l5.34-11.5,5.73,11.5a12.39,12.39,0,0,0,11.23,7.17h27.54a12.36,12.36,0,0,0,7.11-2.24c17.19-12.06,97.45-69.31,97.45-87.76,0-19.68-9.07-40.56-9.93-42.52,0,0,0-.07.06,0,2.33,1.83,36,27.43,59.2-4.1,24-32.66,34-70.66,60.67-114s58-102,50-100.66c-7.81,1.3-70.91,28-103,56.58a1.5,1.5,0,0,1-2.49-1c-1.1-12.1-8-57.43-50.6-90.08"/><g id="Calque_6_-_copie" data-name="Calque 6 - copie"><path class="cls-2" d="M167.94,461.89s-3.5,65.67,15.16,84.84,36.84,10.33,36.84,10.33l9.16-4.83,20-23.34a184.09,184.09,0,0,1-36.16-25.33C195.27,487.56,167.94,461.89,167.94,461.89Z"/><path class="cls-2" d="M455.51,461.56s3.5,65.67-15.17,84.83-36.83,10.34-36.83,10.34l-9.17-4.84-20-23.33a184.31,184.31,0,0,0,36.17-25.33C428.18,487.23,455.51,461.56,455.51,461.56Z"/><path class="cls-3" d="M378.27,654.06H242.1s-11.33-65.83,68.17-71.17C310.27,582.89,385.1,582.56,378.27,654.06Z"/></g></g><g id="degrades_-_copie" data-name="degrades - copie"><path class="cls-4" d="M333.44,69.89c2.66-24,21-66.66,21-66.66s-31.34,16-60,40.33-38.67,63.67-38.67,63.67l-2,38,21.33,22.33,38.67-26.67Z"/><path class="cls-5" d="M460.77,131.23c1.67-19.67,27-45.34,27-45.34-17.67,5-47.33,22.67-47.33,22.67s5.66-15.67,19.66-39S527.77,9.89,527.77,9.89s-79,9.67-115.33,21.67-89,68-89,68c6.33-10.33,47.75-59,47.75-59S345.1,57.89,322.77,80.23s-49.67,72-49.67,72c-12.66-10-39.33-132.67-39.33-132.67s-22,52-36,95.33a273.47,273.47,0,0,0-12.67,83.34,57.36,57.36,0,0,1-14.33-19.67c-5.67-12.67-27.67-91-27.67-91s-13.33,155.67-4.33,182,33.67,53.67,33.67,53.67l-20.34-9s39.34,52.33,69,72,89.84,48.08,89.84,48.08l113-73.75c45-34.5,56-42.5,56-42.5l-25.5,10.5s40-30.5,64-35.5,128,1,128,1-56.5-38.5-87-51-48.5-15.5-48.5-15.5,28.5-6.5,54-5c0,0-36.5-14-60.5-11.5,0,0,24.5-42.5,43.5-50s92.5-38.5,92.5-38.5-67-13-107.5-8A359.34,359.34,0,0,0,460.77,131.23Z"/><path class="cls-6" d="M267.85,527.39s-44-28.58-64.2-58.83-19-41.13-30.88-53.75-16.37-14-16.37-14l-2.63-.25-17.12,49.75s21.37,1.37,40.87,18.5,45.06,49.87,71,59l15.78,5.12Z"/><path class="cls-7" d="M354.31,526.81s44.63-27.25,64.88-57.5,19-41.13,30.87-53.75,16.38-14,16.38-14l2.62-.25,17.13,49.75s-21.38,1.37-40.88,18.5-45.06,49.87-71,59l-15.78,5.12Z"/></g><g id="ombres_-_copie" data-name="ombres - copie"><path class="cls-8" d="M304.88,420.68s-34.94-77.12-46.44-113.62-32-176-32-176-2.5,138-1.5,154,6.5,39.5,6.5,39.5-13.5-6-30.5-37.5-44-103-44-103,16.75,116,25,130.5,40.25,55.75,40.25,55.75l-41.5-22.25s26.08,29.67,44.25,41.33,72.83,32.84,72.83,32.84l-11.83-8.67Z"/><path class="cls-9" d="M234.69,23.06s2.5,75.75,10.5,96.5,27.75,33.5,27.75,33.5-7.34-9-15.67-39S234.69,23.06,234.69,23.06Z"/><path class="cls-9" d="M273.94,150.81s21-110,40.75-123S348.44,6.43,348.44,6.43l5.75-3.25-12,32.38-7.25,24.75-1.5,9.25s-24.75,24.62-34.38,39.87S273.94,150.81,273.94,150.81Z"/><path class="cls-8" d="M287.44,407.31l-53-23.25,19.5,1.5s-22.75-14.5-37.25-35.5-22.25-49.75-22.25-49.75,17.5,34.5,29.75,41,25,11.5,32.75,17.75,10.5,12.25,10.5,12.25l-6-23.75Z"/><path class="cls-9" d="M357.19,403.81s45.25-42.25,60.91-59.58,33.67-49.34,53-62,43.34-16,43.34-16-13-4-30.34-.67l-17.33,3.33,17.33-3.33s68-29.33,111.67-3,50.67,31.67,50.67,31.67-96-6-127.34-1.34l-17.66,6.17L474.1,314.23l-14.16,10.66,18.66-6.5-17,12.84-37.5,29.16Z"/><path class="cls-9" d="M502.94,211.73s17.25-41.92,29.25-55.42,65-35.5,65-35.5l-42-7.25s26-2,85,8.25l-19.75,9.62-77.63,32.25-11.62,9Z"/><path class="cls-8" d="M134.94,226.81s8.25-94.5,16.75-109.75l-8-27.25s-2.5,19.25-5.25,63S134.94,226.81,134.94,226.81Z"/><path class="cls-8" d="M310.94,431.81s19-57.25,9.5-127.25,13-203.5,122-256c0,0-29.5,37-33.5,60.5a143.88,143.88,0,0,0,0,45l17-15a104,104,0,0,1-14,35.5c-11,17-18.5,12.5-30,45s-19,88-19,88,21.5-10.5,26-27.5c0,0,3,14.5-14.5,51.5s-42,76.5-42,76.5l18.5-11-20.25,23.75-19.25,13.75Z"/><path class="cls-8" d="M262.44,159.56l21,51.5,8-8.5-2.34,68S264.94,184.06,262.44,159.56Z"/><path class="cls-8" d="M324.94,407.06s22-29.5,29.25-49.5,10.5-32.25,10.5-32.25l-9.25,9.5s-4.5-10.25-6.5-39.5,4-81.25,4-81.25-26.75,49.25-22.25,97.75S332.44,395.56,324.94,407.06Z"/><path class="cls-8" d="M446.1,184.89s-19,13.34-28.66,28.34-14.67,40.33-14.67,40.33,4.67-22.67,22-30,36.33-15,41.33-17.67-5,6.67,6-3.33,31.67-43.67,31.67-43.67-21.67,31.67-37.67,34a258.07,258.07,0,0,1-26,2.67Z"/><path class="cls-8" d="M423.69,220.31s6-10.5,8.5-11.25,21.5-3.88,21.5-3.88a102.88,102.88,0,0,0,12.75-6.12,28.61,28.61,0,0,1-6.88,7.25C455.44,209.18,423.69,220.31,423.69,220.31Z"/><path class="cls-8" d="M427.44,273.81s2.5,8-5.75,25.5-26,41.25-26,41.25,21.75-16.25,32.5-37.5,9.5-45,9.5-45S435.44,273.81,427.44,273.81Z"/><path class="cls-9" d="M445.19,97.81s13.25-44.88,23.12-56.5,28.25-27.13,28.25-27.13l30.5-3.5s-42,27.38-59,48.63S445.19,97.81,445.19,97.81Z"/><path class="cls-9" d="M314.44,110.93l-18.38,23.63s8.75-37.38,27-54.63,42.75-35.62,42.75-35.62l-2.25,5.37L330.94,88.81l-10.13,14.37Z"/><path class="cls-9" d="M278.44,684.56s23.62-15.75,50.58-7.27a56.92,56.92,0,0,1,14.92,7.27S306.56,677.43,278.44,684.56Z"/><path class="cls-9" d="M328.78,534.31s-6.51,12.5-6.51,18-1,10-3.75,12.75-8.67,4.25-11.58,2.92-10,4.08-9.09,5.83,12.42,4.25,12.42,4.25l9-.46,4.79-2,4.42-5.12,3.21-.09,2.54,1,3.83-.91s5.38-3.59,4.92-6.63-5.62-11.46-5.62-11.46l-8,.54-.71-12.12Z"/><path class="cls-9" d="M45.21,420.68s24.23,11.55,29.73,21.88,11.16,44.83,11.83,46-10.17-12.17.67,1.17,13.67,35.3,13.72,35.45.32.84.32.84a92.27,92.27,0,0,0,17.08,26.66c11.63,12.44,15.5,8.82,15.5,8.82l1.07-2.13,1.62-10.87,4.19-2.13h6.75s-6.44-11.31-6.81-20.06,3.31-27.38,3.31-27.38l-21.25-20.18-17.25-19.19-.69-14a259.75,259.75,0,0,0-35.12-17.81s-8-2.86-14.88-4.6l-9.11-2.27Z"/><path class="cls-9" d="M578.19,420.68S554,432.23,548.46,442.56s-11.17,44.83-11.83,46,10.16-12.17-.67,1.17-13.67,35.3-13.72,35.45-.32.84-.32.84a92.18,92.18,0,0,1-17.09,26.66c-11.62,12.44-15.5,8.82-15.5,8.82l-1.06-2.13-1.62-10.87-4.19-2.13h-6.75s6.44-11.31,6.81-20.06-3.31-27.38-3.31-27.38l21.25-20.18,17.25-19.19.69-14a259.75,259.75,0,0,1,35.12-17.81s8-2.86,14.88-4.6l9.1-2.27Z"/></g><g id="contours_-_copie" data-name="contours - copie"><path class="cls-10" d="M162.77,326.89c-46,32.79-53.32,80.48-54.46,92.93a1.5,1.5,0,0,1-2.49,1c-32.14-28.56-95.24-55.28-103-56.58-8-1.34,23.33,57.33,50,100.66s36.67,81.34,60.67,114c23.16,31.53,56.87,5.93,59.2,4.1,0,0,.08,0,.06,0-.86,2-9.93,22.84-9.93,42.52,0,18.45,80.26,75.7,97.45,87.76a12.36,12.36,0,0,0,7.11,2.24h27.54a12.39,12.39,0,0,0,11.23-7.17l5.34-11.5,5.73,11.5a12.39,12.39,0,0,0,11.23,7.17h27.54a12.36,12.36,0,0,0,7.11-2.24c17.19-12.06,97.45-69.31,97.45-87.76,0-19.68-9.07-40.56-9.93-42.52,0,0,0-.07.06,0,2.33,1.83,36,27.43,59.2-4.1,24-32.66,34-70.66,60.67-114s58-102,50-100.66c-7.81,1.3-70.91,28-103,56.58a1.5,1.5,0,0,1-2.49-1c-1.1-12.1-8-57.43-50.6-90.08"/><path class="cls-10" d="M242.44,654.56V639.08c0-30.66,30.44-55.52,68-55.52h0c37.55,0,68,24.86,68,55.52v15.48Z"/><line class="cls-10" x1="275.65" y1="654.45" x2="275.65" y2="591.6"/><line class="cls-10" x1="345.69" y1="654.45" x2="345.69" y2="591.6"/><path class="cls-10" d="M268.94,527.06c-10.88-3.45-30.05-20.4-45.66-35.56a170.74,170.74,0,0,1-35.1-49.17c-22.49-47.28-34.74-40.77-34.74-40.77l-17,49.5s24,0,49.5,26.5,54.5,52,78.5,56Z"/><path class="cls-10" d="M167.69,461.81s-3.75,67,17.5,86.75,39,7.75,44.5,2.5,19.25-22,19.25-22"/><path d="M197.84,489.15c-4-5.18-6.07,12.32-6.07,19.91,0,17,11.49,30.83,25.67,30.83,9.65,0,18.05-6.39,22.44-15.85C239.88,524,211.9,507.25,197.84,489.15Z"/><path class="cls-10" d="M108.1,420.73s-6.83,34.16-.83,41.5c0,0,25.67,27.83,37.17,36.58,0,0-9.25,24.75,1,43.25S172.56,583,172.56,583"/><path d="M103.44,446.38a113.16,113.16,0,0,0-14-8.78c-4.89-2.65-9.94-5-15.07-7.22-2.6-1-5.16-2.13-7.8-3.05l-3.94-1.43-4-1.31c-2.65-.92-5.36-1.62-8-2.43s-5.42-1.4-8.13-2.1c2.74.58,5.49,1.11,8.22,1.74s5.47,1.27,8.16,2.07L62.88,425l4,1.26c2.69.8,5.32,1.8,8,2.72,5.27,2,10.47,4.15,15.55,6.6a116,116,0,0,1,14.82,8.4Z"/><path d="M89.78,436.75a193.67,193.67,0,0,0-3.3,19.36,90.78,90.78,0,0,0-.55,19.55,27.47,27.47,0,0,0,2.56,9.28,40.44,40.44,0,0,0,5.34,8.17,64.49,64.49,0,0,0,6.84,7.09,71.76,71.76,0,0,0,7.77,6.11,72.47,72.47,0,0,1-8-5.82,66.53,66.53,0,0,1-7.16-6.89,41.42,41.42,0,0,1-5.77-8.15,29,29,0,0,1-3-9.59,92.62,92.62,0,0,1-.2-20,192.07,192.07,0,0,1,2.61-19.77Z"/><path class="cls-11" d="M133.19,490.56s-8.75,14.25-4.5,24.5,12.75,17.25,12.75,17.25"/><path d="M147.91,548c-2.71-.71-6-.92-8.22.41-.14.09-.29.16-.41.25l-.34.32a3.18,3.18,0,0,0-.62.7,6.91,6.91,0,0,0-.87,1.83,21.19,21.19,0,0,0-.86,4.47c-.08.78-.15,1.58-.27,2.43a7.1,7.1,0,0,1-.78,2.67l-.2.34a4.09,4.09,0,0,1-.28.33,2.28,2.28,0,0,1-.64.55,4,4,0,0,1-1.49.58,6.77,6.77,0,0,1-1.41.06,6.69,6.69,0,0,1-1.36-.18,13.58,13.58,0,0,1-4.53-2.44,40.69,40.69,0,0,1-3.72-3.2,89.75,89.75,0,0,1-12.15-15,81.92,81.92,0,0,1-8.7-17.16,81.28,81.28,0,0,0,9.32,16.73A88.71,88.71,0,0,0,122.93,556a42.3,42.3,0,0,0,3.68,2.94,12.28,12.28,0,0,0,4,2,6.35,6.35,0,0,0,1,.09,5.25,5.25,0,0,0,1-.07,1.64,1.64,0,0,0,1.17-.87,5.56,5.56,0,0,0,.44-1.94c.08-.74.12-1.55.17-2.35a23,23,0,0,1,.77-5,9,9,0,0,1,1.1-2.54,6.23,6.23,0,0,1,.92-1.13l.53-.51c.19-.15.4-.28.59-.41a10.34,10.34,0,0,1,5.24-1.58,18.86,18.86,0,0,1,5.22.48Z"/><path class="cls-10" d="M354.33,527.06c10.88-3.45,30.05-20.4,45.66-35.56a170.55,170.55,0,0,0,35.1-49.17c22.49-47.28,34.74-40.77,34.74-40.77l17,49.5s-24,0-49.5,26.5-54.5,52-78.5,56Z"/><path class="cls-10" d="M455.58,461.81s3.75,67-17.5,86.75-39,7.75-44.5,2.5-19.25-22-19.25-22"/><path d="M425.44,489.15c4-5.18,6.06,12.32,6.06,19.91,0,17-11.49,30.83-25.67,30.83-9.65,0-18.05-6.39-22.43-15.85C383.4,524,411.37,507.25,425.44,489.15Z"/><path class="cls-10" d="M515.17,420.73s6.83,34.16.83,41.5c0,0-25.67,27.83-37.17,36.58,0,0,9.25,24.75-1,43.25S450.71,583,450.71,583"/><path d="M517.87,443.9a117.49,117.49,0,0,1,14.88-8.35c5.09-2.44,10.31-4.61,15.59-6.57,2.66-.92,5.3-1.91,8-2.72l4-1.26,4.06-1.13c2.7-.8,5.45-1.38,8.17-2.07s5.5-1.16,8.24-1.74c-2.71.7-5.44,1.35-8.14,2.1s-5.4,1.51-8.05,2.43l-4,1.31-3.95,1.43c-2.64.91-5.22,2-7.82,3-5.14,2.19-10.2,4.56-15.11,7.19a115.61,115.61,0,0,0-14.1,8.74Z"/><path d="M536.43,436.12a194.83,194.83,0,0,1,2.6,19.77,92.62,92.62,0,0,1-.2,20,29,29,0,0,1-3.05,9.59A41.42,41.42,0,0,1,530,493.6a66.53,66.53,0,0,1-7.16,6.89,72.47,72.47,0,0,1-8,5.82,71.76,71.76,0,0,0,7.77-6.11,64.49,64.49,0,0,0,6.84-7.09,40.44,40.44,0,0,0,5.34-8.17,27.24,27.24,0,0,0,2.56-9.28,90.78,90.78,0,0,0-.55-19.55,193.67,193.67,0,0,0-3.3-19.36Z"/><path class="cls-11" d="M490.08,490.56s8.75,14.25,4.5,24.5-12.75,17.25-12.75,17.25"/><path d="M474.55,545.11a18.9,18.9,0,0,1,5.23-.48,10.34,10.34,0,0,1,5.23,1.58,6.19,6.19,0,0,1,.59.41l.53.51a5.84,5.84,0,0,1,.92,1.13,9,9,0,0,1,1.1,2.54,23,23,0,0,1,.77,5c.06.8.09,1.61.17,2.35a5.56,5.56,0,0,0,.44,1.94,1.64,1.64,0,0,0,1.17.87,5.25,5.25,0,0,0,1,.07,6.35,6.35,0,0,0,1-.09,12.28,12.28,0,0,0,4-2,40.85,40.85,0,0,0,3.68-2.94,88.71,88.71,0,0,0,12.55-14.36,81.28,81.28,0,0,0,9.32-16.73,81.92,81.92,0,0,1-8.7,17.16,89.25,89.25,0,0,1-12.15,15,40.69,40.69,0,0,1-3.72,3.2,13.63,13.63,0,0,1-4.52,2.44,6.88,6.88,0,0,1-1.37.18,6.77,6.77,0,0,1-1.41-.06,4,4,0,0,1-1.49-.58,2.42,2.42,0,0,1-.64-.55l-.28-.33-.2-.34a7.29,7.29,0,0,1-.78-2.67c-.12-.85-.19-1.65-.27-2.43a21.19,21.19,0,0,0-.86-4.47,6.62,6.62,0,0,0-.87-1.83,3.41,3.41,0,0,0-.61-.7l-.35-.32c-.12-.09-.27-.16-.4-.25-2.19-1.33-5.52-1.12-8.23-.41Z"/><path class="cls-10" d="M460.77,131.23c1.67-19.67,27-45.34,27-45.34-17.67,5-47.33,22.67-47.33,22.67s5.66-15.67,19.66-39S527.77,9.89,527.77,9.89s-79,9.67-115.33,21.67-89,68-89,68c6.33-10.33,47.75-59,47.75-59S345.1,57.89,322.77,80.23s-49.67,72-49.67,72c-12.66-10-39.33-132.67-39.33-132.67s-22,52-36,95.33a273.47,273.47,0,0,0-12.67,83.34,57.36,57.36,0,0,1-14.33-19.67c-5.67-12.67-27.67-91-27.67-91s-13.33,155.67-4.33,182,33.67,53.67,33.67,53.67l-20.34-9s39.34,52.33,69,72,89.84,48.08,89.84,48.08l113-73.75c45-34.5,56-42.5,56-42.5l-25.5,10.5s40-30.5,64-35.5,128,1,128,1-56.5-38.5-87-51-48.5-15.5-48.5-15.5,28.5-6.5,54-5c0,0-36.5-14-60.5-11.5,0,0,24.5-42.5,43.5-50s92.5-38.5,92.5-38.5-67-13-107.5-8A359.34,359.34,0,0,0,460.77,131.23Z"/><path class="cls-10" d="M255.77,107.23s10-39.34,38.67-63.67,60-40.33,60-40.33-18.34,42.66-21,66.66"/><line class="cls-10" x1="310.44" y1="583.56" x2="310.44" y2="654.45"/><path class="cls-10" d="M294.94,553.37v.36l-1.54-.51c-2.25-.68-6.28-1.68-7.46-.49-1.67,1.66-7.17,11-4.5,13.66l6,4.6a7.48,7.48,0,0,0,4.94-.63,3,3,0,0,1,2.53,0c2.66,1,3.5,7.5,13.16,7.5h7.54c9.66,0,10.5-6.5,13.16-7.5a3,3,0,0,1,2.53,0,7.48,7.48,0,0,0,4.94.63l6-4.6c2.67-2.66-2.83-12-4.5-13.66-1.18-1.19-5.21-.19-7.46.49l-1.54.51v-.36"/><polygon points="327.3 553.41 328.8 534.25 330.3 553.41 327.3 553.41"/><polygon points="293.44 553.41 294.94 534.25 296.44 553.41 293.44 553.41"/><path d="M278.44,684.56a44.85,44.85,0,0,1,7.38-4.67c1.29-.69,2.63-1.26,4-1.87s2.72-1.09,4.11-1.57,2.78-1,4.22-1.26,2.86-.73,4.32-1a58.89,58.89,0,0,1,8.81-.89A50,50,0,0,1,328.71,676a46.05,46.05,0,0,1,15.23,8.56,70.59,70.59,0,0,0-15.9-6.32c-1.39-.3-2.76-.6-4.13-.94s-2.79-.39-4.18-.59a57.83,57.83,0,0,0-8.42-.38c-1.41,0-2.81.11-4.22.21s-2.79.31-4.2.49a77,77,0,0,0-8.32,1.66c-1.38.33-2.73.78-4.11,1.16s-2.72.86-4,1.38A78.92,78.92,0,0,0,278.44,684.56Z"/></g></g></g></svg>