<?xml version="1.0" ?><!DOCTYPE svg  PUBLIC '-//W3C//DTD SVG 1.1//EN'  'http://www.w3.org/Graphics/SVG/1.1/DTD/svg11.dtd'><svg enable-background="new 0 0 512 512" height="512px" id="Audition_1_" version="1.1" viewBox="0 0 512 512" width="512px" xml:space="preserve" xmlns="http://www.w3.org/2000/svg" xmlns:xlink="http://www.w3.org/1999/xlink"><g id="Frame_9_"><g><rect fill="#3EDEAC" height="486.004" width="499.004" x="6.998" y="11.998"/></g></g><g id="Background_9_"><g><rect fill="#334C4D" height="407.969" width="421.987" x="45.008" y="51.016"/></g></g><g id="Shadow2_9_" opacity="0.302"><g><polygon points="409,211 381,257 323,211 303,232 206,153 163,157 103,359 236,459 467,459 467,257   "/></g></g><g id="Shadow_10_" opacity="0.302"><g><rect height="13.998" width="421.987" x="45.008" y="51.001"/></g></g><g id="Au"><g><path d="M153.202,300.554l-15.947,58.35h-34.918l59.389-205.904h43.167l60.214,205.904h-36.293l-16.772-58.35    H153.202z M206.267,272.143l-14.572-50.712c-3.574-12.525-6.599-26.578-9.348-38.493h-0.55    c-2.75,11.915-5.499,26.272-8.798,38.493l-14.297,50.712H206.267z" fill="#3EDEAC"/><path d="M409.449,314.301c0,17.719,0.55,32.383,1.1,44.603h-29.694l-1.65-22.606h-0.55    c-5.773,10.692-18.971,25.967-42.892,25.967c-24.471,0-46.741-16.191-46.741-64.765v-87.373h33.818v80.957    c0,24.745,7.148,40.631,25.021,40.631c13.473,0,22.271-10.692,25.845-20.162c1.101-3.36,1.925-7.332,1.925-11.609v-89.816h33.819    V314.301z" fill="#3EDEAC"/></g></g></svg>