<?xml version="1.0" ?><svg id="Layer_1" style="enable-background:new 0 0 128 128;" version="1.1" viewBox="0 0 128 128" xml:space="preserve" xmlns="http://www.w3.org/2000/svg" xmlns:xlink="http://www.w3.org/1999/xlink"><style type="text/css">
	.st0{fill:#002620;}
	.st1{fill:#00E4BB;}
	.st2{fill-rule:evenodd;clip-rule:evenodd;fill:#00E4BB;}
</style><g><g><path class="st0" d="M64,111.2C38,111.2,16.8,90,16.8,64S38,16.8,64,16.8S111.2,38,111.2,64S90,111.2,64,111.2z"/><path class="st1" d="M64,19.7c24.4,0,44.3,19.9,44.3,44.3S88.4,108.3,64,108.3S19.7,88.4,19.7,64S39.6,19.7,64,19.7 M64,14    c-27.6,0-50,22.4-50,50s22.4,50,50,50s50-22.4,50-50S91.6,14,64,14L64,14z"/></g><g><g id="XMLID_8_"><g><path class="st1" d="M45.7,72.4l-3.1,10.5c-0.1,0.4-0.2,0.5-0.5,0.5H37c-0.4,0-0.5-0.2-0.4-0.6      c2.7-9.2,7.3-24.7,10.6-35.1c0.2-0.6,0.3-1.2,0.4-3.3c0-0.2,0.2-0.4,0.3-0.4h7c0.3,0,0.3,0.1,0.4,0.3c3.7,12.4,7.9,26,11.7,38.6      c0.1,0.4,0,0.5-0.3,0.5H61c-0.3,0-0.4-0.1-0.5-0.4l-3.2-10.6H45.7z M56,66.5c-1-4-3.5-12.2-4.5-16.4h-0.1      c-0.8,4-2.8,10.8-4.4,16.4H56z" id="XMLID_29_"/></g></g><path class="st2" d="M91.3,77.5c0,0.4,0.1,1.6,0.2,3.6c0,0.2,0,0.4-0.3,0.4c-3.1,1.2-6.6,2.4-10.9,2.4    c-5.3,0-10.4-2.1-10.4-10.3V55c0-0.3,0.1-0.5,0.4-0.5h5.6c0.3,0,0.4,0.2,0.4,0.5v18c0,3.5,1.3,5.3,5,5.3c1.5,0,2.8-0.3,3.7-0.6V55    c0-0.3,0.1-0.5,0.4-0.5h5.6c0.4,0,0.4,0.2,0.4,0.5V77.5z" id="XMLID_25_"/></g></g></svg>