<?xml version="1.0" ?><svg id="Layer_1" style="enable-background:new 0 0 128 128;" version="1.1" viewBox="0 0 128 128" xml:space="preserve" xmlns="http://www.w3.org/2000/svg" xmlns:xlink="http://www.w3.org/1999/xlink"><style type="text/css">
	.st0{fill:#092600;}
	.st1{fill:#4CFF10;}
</style><g><path class="st0" d="M64,111.2C38,111.2,16.8,90,16.8,64S38,16.8,64,16.8S111.2,38,111.2,64S90,111.2,64,111.2z"/><path class="st1" d="M64,19.7c24.4,0,44.3,19.9,44.3,44.3S88.4,108.3,64,108.3S19.7,88.4,19.7,64S39.6,19.7,64,19.7 M64,14   c-27.6,0-50,22.4-50,50s22.4,50,50,50s50-22.4,50-50S91.6,14,64,14L64,14z"/></g><g><g id="XMLID_8_"><g><path class="st1" d="M30.8,44.6c0-0.2,0.1-0.4,0.4-0.4c3-0.1,6.8-0.2,10.1-0.2c11.4,0,17.2,7.8,17.2,19.4     c0,17.3-11.3,20.3-18.2,20.3c-3.6,0-6.2-0.1-9.1-0.1c-0.3,0-0.4-0.1-0.4-0.5V44.6z M36.9,78C37.8,78,39,78,40.4,78     c7.1,0,11.7-4.4,11.7-14.4c0-9.1-4-13.8-10.9-13.8c-2.3,0-3.9,0.1-4.3,0.1V78z" id="XMLID_33_"/></g></g><g id="XMLID_2_"><g><path class="st1" d="M84,84c-0.3,0-0.4-0.1-0.5-0.5c-2.8-13.5-3.7-18.6-4.2-21.4h0c-0.5,3-1.7,8.4-4.8,21.4     c-0.1,0.4-0.2,0.5-0.5,0.5h-5.5c-0.4,0-0.5-0.2-0.6-0.5l-6.5-28.4c-0.1-0.3,0-0.5,0.3-0.5h5.3c0.3,0,0.4,0.1,0.4,0.4     c3.4,15.7,4.1,20.1,4.4,22.3h0.1c0.2-1,1.4-7.3,4.7-22.2c0-0.4,0.1-0.5,0.4-0.5h5.3c0.2,0,0.3,0.1,0.4,0.4     c3.2,15.4,4,20.3,4.4,22.5H87c0.6-3.6,1.5-9.4,4.6-22.4c0-0.3,0.2-0.4,0.4-0.4h4.9c0.2,0,0.3,0.1,0.3,0.4L90,83.5     C90,83.9,89.9,84,89.5,84H84z" id="XMLID_23_"/></g></g></g></svg>