<?xml version="1.0" ?><!DOCTYPE svg  PUBLIC '-//W3C//DTD SVG 1.1//EN'  'http://www.w3.org/Graphics/SVG/1.1/DTD/svg11.dtd'><svg enable-background="new 0 0 512 512" height="512px" id="Dreamweaver_1_" version="1.1" viewBox="0 0 512 512" width="512px" xml:space="preserve" xmlns="http://www.w3.org/2000/svg" xmlns:xlink="http://www.w3.org/1999/xlink"><g id="Frame_5_"><g><rect fill="#84E403" height="486.004" width="499.004" x="6.998" y="11.998"/></g></g><g id="Background_5_"><g><rect fill="#2E372E" height="407.969" width="421.987" x="45.008" y="51.016"/></g></g><g id="Shadow2_5_" opacity="0.302"><g><polygon points="429,209 394,248 347,209 320,254 272.131,209.123 262,209 189,159 111,149 83,357 222,459 467,459 467,242   "/></g></g><g id="Shadow_6_" opacity="0.302"><g><rect height="13.998" width="421.987" x="45.008" y="51.001"/></g></g><g id="Dw"><g><path d="M82.792,153.538c14.293-2.749,32.556-4.275,51.877-4.275c33.35,0,56.376,7.94,72.787,23.822    c17.204,16.188,27.791,40.621,27.791,75.744c0,36.65-10.852,64.139-27.791,81.853c-17.733,18.631-46.054,28.099-80.727,28.099    c-19.057,0-33.35-1.222-43.937-2.749V153.538z M115.348,327.934c4.5,0.916,11.381,0.916,17.998,0.916    c42.349,0.305,67.493-26.572,67.493-78.799c0.265-45.507-22.498-71.468-63.258-71.468c-10.322,0-17.733,0.916-22.233,2.138    V327.934z" fill="#84E403"/><path d="M271.248,207.903l13.498,67.497c2.912,15.883,5.824,32.069,8.205,48.257h0.529    c2.646-16.188,6.883-32.68,10.588-47.951l16.674-67.803h26.469l16.145,65.971c3.971,17.409,7.412,33.596,10.322,49.783h0.531    c2.117-16.188,5.027-32.374,8.469-49.783l14.293-65.971h32.025L388.5,356.643h-30.172l-15.352-60.473    c-3.971-15.577-6.883-29.626-9.793-47.646h-0.529c-2.648,18.326-6.088,32.986-9.795,47.646l-16.408,60.473h-30.439    l-38.113-148.739H271.248z" fill="#84E403"/></g></g></svg>