<?xml version="1.0" ?><!DOCTYPE svg  PUBLIC '-//W3C//DTD SVG 1.1//EN'  'http://www.w3.org/Graphics/SVG/1.1/DTD/svg11.dtd'><svg enable-background="new 0 0 512 512" height="512px" id="Premiere_Pro_1_" version="1.1" viewBox="0 0 512 512" width="512px" xml:space="preserve" xmlns="http://www.w3.org/2000/svg" xmlns:xlink="http://www.w3.org/1999/xlink"><g id="Frame_7_"><g><rect fill="#D757FF" height="486.004" width="499.004" x="6.998" y="11.998"/></g></g><g id="Background_7_"><g><rect fill="#3A2641" height="407.969" width="421.987" x="45.008" y="51.016"/></g></g><g id="Shadow2_7_" opacity="0.302"><g><polygon points="368,209 355,239 323,211 306,215 241,162 142,157 141,359 274,459 467,459 467,289   "/></g></g><g id="Shadow_8_" opacity="0.302"><g><rect height="13.998" width="421.987" x="45.008" y="51.001"/></g></g><g id="Pr"><g><path d="M141.95,155.749c12.098-2.444,28.869-4.277,51.69-4.277c24.746,0,42.892,5.805,54.715,16.802    c10.998,10.082,18.147,26.273,18.147,45.519c0,19.552-5.499,35.743-15.947,46.741c-13.473,14.97-34.644,21.996-58.564,21.996    c-6.324,0-12.098-0.306-16.497-1.222v77.596H141.95V155.749z M175.494,251.674c4.125,1.222,9.623,1.527,16.497,1.527    c25.295,0,40.692-13.748,40.692-37.881c0-22.913-14.297-35.132-37.668-35.132c-9.348,0-15.947,0.917-19.521,1.833V251.674z" fill="#D757FF"/><path d="M294.268,258.09c0-20.163-0.274-34.521-1.1-47.963h29.419l1.101,28.411h1.1    c6.599-21.079,22.271-31.771,36.568-31.771c3.299,0,5.224,0.306,7.973,0.917v35.438c-2.749-0.611-5.773-1.222-9.897-1.222    c-16.223,0-27.22,11.609-30.244,28.411c-0.551,3.36-1.101,7.332-1.101,11.608v76.985h-33.818V258.09z" fill="#D757FF"/></g></g></svg>